<svg width="101" height="100" viewBox="0 0 101 100" fill="none" xmlns="http://www.w3.org/2000/svg">
<g clip-path="url(#clip0_16_1024)">
<path d="M100.746 100H0.700012V-0.0462646H100.746V100Z" fill="#F5F6F6"/>
<g style="mix-blend-mode:multiply">
<path d="M42.0294 57.5576C42.0294 59.3741 40.5573 60.8455 38.7408 60.8455H15.9024C14.0859 60.8455 12.6137 59.3733 12.6137 57.5576V31.6125C12.6137 29.7961 14.0859 28.3239 15.9024 28.3239H38.7408C40.5573 28.3239 42.0294 29.7961 42.0294 31.6125V57.5576Z" fill="#CCCDCF"/>
</g>
<path d="M41.7008 57.1443C41.7008 58.9608 40.2278 60.4337 38.4122 60.4337H15.5745C13.758 60.4337 12.2851 58.9608 12.2851 57.1443V31.2C12.2851 29.3835 13.758 27.9106 15.5745 27.9106H38.4122C40.2286 27.9106 41.7008 29.3835 41.7008 31.2V57.1443Z" fill="white"/>
<path d="M12.2851 32.8447V31.2008C12.2851 29.3843 13.758 27.9114 15.5745 27.9114H38.4122C40.2286 27.9114 41.7008 29.3843 41.7008 31.2008V32.8447H12.2851Z" fill="#0B4B7F"/>
<path d="M35.3973 31.4565C35.3973 31.6047 35.2765 31.7263 35.1282 31.7263H33.3361C33.1878 31.7263 33.0678 31.6047 33.0678 31.4565V29.6643C33.0678 29.5161 33.1886 29.3969 33.3361 29.3969H35.1282C35.2765 29.3969 35.3973 29.5169 35.3973 29.6643V31.4565Z" fill="white"/>
<path d="M38.7777 31.4565C38.7777 31.6047 38.6569 31.7263 38.5087 31.7263H36.7173C36.569 31.7263 36.4482 31.6047 36.4482 31.4565V29.6643C36.4482 29.5161 36.569 29.3969 36.7173 29.3969H38.5087C38.6577 29.3969 38.7777 29.5169 38.7777 29.6643V31.4565Z" fill="white"/>
<path d="M31.5141 30.5616C31.5141 31.2047 30.9934 31.7263 30.3502 31.7263H15.2773C14.6333 31.7263 14.1126 31.2047 14.1126 30.5616C14.1126 29.9176 14.6333 29.3969 15.2773 29.3969H30.3502C30.9934 29.3969 31.5141 29.9176 31.5141 30.5616Z" fill="white"/>
<path d="M28.6381 42.909C28.6381 46.8071 25.478 49.9671 21.5816 49.9671C17.6835 49.9671 14.5235 46.8071 14.5235 42.909C14.5235 39.0118 17.6835 35.8518 21.5816 35.8518C25.4788 35.8518 28.6381 39.0118 28.6381 42.909Z" fill="#D8D9DA"/>
<path d="M25.1118 46.9655C25.3345 48.0071 17.9941 47.8934 17.9941 46.9655C19.1408 44.9867 18.0318 43.6643 17.8977 41.0565C17.7643 38.4486 24.9212 39.1529 25.071 41.0565C25.2192 42.9608 24.1102 45.5789 25.111 46.9655H25.1118Z" fill="#78241C"/>
<path d="M23.7628 51.4384C23.7243 51.0235 23.5502 49.8486 23.2396 47.9114L23.7651 46.3726C24.2475 46.3663 24.5306 46.6683 24.6145 47.2808C24.6984 47.8926 24.7784 49.2879 24.8545 51.4675L24.882 51.84H23.8279C23.7941 51.6675 23.7714 51.5279 23.7628 51.4384Z" fill="#FFB38F"/>
<path d="M17.8561 51.84L17.8867 51.4314C17.9628 49.2526 18.0428 47.8573 18.1267 47.2455C18.2106 46.6337 18.4937 46.3302 18.9761 46.3365L19.5016 47.8753C19.1902 49.8126 19.0161 50.9883 18.9777 51.4024C18.969 51.4973 18.9424 51.6494 18.9047 51.8392H17.8561V51.84Z" fill="#FFB38F"/>
<path d="M18.5149 49.6149C18.5212 49.2839 18.7526 48.7161 19.2098 47.9106L18.9549 46.3114L20.1863 45.7451H22.6342L23.893 46.3388L23.5989 47.9098C24.162 48.7404 24.4459 49.309 24.4498 49.6141C24.4538 49.92 24.2334 50.2377 23.7887 50.5671L23.3659 51.8392H19.3808L19.0969 50.5671C18.7016 50.2635 18.5079 49.9459 18.5141 49.6141L18.5149 49.6149Z" fill="#FF4D44"/>
<path d="M22.6341 45.7451C22.9306 46.9051 22.9981 47.633 22.8381 47.9294C22.5682 48.4298 20.38 48.3883 20.0859 47.9294C19.8898 47.6235 19.9235 46.8957 20.1871 45.7451L20.5635 45.7255V43.8902H22.2459V45.6486L22.6341 45.7451Z" fill="#FFB38F"/>
<path d="M20.5627 45.2298V43.891H22.2451V45.3749C22.1549 45.4126 22.0616 45.4471 21.9635 45.4745C21.4435 45.6212 21.009 45.4392 20.5635 45.229L20.5627 45.2298Z" fill="#E6937B"/>
<path d="M25.0835 42.88C24.9298 42.9443 24.7635 42.9215 24.5855 42.8117C23.7949 42.8525 23.3996 42.7702 23.3996 42.5639C23.3996 42.2541 23.3996 42.0808 23.3996 41.5294C23.3996 41.0376 23.7949 40.8165 24.5855 40.8659C24.7635 40.6157 24.9729 40.5765 25.2122 40.7467C25.7784 41.1506 25.5275 42.6925 25.0835 42.8792V42.88Z" fill="#FFB38F"/>
<path d="M17.951 40.7475C18.1902 40.5773 18.3988 40.6165 18.5777 40.8667C19.3675 40.8173 19.7628 41.0385 19.7628 41.5302C19.7628 42.0808 19.7628 42.2542 19.7628 42.5647C19.7628 42.771 19.3675 42.8534 18.5777 42.8126C18.3996 42.9224 18.2333 42.9451 18.0796 42.8808C17.6349 42.6942 17.3847 41.1522 17.951 40.7483V40.7475Z" fill="#FFB38F"/>
<path d="M24.6145 42.4573C24.6145 43.829 22.6279 45.3498 21.5628 45.3498C20.3926 45.3498 18.5126 43.7318 18.5126 42.3718C18.5126 40.7663 18.5126 40.7663 18.5126 39.5035C18.5126 35.4526 24.6145 35.1835 24.6145 39.5035C24.6145 42.2565 24.6145 40.4886 24.6145 42.4573Z" fill="#FFB38F"/>
<path d="M18.7926 42.1467C18.4804 42.0745 18.5173 41.6181 18.4702 41.1859C18.413 40.6502 18.1753 40.5773 17.7573 40.9655C17.7055 40.3263 17.6608 39.7702 17.6231 39.2988C17.5651 38.5906 18.8067 35.7153 21.5479 36.3498C24.4239 35.6196 25.1118 38.7365 25.1118 39.4086V40.6588C24.8043 40.7443 24.6522 40.9083 24.6553 41.1498C24.6584 41.3922 24.6584 41.7483 24.6553 42.2188C24.5996 41.9828 24.4059 41.7177 24.4271 40.9012C22.4851 40.6102 19.9118 39.1004 19.3808 38.8055C19.3165 40.2134 18.6773 40.5232 18.6977 40.909C18.7251 41.4016 18.7526 41.76 18.7926 42.1475V42.1467Z" fill="#78241C"/>
<path d="M21.8592 42.8502L21.5055 43.1279V41.1192L21.8592 42.851V42.8502Z" fill="#E6937B"/>
<path d="M20.9761 40.7239C20.6161 40.4824 20.3212 40.3992 20.0914 40.4753C19.8624 40.5514 19.6043 40.7137 19.3181 40.9616L19.2702 40.7843C19.4851 40.5247 19.7479 40.382 20.0592 40.3576C20.3714 40.331 20.6773 40.4533 20.9761 40.7239Z" fill="#78241C"/>
<path d="M21.5769 43.8C21.6592 43.8039 21.9275 43.8165 22.3831 43.8392C22.2247 43.9898 22.1235 44.073 22.0788 44.0879C21.8796 44.1554 21.2867 44.1295 21.1243 44.1185C21.0161 44.1114 20.8671 44.0157 20.6773 43.8337C21.1949 43.8071 21.4953 43.7961 21.5777 43.8008L21.5769 43.8Z" fill="#E23D36"/>
<path d="M20.2247 43.622C20.5039 43.7232 20.7 43.7671 20.8114 43.7553C20.9792 43.7357 21.26 43.4996 21.3267 43.5294C21.3714 43.5482 21.449 43.5804 21.5612 43.6275C21.7071 43.5545 21.802 43.5216 21.8467 43.5294C21.9133 43.5404 22.2616 43.7718 22.3831 43.7553C22.4639 43.7435 22.5988 43.6996 22.7879 43.622C22.5541 43.7765 22.391 43.8683 22.2977 43.8957C22.0396 43.9726 21.7635 43.8918 21.5792 43.88C21.3581 43.8659 21.0381 44.0212 20.7863 43.8879C20.6185 43.8 20.4318 43.7114 20.2255 43.6212L20.2247 43.622Z" fill="#FF473E"/>
<path d="M23.1032 40.3224C23.4153 40.3475 23.6788 40.4902 23.893 40.7498L23.8459 40.9286C23.5588 40.6808 23.3 40.5184 23.071 40.4416C22.842 40.3647 22.5471 40.4479 22.1871 40.691C22.4859 40.4196 22.7918 40.2973 23.1032 40.3232V40.3224Z" fill="#78241C"/>
<path d="M22.3604 41.3177C22.3377 41.3035 22.3 41.2957 22.2482 41.2957C22.373 41.0675 22.6028 40.9537 22.9369 40.9537C23.2718 40.9537 23.5079 41.0698 23.6467 41.3028C23.5031 41.3506 23.4192 41.382 23.3957 41.3969C23.2702 41.3177 23.3306 41.0259 22.9369 41.0259C22.5439 41.0259 22.4867 41.2392 22.3604 41.3184V41.3177Z" fill="#2A161C"/>
<path d="M23.5518 41.3035C23.4977 41.5012 23.3031 41.6 22.9682 41.6C22.6341 41.6 22.398 41.4988 22.26 41.2965C22.398 41.1036 22.6341 41.0071 22.9682 41.0071C23.3031 41.0071 23.4977 41.1059 23.5518 41.3035Z" fill="white"/>
<path d="M22.7706 41.0102C22.8341 41.0008 22.9008 40.9953 22.9675 40.9953C23.0357 40.9953 23.1016 41.0008 23.1651 41.0102C23.2537 41.0745 23.3118 41.1788 23.3118 41.298C23.3118 41.4165 23.2537 41.5208 23.1651 41.5843C23.1016 41.5945 23.0357 41.6008 22.9675 41.6008C22.9 41.6008 22.8341 41.5945 22.7706 41.5843C22.682 41.5208 22.6239 41.4157 22.6239 41.298C22.6239 41.1788 22.682 41.0753 22.7706 41.0102Z" fill="#2A161C"/>
<path d="M23.1079 41.3035C23.1079 41.3804 23.0451 41.4439 22.9675 41.4439C22.8906 41.4439 22.8279 41.3812 22.8279 41.3035C22.8279 41.2267 22.8906 41.1631 22.9675 41.1631C23.0443 41.1631 23.1079 41.2267 23.1079 41.3035Z" fill="#1A0B11"/>
<path d="M22.9314 41.171C22.9314 41.2055 22.9024 41.2329 22.8679 41.2329C22.8326 41.2329 22.8051 41.2055 22.8051 41.171C22.8051 41.1357 22.8326 41.1075 22.8679 41.1075C22.9024 41.1075 22.9314 41.1349 22.9314 41.171Z" fill="white"/>
<path d="M22.9714 41.3067C22.9714 41.3255 22.9573 41.3396 22.9384 41.3396C22.9204 41.3396 22.9055 41.3247 22.9055 41.3067C22.9055 41.2894 22.9204 41.2737 22.9384 41.2737C22.9573 41.2737 22.9714 41.2894 22.9714 41.3067Z" fill="white"/>
<path d="M20.2263 41.0259C19.8326 41.0259 19.8929 41.3184 19.7682 41.3969C19.7447 41.382 19.6608 41.3506 19.5165 41.3028C19.6553 41.0698 19.8914 40.9537 20.2263 40.9537C20.5604 40.9537 20.7902 41.0675 20.9157 41.2957C20.8631 41.2957 20.8263 41.3028 20.8035 41.3177C20.6773 41.2384 20.62 41.0251 20.2263 41.0251V41.0259Z" fill="#2A161C"/>
<path d="M20.1949 41.0071C20.529 41.0071 20.7651 41.1036 20.9039 41.2965C20.7659 41.4988 20.5298 41.6 20.1949 41.6C19.86 41.6 19.6663 41.5012 19.6122 41.3035C19.6663 41.1059 19.86 41.0071 20.1949 41.0071Z" fill="white"/>
<path d="M20.5392 41.2973C20.5392 41.4157 20.4812 41.52 20.3926 41.5835C20.329 41.5937 20.2624 41.6 20.1949 41.6C20.1267 41.6 20.0616 41.5937 19.9973 41.5835C19.9086 41.52 19.8506 41.4149 19.8506 41.2973C19.8506 41.178 19.9078 41.0745 19.9973 41.0094C20.0608 41 20.1267 40.9945 20.1949 40.9945C20.2624 40.9945 20.329 41 20.3926 41.0094C20.4812 41.0737 20.5392 41.178 20.5392 41.2973Z" fill="#2A161C"/>
<path d="M20.1949 41.1631C20.2733 41.1631 20.3345 41.2267 20.3345 41.3035C20.3345 41.3804 20.2733 41.4439 20.1949 41.4439C20.1173 41.4439 20.0553 41.3812 20.0553 41.3035C20.0553 41.2267 20.1173 41.1631 20.1949 41.1631Z" fill="#1A0B11"/>
<path d="M20.2953 41.1075C20.3298 41.1075 20.358 41.1349 20.358 41.171C20.358 41.2055 20.3298 41.2329 20.2953 41.2329C20.26 41.2329 20.2318 41.2055 20.2318 41.171C20.2318 41.1357 20.26 41.1075 20.2953 41.1075Z" fill="white"/>
<path d="M20.2255 41.2737C20.2428 41.2737 20.2584 41.2894 20.2584 41.3067C20.2584 41.3255 20.2428 41.3396 20.2255 41.3396C20.2075 41.3396 20.1926 41.3247 20.1926 41.3067C20.1926 41.2894 20.2075 41.2737 20.2255 41.2737Z" fill="white"/>
<path d="M39.2796 38.1663H29.8035V36.3733H39.2796V38.1663Z" fill="#B0B1B3"/>
<path d="M39.2796 40.3435H29.8035V39.4471H39.2796V40.3435Z" fill="#D8D9DA"/>
<path d="M39.2796 42.178H29.8035V41.2823H39.2796V42.178Z" fill="#D8D9DA"/>
<path d="M39.2796 44.0133H29.8035V43.1169H39.2796V44.0133Z" fill="#D8D9DA"/>
<path d="M39.2796 45.8486H29.8035V44.9514H39.2796V45.8486Z" fill="#D8D9DA"/>
<path d="M39.2796 47.6831H29.8035V46.7874H39.2796V47.6831Z" fill="#D8D9DA"/>
<path d="M39.2796 49.5192H29.8035V48.6219H39.2796V49.5192Z" fill="#D8D9DA"/>
<path d="M39.2796 53.2761H15.8035V52.3796H39.2796V53.2761Z" fill="#D8D9DA"/>
<path d="M39.2796 55.4957H15.8035V54.6H39.2796V55.4957Z" fill="#D8D9DA"/>
<g style="mix-blend-mode:multiply">
<path d="M91.1392 42.8172V64.2769C91.1392 65.7788 89.9212 66.9961 88.4184 66.9961H69.5291C68.5848 66.9961 67.7542 66.5145 67.2663 65.7843C66.8153 65.2988 66.5369 64.6502 66.5369 63.9349V43.8361V42.4769C66.5369 40.9741 67.755 39.7561 69.2577 39.7561H88.1471C89.0914 39.7561 89.9235 40.2376 90.4106 40.9686C90.8616 41.4541 91.14 42.1027 91.14 42.8172H91.1392Z" fill="#C4C5C7"/>
</g>
<g style="mix-blend-mode:multiply">
<path d="M92.2372 63.6494C92.2372 65.1514 91.0192 66.3686 89.5165 66.3686H70.6271C69.1251 66.3686 67.9071 65.1514 67.9071 63.6494V42.1898C67.9071 40.6879 69.1251 39.4698 70.6271 39.4698H89.5165C91.0184 39.4698 92.2372 40.6871 92.2372 42.1898V63.6494Z" fill="#CCCDCF"/>
</g>
<path d="M91.9643 63.3075C91.9643 64.8102 90.7463 66.0275 89.2435 66.0275H70.3549C68.8521 66.0275 67.6341 64.8102 67.6341 63.3075V41.8494C67.6341 40.3467 68.8521 39.1286 70.3549 39.1286H89.2435C90.7463 39.1286 91.9643 40.3467 91.9643 41.8494V63.3075Z" fill="white"/>
<path d="M67.6349 43.2094V41.8494C67.6349 40.3467 68.8529 39.1286 70.3557 39.1286H89.2443C90.747 39.1286 91.9651 40.3467 91.9651 41.8494V43.2094H67.6349Z" fill="#0B4B7F"/>
<path d="M86.751 42.0612C86.751 42.1843 86.6514 42.2839 86.5282 42.2839H85.0459C84.9235 42.2839 84.8239 42.1835 84.8239 42.0612V40.5788C84.8239 40.4565 84.9235 40.3577 85.0459 40.3577H86.5282C86.6514 40.3577 86.751 40.4573 86.751 40.5788V42.0612Z" fill="white"/>
<path d="M89.5471 42.0612C89.5471 42.1843 89.4474 42.2839 89.3243 42.2839H87.842C87.7196 42.2839 87.62 42.1835 87.62 42.0612V40.5788C87.62 40.4565 87.7196 40.3577 87.842 40.3577H89.3243C89.4467 40.3577 89.5471 40.4573 89.5471 40.5788V42.0612Z" fill="white"/>
<path d="M83.54 41.3208C83.54 41.8526 83.1086 42.2839 82.5769 42.2839H70.1102C69.5776 42.2839 69.1463 41.8526 69.1463 41.3208C69.1463 40.7883 69.5776 40.3577 70.1102 40.3577H82.5769C83.1094 40.3577 83.54 40.7883 83.54 41.3208Z" fill="white"/>
<path d="M81.1604 51.5341C81.1604 54.7577 78.5471 57.3718 75.3235 57.3718C72.0992 57.3718 69.4859 54.7584 69.4859 51.5341C69.4859 48.3114 72.0984 45.6973 75.3235 45.6973C78.5471 45.6973 81.1604 48.3114 81.1604 51.5341Z" fill="#D8D9DA"/>
<path d="M76.4546 56.9169C76.6561 57.8612 73.5361 57.1859 73.5361 56.3451C74.5769 54.549 72.0585 54.4126 71.9816 50.5169C71.9346 48.1475 78.4702 48.7843 78.4891 50.5169C78.5259 53.9663 75.5455 55.6588 76.4538 56.9169H76.4546Z" fill="#472B1E"/>
<path d="M77.3024 59.9365C77.2671 59.56 77.1094 58.4933 76.8271 56.7365L77.3039 55.3404C77.7416 55.3341 77.9981 55.6086 78.0742 56.1639C78.1502 56.7192 78.2232 57.9851 78.2922 59.9624L78.3173 60.3004H77.3612C77.3306 60.1435 77.3086 60.0165 77.3016 59.9357L77.3024 59.9365Z" fill="#9C643F"/>
<path d="M71.9424 60.3012L71.9698 59.9302C72.0388 57.9529 72.1118 56.6871 72.1878 56.1326C72.2639 55.5773 72.5204 55.3028 72.9581 55.3082L73.435 56.7043C73.1526 58.4612 72.9942 59.5279 72.9604 59.9043C72.9526 59.9906 72.9291 60.1294 72.8945 60.3012H71.9416H71.9424Z" fill="#9C643F"/>
<path d="M72.5408 58.2816C72.5463 57.9812 72.7565 57.4659 73.1714 56.7357L72.9392 55.2847L74.0576 54.7702H76.278L77.4208 55.3098L77.1541 56.7357C77.6655 57.4894 77.9227 58.0039 77.9266 58.2816C77.9298 58.5592 77.7298 58.8471 77.3266 59.1459L76.9431 60.3004H73.3274L73.0702 59.1459C72.7118 58.8698 72.5361 58.5812 72.5416 58.2816H72.5408Z" fill="#47C8C2"/>
<path d="M76.2781 54.7702C76.5471 55.8228 76.6083 56.484 76.4624 56.753C76.2177 57.2071 74.2318 57.1694 73.9659 56.753C73.7878 56.4753 73.8192 55.8142 74.0584 54.7702L74.3996 54.753V53.0887H75.9259V54.6832L76.2781 54.7702Z" fill="#9C643F"/>
<path d="M74.3996 54.3044V53.0887H75.9259V54.4345C75.8443 54.4691 75.7588 54.4996 75.6702 54.5247C75.198 54.6573 74.8043 54.4926 74.3996 54.3036V54.3044Z" fill="#7F5132"/>
<path d="M78.5 52.1718C78.3604 52.2299 78.2098 52.2087 78.0491 52.1091C77.3322 52.146 76.9738 52.0715 76.9738 51.8848C76.9738 51.6048 76.9738 51.4456 76.9738 50.9467C76.9738 50.5012 77.3322 50.2996 78.0491 50.3436C78.2106 50.1177 78.4004 50.0816 78.6177 50.2369C79.1314 50.6032 78.9039 52.0024 78.5008 52.1718H78.5Z" fill="#9C643F"/>
<path d="M72.0286 50.2361C72.2459 50.0816 72.4349 50.1169 72.5973 50.3428C73.3141 50.2988 73.6718 50.4996 73.6718 50.9459C73.6718 51.4447 73.6718 51.604 73.6718 51.884C73.6718 52.0706 73.3134 52.1451 72.5973 52.1083C72.4357 52.2079 72.2851 52.2291 72.1447 52.171C71.7416 52.0016 71.5141 50.6024 72.0278 50.2361H72.0286Z" fill="#9C643F"/>
<path d="M78.0741 51.7874C78.0741 53.0329 76.2718 54.4125 75.3063 54.4125C74.2435 54.4125 72.5384 52.9451 72.5384 51.7106C72.5384 50.2541 72.5384 50.2541 72.5384 49.109C72.5384 45.4314 78.0741 45.189 78.0741 49.109C78.0741 51.6063 78.0741 50.0016 78.0741 51.7874Z" fill="#9C643F"/>
<path d="M72.7933 51.5059C72.5102 51.4408 72.5431 51.0267 72.5008 50.6346C72.449 50.1491 72.2333 50.0824 71.8537 50.4353C71.7729 49.8565 71.7329 49.3522 71.7322 48.9232C71.7306 48.0722 72.8059 45.6714 75.2922 46.2471C77.9024 45.5851 78.5267 48.4142 78.5267 49.022V50.1561C78.2475 50.2346 78.1086 50.3828 78.1118 50.6032C78.1141 50.8228 78.1141 51.1459 78.1118 51.5718C78.0608 51.3569 77.8859 51.1161 77.9055 50.3757C76.1439 50.1114 75.7188 49.3381 75.1973 48.0196C74.66 49.5506 72.6875 50.033 72.7071 50.3836C72.7322 50.8298 72.7565 51.1553 72.7933 51.5059Z" fill="#472B1E"/>
<path d="M75.5753 52.1436L75.2545 52.3961V50.5734L75.5753 52.1436Z" fill="#7F5132"/>
<path d="M74.7737 50.2149C74.4474 49.9953 74.18 49.92 73.9714 49.9898C73.7635 50.0588 73.5298 50.2063 73.2686 50.4322L73.2263 50.269C73.4208 50.0337 73.6592 49.9051 73.9416 49.8824C74.2255 49.8596 74.5023 49.9702 74.7737 50.2149Z" fill="#472B1E"/>
<path d="M75.3181 53.0055C75.3926 53.0086 75.6365 53.0204 76.0499 53.0408C75.9071 53.178 75.8146 53.2526 75.7738 53.2659C75.5926 53.3279 75.0553 53.3043 74.9071 53.2941C74.809 53.2871 74.6741 53.2008 74.5016 53.0353C74.9722 53.0118 75.2443 53.0016 75.3181 53.0047V53.0055Z" fill="#872C20"/>
<path d="M74.0922 52.8448C74.3455 52.9365 74.5227 52.9765 74.6247 52.9655C74.7761 52.9483 75.0318 52.735 75.0922 52.7601C75.1322 52.7773 75.2027 52.8071 75.3047 52.8503C75.4365 52.7836 75.5227 52.7538 75.5635 52.7601C75.6239 52.7711 75.94 52.9804 76.0498 52.9655C76.1235 52.9553 76.2459 52.9153 76.4169 52.8448C76.2051 52.9851 76.0569 53.0675 75.9714 53.0926C75.7376 53.1624 75.4867 53.0902 75.3196 53.0792C75.1196 53.0659 74.8286 53.207 74.6012 53.0863C74.4482 53.0063 74.2788 52.9255 74.0914 52.8448H74.0922Z" fill="#872C20"/>
<path d="M76.7047 49.851C76.9878 49.8745 77.2263 50.0031 77.4208 50.2376L77.3776 50.4008C77.1173 50.1749 76.8835 50.0275 76.6749 49.9584C76.4671 49.8894 76.1996 49.9639 75.8725 50.1835C76.1439 49.9381 76.4216 49.8275 76.7047 49.851Z" fill="#472B1E"/>
<path d="M76.0294 50.7545C76.009 50.7412 75.9753 50.7349 75.9282 50.7349C76.042 50.5278 76.2498 50.4243 76.5533 50.4243C76.8569 50.4243 77.071 50.5294 77.1965 50.7404C77.0655 50.7843 76.9902 50.8126 76.969 50.8251C76.8553 50.7537 76.9094 50.4878 76.5533 50.4878C76.1965 50.4878 76.1447 50.6831 76.0294 50.7537V50.7545Z" fill="#2A161C"/>
<path d="M77.1102 50.7404C77.0608 50.9193 76.8843 51.0087 76.5816 51.0087C76.2781 51.0087 76.064 50.9169 75.9393 50.7341C76.064 50.5584 76.2781 50.4714 76.5816 50.4714C76.8851 50.4714 77.0616 50.5608 77.1102 50.7396V50.7404Z" fill="white"/>
<path d="M76.4027 50.4753C76.46 50.4667 76.5196 50.4612 76.5816 50.4612C76.6435 50.4612 76.7031 50.4667 76.7612 50.4753C76.842 50.5333 76.8945 50.6275 76.8945 50.7349C76.8945 50.8424 76.842 50.938 76.7612 50.9953C76.7031 51.0039 76.6435 51.0094 76.5816 51.0094C76.5196 51.0094 76.46 51.0047 76.4027 50.9953C76.322 50.938 76.2686 50.8424 76.2686 50.7349C76.2686 50.6275 76.322 50.5326 76.4027 50.4753Z" fill="#2A161C"/>
<path d="M76.7079 50.7404C76.7079 50.8102 76.6514 50.8683 76.5808 50.8683C76.5102 50.8683 76.4537 50.811 76.4537 50.7404C76.4537 50.6706 76.5102 50.6141 76.5808 50.6141C76.6514 50.6141 76.7079 50.6714 76.7079 50.7404Z" fill="#1A0B11"/>
<path d="M76.5479 50.6196C76.5479 50.6518 76.522 50.6769 76.4906 50.6769C76.4593 50.6769 76.4334 50.6518 76.4334 50.6196C76.4334 50.5882 76.4585 50.5631 76.4906 50.5631C76.522 50.5631 76.5479 50.5882 76.5479 50.6196Z" fill="white"/>
<path d="M76.5848 50.7443C76.5848 50.7608 76.5706 50.7741 76.5541 50.7741C76.5377 50.7741 76.5243 50.76 76.5243 50.7443C76.5243 50.7278 76.5377 50.7145 76.5541 50.7145C76.5706 50.7145 76.5848 50.7278 76.5848 50.7443Z" fill="white"/>
<path d="M74.0929 50.4886C73.7361 50.4886 73.7918 50.7546 73.6765 50.826C73.6553 50.8134 73.58 50.7852 73.4498 50.7412C73.5753 50.5302 73.7902 50.4251 74.0929 50.4251C74.3965 50.4251 74.6051 50.5287 74.718 50.7357C74.671 50.7357 74.6372 50.742 74.6161 50.7554C74.5016 50.684 74.4506 50.4894 74.0929 50.4894V50.4886Z" fill="#2A161C"/>
<path d="M74.0655 50.4714C74.369 50.4714 74.5831 50.5592 74.7078 50.7341C74.5831 50.9169 74.369 51.0087 74.0655 51.0087C73.762 51.0087 73.5855 50.9193 73.5369 50.7404C73.5863 50.5616 73.7628 50.4722 74.0655 50.4722V50.4714Z" fill="white"/>
<path d="M74.3769 50.7349C74.3769 50.8424 74.3244 50.938 74.2444 50.9953C74.1863 51.0039 74.1267 51.0094 74.0647 51.0094C74.0036 51.0094 73.9432 51.0047 73.8859 50.9953C73.8043 50.938 73.7525 50.8424 73.7525 50.7349C73.7525 50.6275 73.8043 50.5326 73.8859 50.4753C73.9432 50.4667 74.0036 50.4612 74.0647 50.4612C74.1267 50.4612 74.1863 50.4667 74.2444 50.4753C74.3244 50.5333 74.3769 50.6275 74.3769 50.7349Z" fill="#2A161C"/>
<path d="M74.0655 50.6141C74.1353 50.6141 74.1926 50.6714 74.1926 50.7404C74.1926 50.8102 74.1353 50.8683 74.0655 50.8683C73.9949 50.8683 73.9392 50.811 73.9392 50.7404C73.9392 50.6706 73.9949 50.6141 74.0655 50.6141Z" fill="#1A0B11"/>
<path d="M74.1565 50.5631C74.1878 50.5631 74.2122 50.5882 74.2122 50.6196C74.2122 50.6518 74.1871 50.6769 74.1565 50.6769C74.1251 50.6769 74.0992 50.6518 74.0992 50.6196C74.0992 50.5882 74.1251 50.5631 74.1565 50.5631Z" fill="white"/>
<path d="M74.0922 50.7145C74.1094 50.7145 74.1227 50.7279 74.1227 50.7443C74.1227 50.7608 74.1102 50.7741 74.0922 50.7741C74.0765 50.7741 74.0623 50.76 74.0623 50.7443C74.0623 50.7279 74.0765 50.7145 74.0922 50.7145Z" fill="white"/>
<path d="M89.962 47.611H82.1243V46.1286H89.962V47.611Z" fill="#B0B1B3"/>
<path d="M89.962 49.4118H82.1243V48.6706H89.962V49.4118Z" fill="#D8D9DA"/>
<path d="M89.962 50.9286H87.7008H82.1243V50.1874H89.962V50.9286Z" fill="#D8D9DA"/>
<path d="M89.962 52.4479H82.1243V51.7058H89.962V52.4479Z" fill="#D8D9DA"/>
<path d="M89.962 53.9655H82.1243V53.2235H89.962V53.9655Z" fill="#D8D9DA"/>
<path d="M89.962 55.4832H82.1243V54.742H89.962V55.4832Z" fill="#D8D9DA"/>
<path d="M89.962 57.0008H82.1243V56.2596H89.962V57.0008Z" fill="#D8D9DA"/>
<path d="M89.962 60.1083H70.5455V59.367H89.962V60.1083Z" fill="#D8D9DA"/>
<path d="M89.962 61.9443H70.5455V61.2032H89.962V61.9443Z" fill="#D8D9DA"/>
<path opacity="0.1" d="M70.5502 89.8706C70.5502 91.0165 61.6733 91.9459 50.7227 91.9459C39.7722 91.9459 30.8953 91.0173 30.8953 89.8706C30.8953 88.7247 39.7722 87.7953 50.7227 87.7953C61.6733 87.7953 70.5502 88.7239 70.5502 89.8706Z" fill="#707176"/>
<path opacity="0.1" d="M68.9808 89.8706C68.9808 90.9263 60.8067 91.7812 50.7228 91.7812C40.6388 91.7812 32.4647 90.9255 32.4647 89.8706C32.4647 88.8157 40.6388 87.96 50.7228 87.96C60.8067 87.96 68.9808 88.8157 68.9808 89.8706Z" fill="#707176"/>
<path opacity="0.1" d="M78.1204 89.8706C78.1204 91.4542 65.8545 92.7381 50.7235 92.7381C35.5926 92.7381 23.3267 91.4542 23.3267 89.8706C23.3267 88.2871 35.5926 87.004 50.7235 87.004C65.8545 87.004 78.1204 88.2879 78.1204 89.8706Z" fill="#707176"/>
<path opacity="0.1" d="M75.9518 89.8706C75.9518 91.3287 64.6561 92.5114 50.7228 92.5114C36.7894 92.5114 25.4937 91.3294 25.4937 89.8706C25.4937 88.4126 36.7886 87.2306 50.7228 87.2306C64.6561 87.2306 75.9518 88.4126 75.9518 89.8706Z" fill="#707176"/>
<path opacity="0.1" d="M74.1172 89.8706C74.1172 91.2228 63.6435 92.3193 50.7235 92.3193C37.8036 92.3193 27.3298 91.2236 27.3298 89.8706C27.3298 88.5185 37.8036 87.4228 50.7235 87.4228C63.6435 87.4228 74.1172 88.5185 74.1172 89.8706Z" fill="#707176"/>
<path opacity="0.1" d="M72.1157 89.8706C72.1157 91.1067 62.5384 92.1091 50.7235 92.1091C38.9086 92.1091 29.3314 91.1067 29.3314 89.8706C29.3314 88.6345 38.9094 87.6322 50.7235 87.6322C62.5384 87.6322 72.1157 88.6345 72.1157 89.8706Z" fill="#707176"/>
<path opacity="0.1" d="M59.5784 89.8706C59.5784 90.3828 55.6137 90.7977 50.7228 90.7977C45.8318 90.7977 41.8671 90.3828 41.8671 89.8706C41.8671 89.3593 45.8318 88.9436 50.7228 88.9436C55.6137 88.9436 59.5784 89.3585 59.5784 89.8706Z" fill="#707176"/>
<path opacity="0.1" d="M58.878 89.8706C58.878 90.342 55.227 90.724 50.7235 90.724C46.22 90.724 42.569 90.342 42.569 89.8706C42.569 89.3993 46.22 89.0173 50.7235 89.0173C55.227 89.0173 58.878 89.3993 58.878 89.8706Z" fill="#707176"/>
<path opacity="0.1" d="M58.2851 89.8706C58.2851 90.3075 54.8992 90.662 50.7235 90.662C46.5478 90.662 43.162 90.3075 43.162 89.8706C43.162 89.4338 46.5478 89.0793 50.7235 89.0793C54.8992 89.0793 58.2851 89.433 58.2851 89.8706Z" fill="#707176"/>
<path opacity="0.1" d="M57.6381 89.8706C57.6381 90.2706 54.5424 90.5945 50.7235 90.5945C46.9047 90.5945 43.809 90.2706 43.809 89.8706C43.809 89.4714 46.9047 89.1467 50.7235 89.1467C54.5424 89.1467 57.6381 89.4706 57.6381 89.8706Z" fill="#707176"/>
<path opacity="0.1" d="M62.8678 89.8706C62.8678 90.5726 57.4309 91.1412 50.7235 91.1412C44.0169 91.1412 38.5793 90.5726 38.5793 89.8706C38.5793 89.1687 44.0169 88.6 50.7235 88.6C57.4309 88.6 62.8678 89.1694 62.8678 89.8706Z" fill="#707176"/>
<path opacity="0.1" d="M61.9063 89.8706C61.9063 90.5169 56.8992 91.0408 50.7235 91.0408C44.5471 91.0408 39.54 90.5169 39.54 89.8706C39.54 89.2244 44.5471 88.7004 50.7235 88.7004C56.9 88.7004 61.9063 89.2244 61.9063 89.8706Z" fill="#707176"/>
<path opacity="0.1" d="M61.093 89.8706C61.093 90.4698 56.4498 90.9561 50.7228 90.9561C44.9957 90.9561 40.3526 90.4706 40.3526 89.8706C40.3526 89.2714 44.9957 88.7851 50.7228 88.7851C56.4498 88.7851 61.093 89.2714 61.093 89.8706Z" fill="#707176"/>
<path opacity="0.1" d="M60.2058 89.8706C60.2058 90.4188 55.9604 90.8628 50.7235 90.8628C45.4867 90.8628 41.2412 90.4188 41.2412 89.8706C41.2412 89.3224 45.4867 88.8784 50.7235 88.8784C55.9604 88.8784 60.2058 89.3224 60.2058 89.8706Z" fill="#707176"/>
<path opacity="0.1" d="M67.5039 89.8706C67.5039 90.8408 59.991 91.6267 50.7227 91.6267C41.4545 91.6267 33.9416 90.84 33.9416 89.8706C33.9416 88.9004 41.4545 88.1145 50.7227 88.1145C59.991 88.1145 67.5039 88.9012 67.5039 89.8706Z" fill="#707176"/>
<path opacity="0.1" d="M66.1761 89.8706C66.1761 90.7639 59.2577 91.4879 50.7235 91.4879C42.1894 91.4879 35.271 90.7639 35.271 89.8706C35.271 88.9781 42.1894 88.2534 50.7235 88.2534C59.2577 88.2534 66.1761 88.9773 66.1761 89.8706Z" fill="#707176"/>
<path opacity="0.1" d="M65.0522 89.8706C65.0522 90.6988 58.6365 91.3702 50.7228 91.3702C42.809 91.3702 36.3933 90.6988 36.3933 89.8706C36.3933 89.0424 42.809 88.371 50.7228 88.371C58.6365 88.371 65.0522 89.0424 65.0522 89.8706Z" fill="#707176"/>
<path opacity="0.1" d="M63.8263 89.8706C63.8263 90.6283 57.9596 91.2416 50.7235 91.2416C43.4867 91.2416 37.6208 90.6275 37.6208 89.8706C37.6208 89.1138 43.4867 88.4996 50.7235 88.4996C57.9604 88.4996 63.8263 89.1138 63.8263 89.8706Z" fill="#707176"/>
<path opacity="0.1" d="M56.8286 89.8706C56.8286 90.2236 54.0953 90.5099 50.7228 90.5099C47.3502 90.5099 44.6169 90.2236 44.6169 89.8706C44.6169 89.5177 47.3502 89.2314 50.7228 89.2314C54.0953 89.2314 56.8286 89.5177 56.8286 89.8706Z" fill="#707176"/>
<path opacity="0.1" d="M56.2898 89.8706C56.2898 90.1922 53.7973 90.4534 50.7235 90.4534C47.649 90.4534 45.1573 90.1922 45.1573 89.8706C45.1573 89.549 47.6498 89.2879 50.7235 89.2879C53.798 89.2879 56.2898 89.549 56.2898 89.8706Z" fill="#707176"/>
<path opacity="0.1" d="M55.9126 89.8706C55.9126 90.171 53.5894 90.4142 50.7235 90.4142C47.8577 90.4142 45.5345 90.171 45.5345 89.8706C45.5345 89.571 47.8577 89.3279 50.7235 89.3279C53.5894 89.3279 55.9126 89.571 55.9126 89.8706Z" fill="#707176"/>
<path opacity="0.1" d="M55.5016 89.8706C55.5016 90.1467 53.362 90.371 50.7228 90.371C48.0835 90.371 45.9439 90.1467 45.9439 89.8706C45.9439 89.5946 48.0835 89.3702 50.7228 89.3702C53.362 89.3702 55.5016 89.5946 55.5016 89.8706Z" fill="#707176"/>
<path opacity="0.1" d="M55.1541 89.8706C55.1541 90.1271 53.1706 90.335 50.7228 90.335C48.2757 90.335 46.2914 90.1271 46.2914 89.8706C46.2914 89.615 48.2757 89.4071 50.7228 89.4071C53.1698 89.4071 55.1541 89.615 55.1541 89.8706Z" fill="#707176"/>
<path opacity="0.1" d="M54.7753 89.8706C54.7753 90.1051 52.9612 90.295 50.7235 90.295C48.4859 90.295 46.6718 90.1051 46.6718 89.8706C46.6718 89.6361 48.4859 89.4463 50.7235 89.4463C52.9612 89.4463 54.7753 89.6361 54.7753 89.8706Z" fill="#707176"/>
<path opacity="0.1" d="M54.3016 89.8706C54.3016 90.0777 52.6992 90.2455 50.7235 90.2455C48.7471 90.2455 47.1455 90.0777 47.1455 89.8706C47.1455 89.6643 48.7479 89.4965 50.7235 89.4965C52.7 89.4965 54.3016 89.6643 54.3016 89.8706Z" fill="#707176"/>
<path opacity="0.1" d="M53.9855 89.8706C53.9855 90.0596 52.5251 90.2118 50.7235 90.2118C48.922 90.2118 47.4616 90.0589 47.4616 89.8706C47.4616 89.6824 48.922 89.5294 50.7235 89.5294C52.5251 89.5294 53.9855 89.6824 53.9855 89.8706Z" fill="#707176"/>
<path opacity="0.1" d="M53.9855 89.8706C53.9855 90.0596 52.5251 90.2118 50.7235 90.2118C48.922 90.2118 47.4616 90.0589 47.4616 89.8706C47.4616 89.6824 48.922 89.5294 50.7235 89.5294C52.5251 89.5294 53.9855 89.6824 53.9855 89.8706Z" fill="#707176"/>
<path opacity="0.1" d="M53.7275 89.8706C53.7275 90.044 52.3824 90.1851 50.7235 90.1851C49.0647 90.1851 47.7196 90.044 47.7196 89.8706C47.7196 89.6973 49.0647 89.5561 50.7235 89.5561C52.3824 89.5561 53.7275 89.6973 53.7275 89.8706Z" fill="#707176"/>
<path opacity="0.1" d="M53.5087 89.8706C53.5087 90.0314 52.2616 90.1624 50.7236 90.1624C49.1855 90.1624 47.9384 90.0322 47.9384 89.8706C47.9384 89.7098 49.1855 89.5797 50.7236 89.5797C52.2616 89.5797 53.5087 89.7098 53.5087 89.8706Z" fill="#707176"/>
<path opacity="0.1" d="M53.2702 89.8706C53.2702 90.0181 52.1298 90.1373 50.7228 90.1373C49.3157 90.1373 48.1753 90.0181 48.1753 89.8706C48.1753 89.7232 49.3157 89.6039 50.7228 89.6039C52.1298 89.6039 53.2702 89.7232 53.2702 89.8706Z" fill="#707176"/>
<path opacity="0.1" d="M52.9722 89.8706C52.9722 90.0007 51.9651 90.1058 50.7228 90.1058C49.4804 90.1058 48.4733 90.0007 48.4733 89.8706C48.4733 89.7404 49.4804 89.6353 50.7228 89.6353C51.9651 89.6353 52.9722 89.7404 52.9722 89.8706Z" fill="#707176"/>
<path opacity="0.1" d="M52.7738 89.8706C52.7738 89.989 51.8561 90.0855 50.7236 90.0855C49.591 90.0855 48.6733 89.9898 48.6733 89.8706C48.6733 89.7522 49.591 89.6565 50.7236 89.6565C51.8561 89.6565 52.7738 89.7522 52.7738 89.8706Z" fill="#707176"/>
<path opacity="0.1" d="M52.635 89.8706C52.635 89.9812 51.7793 90.0706 50.7236 90.0706C49.6679 90.0706 48.8122 89.9812 48.8122 89.8706C48.8122 89.76 49.6679 89.6706 50.7236 89.6706C51.7793 89.6706 52.635 89.76 52.635 89.8706Z" fill="#707176"/>
<path opacity="0.1" d="M52.4836 89.8706C52.4836 89.9726 51.6953 90.0549 50.7236 90.0549C49.751 90.0549 48.9635 89.9726 48.9635 89.8706C48.9635 89.7687 49.7518 89.6863 50.7236 89.6863C51.6961 89.6863 52.4836 89.7687 52.4836 89.8706Z" fill="#707176"/>
<path opacity="0.1" d="M52.3557 89.8706C52.3557 89.9647 51.6247 90.0416 50.7235 90.0416C49.8224 90.0416 49.0914 89.9647 49.0914 89.8706C49.0914 89.7765 49.8224 89.6996 50.7235 89.6996C51.6247 89.6996 52.3557 89.7765 52.3557 89.8706Z" fill="#707176"/>
<path opacity="0.1" d="M52.2161 89.8706C52.2161 89.9569 51.5478 90.0267 50.7235 90.0267C49.8992 90.0267 49.231 89.9569 49.231 89.8706C49.231 89.7843 49.8992 89.7145 50.7235 89.7145C51.5478 89.7145 52.2161 89.7843 52.2161 89.8706Z" fill="#707176"/>
<path opacity="0.1" d="M52.0412 89.8706C52.0412 89.9467 51.4514 90.0087 50.7235 90.0087C49.9957 90.0087 49.4059 89.9467 49.4059 89.8706C49.4059 89.7945 49.9957 89.7326 50.7235 89.7326C51.4514 89.7326 52.0412 89.7945 52.0412 89.8706Z" fill="#707176"/>
<path opacity="0.1" d="M51.9251 89.8706C51.9251 89.9404 51.3871 89.9969 50.7235 89.9969C50.06 89.9969 49.522 89.9404 49.522 89.8706C49.522 89.8016 50.06 89.7451 50.7235 89.7451C51.3871 89.7451 51.9251 89.8016 51.9251 89.8706Z" fill="#707176"/>
<path opacity="0.1" d="M51.7541 89.8706C51.7541 89.9302 51.2922 89.9789 50.7228 89.9789C50.1533 89.9789 49.6914 89.9302 49.6914 89.8706C49.6914 89.8109 50.1533 89.7631 50.7228 89.7631C51.2922 89.7631 51.7541 89.8117 51.7541 89.8706Z" fill="#707176"/>
<path opacity="0.1" d="M51.5721 89.8706C51.5721 89.92 51.1917 89.9592 50.7227 89.9592C50.2537 89.9592 49.8733 89.9192 49.8733 89.8706C49.8733 89.822 50.2537 89.782 50.7227 89.782C51.1917 89.782 51.5721 89.822 51.5721 89.8706Z" fill="#707176"/>
<path opacity="0.1" d="M51.3094 89.8706C51.3094 89.9044 51.0466 89.9318 50.7227 89.9318C50.3988 89.9318 50.1361 89.9044 50.1361 89.8706C50.1361 89.8369 50.3988 89.8094 50.7227 89.8094C51.0466 89.8094 51.3094 89.8369 51.3094 89.8706Z" fill="#707176"/>
<path opacity="0.1" d="M51.1204 89.8706C51.1204 89.8941 50.9424 89.9122 50.7228 89.9122C50.5031 89.9122 50.3251 89.8941 50.3251 89.8706C50.3251 89.8479 50.5031 89.829 50.7228 89.829C50.9424 89.829 51.1204 89.8479 51.1204 89.8706Z" fill="#707176"/>
<path d="M27.8373 78.2392L29.5173 76.0651C29.82 76.3184 30.5549 76.8047 31.722 77.5239C33.1745 77.0886 34.5063 77.1968 35.7157 77.8486C36.3432 78.1553 37.1612 78.5333 38.1706 78.9843C39.9588 79.3568 40.3024 79.8204 39.202 80.3741C38.3667 80.5294 37.311 80.2572 36.0357 79.5592C36.0914 79.6266 36.4506 79.8619 37.1141 80.2651C38.2828 80.9913 39.1777 81.727 40.4483 82.8258C40.6671 83.0156 40.8412 83.4682 40.6796 83.7106C40.5659 83.8815 40.2702 83.938 40.0436 83.9356C39.8867 83.9341 39.7079 83.796 39.5761 83.7184C39.0686 83.4204 38.6585 83.0541 38.013 82.6149C37.4686 82.2439 36.8781 81.8486 36.3855 81.4125C36.5439 81.527 36.6922 81.6564 36.8459 81.7764C37.5416 82.3207 38.2122 82.8949 38.8883 83.4635C39.2185 83.7411 39.5204 84.04 39.8388 84.3286C39.9918 84.4674 40.1628 84.5976 40.2616 84.7835C40.351 84.9513 40.4137 85.3262 40.3071 85.4996C40.0051 85.9929 39.2992 85.6141 39.0114 85.3882C39.002 85.3811 37.5635 84.2517 34.6945 81.9992C34.6977 82.0007 34.7008 82.0023 34.7039 82.0047C34.853 82.1176 34.9973 82.2407 35.1408 82.3607C35.4467 82.6164 35.7541 82.8698 36.0616 83.1247C36.431 83.4305 36.7926 83.7427 37.1565 84.0541C37.4859 84.3349 37.831 84.6266 38.1275 84.9419C38.2381 85.0588 38.3494 85.1686 38.4679 85.2768C38.5847 85.3843 38.7235 85.6133 38.7408 85.7709C38.7565 85.916 38.7667 86.0792 38.6679 86.1968C38.4828 86.4156 38.1267 86.3411 37.9181 86.2086C37.6741 86.0533 37.4443 85.8737 37.2106 85.7051C36.8867 85.4729 36.5651 85.2384 36.2435 85.0047C35.9039 84.7568 35.5628 84.5113 35.2232 84.2651C34.9534 84.069 34.6835 83.8737 34.413 83.6784C34.3024 83.5984 34.1918 83.5184 34.082 83.4392C34.1792 83.516 34.2679 83.607 34.3612 83.6878C34.7824 84.0541 35.1863 84.4407 35.609 84.8047C35.8114 84.9788 35.9996 85.1717 36.2059 85.3396C36.4357 85.527 36.7024 85.7615 36.6271 86.1019C36.5565 86.418 36.1651 86.4666 35.9275 86.3231C35.6302 86.1435 35.333 85.9639 35.0349 85.7851C34.529 85.48 34.0232 85.1749 33.5173 84.8698C33.2592 84.7145 33.002 84.5592 32.7439 84.4031C31.609 83.7184 30.4969 82.709 29.9071 81.4298C29.6169 80.8007 28.9282 79.738 27.8396 78.2407L27.8373 78.2392Z" fill="#E4A27D"/>
<path d="M72.2639 79.291C72.3823 80.6941 71.9125 82.1208 71.2631 83.2768C71.1157 83.5396 70.9674 83.8015 70.8208 84.0635C70.5314 84.5788 70.2419 85.0933 69.9525 85.6086C69.7816 85.9113 69.6121 86.2141 69.4412 86.5168C69.3055 86.7584 68.9408 86.9098 68.7235 86.6698C68.4898 86.411 68.6067 86.0753 68.7141 85.7992C68.8098 85.5513 68.8788 85.2902 68.969 85.0392C69.1572 84.5137 69.3172 83.9788 69.5031 83.4525C69.5447 83.3364 69.5761 83.2125 69.6231 83.098C69.5667 83.2219 69.5094 83.3459 69.4529 83.4698C69.3133 83.7733 69.1761 84.0761 69.0372 84.3796C68.8631 84.7623 68.6874 85.1435 68.5141 85.5262C68.3494 85.8894 68.1847 86.251 68.0184 86.6125C67.8976 86.8753 67.7871 87.1443 67.6514 87.3992C67.5353 87.618 67.2623 87.858 66.9933 87.7584C66.849 87.7051 66.7776 87.5584 66.7196 87.4243C66.6569 87.2784 66.6647 87.0109 66.7133 86.8596C66.7627 86.7066 66.8059 86.5568 66.8435 86.4C66.9463 85.9796 67.1031 85.5553 67.2506 85.1482C67.4145 84.698 67.5745 84.2478 67.7447 83.8C67.8867 83.4274 68.0286 83.0549 68.169 82.6815C68.2341 82.5066 68.2984 82.3278 68.3729 82.1561C68.3745 82.1529 68.3761 82.1498 68.3776 82.1466C66.9933 85.5215 66.2992 87.2141 66.2945 87.2243C66.1549 87.5631 65.7282 88.2408 65.2224 87.9608C65.0435 87.8619 64.9141 87.5051 64.9086 87.3153C64.9031 87.1051 64.9878 86.9074 65.0522 86.7113C65.1863 86.3035 65.3016 85.8941 65.4522 85.4902C65.7596 84.6627 66.06 83.8321 66.3965 83.0157C66.471 82.8353 66.5361 82.6494 66.6176 82.4721C66.4043 83.0949 66.0859 83.7302 65.7949 84.3208C65.4498 85.0219 65.2741 85.5427 64.9792 86.0525C64.9031 86.1851 64.8153 86.3937 64.6804 86.4721C64.4843 86.5859 64.1996 86.6831 64.0153 86.5906C63.7549 86.4588 63.6828 85.9796 63.78 85.7066C64.3439 84.1247 64.7588 83.0423 65.4169 81.8345C65.7957 81.1568 65.9925 80.7749 66.0067 80.6886C65.2412 81.9255 64.4577 82.6831 63.6545 82.96C62.4239 83.0212 62.4945 82.4478 63.8663 81.2415C64.522 80.3521 65.0467 79.6196 65.4412 79.0431C66.1722 77.8792 67.2773 77.1286 68.7557 76.7898C69.4161 75.5882 69.8153 74.8031 69.9533 74.4337L73.5894 75.9584C72.6459 77.4894 72.2035 78.5992 72.2623 79.2894L72.2639 79.291Z" fill="#E4A27D"/>
<path d="M56.1745 47.4031C55.4686 51.0816 56.0569 53.0157 57.9392 53.2047C52.998 57.0714 48.6451 57.0714 44.8804 53.2047C46.5275 51.978 47.0639 50.5545 46.489 48.9333L56.1745 47.4031Z" fill="#D08E69"/>
<path d="M72.2803 79.7177C71.0011 77.6518 68.8451 77.2463 65.8129 78.5012L68.5274 73.6384L62.449 66.6251L60.9423 79.0894H41.711L40.5667 66.6188L33.351 73.9639L34.0443 77.3537C31.1251 77.0463 29.4655 77.9875 29.0663 80.1765C27.6616 79.2682 26.711 77.0235 26.2137 73.4424L34.3722 59.1475C36.1478 56.2141 39.5306 55.0259 42.3949 53.4329C43.4239 52.8612 44.4498 52.2847 45.4812 51.7177C50.1306 55.7702 54.3102 55.7702 58.0208 51.7177C59.6804 52.3929 61.34 53.0682 62.998 53.7467C66.0482 54.9961 68.9674 57.0141 70.107 60.3537L75.2348 73.7561C74.7847 75.8957 73.8003 77.8831 72.2819 79.7177H72.2803Z" fill="#43454B"/>
<path d="M60.6914 41.5914C60.1016 42.3106 59.7855 43.131 59.7432 44.0526C59.5722 44.4565 59.3557 44.6141 59.0945 44.5255C58.0851 47.6282 56.0773 49.771 53.7534 51.2031C52.1314 52.4784 50.2263 52.3984 48.0396 50.9647C46.1071 49.5773 44.1149 47.3608 43.0318 44.4565C42.722 44.6831 42.4624 44.549 42.2529 44.0533C42.2106 43.1318 41.8945 42.3114 41.3047 41.5922C40.4796 39.9412 41.9306 39.8431 42.2082 39.8384C42.2192 32.6494 46.151 28.7373 50.9981 28.7373C55.8459 28.7373 59.7777 32.6494 59.7887 39.8384C60.0663 39.8424 61.5165 39.9412 60.6914 41.5922V41.5914Z" fill="#E4A27D"/>
<path d="M59.8804 39.8737C59.5926 40.4847 58.2663 41.3255 58.4098 42.1177C58.4098 42.1616 58.4098 42.1616 58.4098 42.1177C58.2318 41.84 58.4365 40.9788 58.4098 40.6384C58.3628 40.0494 58.2522 39.5075 58.1157 38.931C57.8302 37.7286 57.4773 36.6502 56.7793 35.6235C55.9565 34.4118 55.0216 33.6165 53.4098 33.6973C52.4404 33.7459 50.9832 33.9796 50.8232 35.1506C49.9965 33.1859 46.4639 33.2149 45.2922 34.8416C44.6059 35.7945 44.3243 36.8643 44.1628 38.0047C44.0655 38.691 44.0255 39.389 43.8937 40.0635C43.8137 40.4698 43.7526 41.3067 43.5282 41.5796C43.3769 40.7867 42.9369 40.2063 42.2082 39.8377C41.1314 39.2933 42.1047 33.9929 42.3361 33.2055C43.4467 29.422 46.7541 27.2125 50.5479 26.8118C52.4538 26.6102 54.34 26.1098 56.2891 26.2502C55.8655 26.5576 55.4271 26.9725 55.0632 27.3882C56.1706 27.2102 57.2193 26.862 58.4004 26.9498C57.7745 27.4086 58.0624 28.1098 57.7487 28.7969C59.1212 28.7137 60.1377 30.4118 60.8451 31.3882C60.1879 31.2141 59.5675 30.8761 58.9157 30.6886C61.8044 31.5184 60.7495 38.0267 59.8804 39.8737Z" fill="#362017"/>
<path d="M52.2098 54.418C53.998 54.4674 55.9345 53.5671 58.0192 51.7169L59.9259 52.4925C58.3839 55.3474 55.5267 56.52 51.409 56.5788C51.3651 56.5796 51.3212 56.5796 51.2773 56.5796C48.5627 56.5663 45.8867 55.3584 43.249 52.9553L45.4796 51.7169C48.06 53.6118 50.3031 54.5122 52.209 54.418H52.2098Z" fill="#ECECED"/>
<path d="M67.1063 85.0949C67.1063 85.8666 66.4804 86.4917 65.7094 86.4917H36.1878C35.4161 86.4917 34.791 85.8666 34.791 85.0949V63.5631C34.791 62.7914 35.4161 62.1663 36.1878 62.1663H65.7094C66.4804 62.1663 67.1063 62.7914 67.1063 63.5631V85.0949Z" fill="#2C2E35"/>
<path d="M66.6984 63.8588V75.9043C66.6984 81.389 66.0882 85.8353 65.3361 85.8353H36.5377C35.7847 85.8353 35.1753 81.389 35.1753 75.9043V63.8588H66.6992H66.6984Z" fill="#85878B"/>
<path d="M44.0922 87.1827H39.6286V86.1302H44.0922V87.1827Z" fill="#85878B"/>
<path d="M61.4757 87.1827H57.0129V86.1302H61.4757V87.1827Z" fill="#85878B"/>
<path d="M31.5063 87.6078H70.489C70.1305 88.7451 69.6262 89.531 68.9768 89.9639H35.0357C32.9102 89.7474 31.7337 88.9615 31.5071 87.6078H31.5063Z" fill="#2C2E35"/>
<path fill-rule="evenodd" clip-rule="evenodd" d="M59.0451 42.4369C58.4819 44.0933 57.5847 44.942 55.4976 44.942C53.4098 44.942 52.3494 44.378 51.9494 42.4369C51.8733 42.0675 51.8678 41.7334 51.9204 41.4322C51.6255 41.2204 51.1243 41.0047 50.6216 41.4502C50.6545 41.7192 50.6412 42.0141 50.5745 42.3357C50.1745 44.2769 49.1141 44.8408 47.0263 44.8408C44.9376 44.8408 44.042 43.9929 43.478 42.3357C42.842 40.4675 43.4545 38.8863 47.2349 39.182C47.7745 39.2243 48.2874 39.3216 48.7439 39.4761H48.7431H48.7439H48.7447C48.918 39.5349 49.0827 39.6024 49.238 39.6785C50.0035 39.9404 51.598 40.2879 53.6082 39.6392C53.7118 39.5992 53.8192 39.5624 53.9282 39.5294C54.3463 39.4016 54.8067 39.32 55.289 39.2824C59.0686 38.9875 59.6819 40.5679 59.0451 42.4369ZM47.3086 39.9012C44.18 39.6706 43.6726 40.9043 44.1988 42.3616C44.6655 43.6533 45.4082 44.3153 47.1361 44.3153C48.8639 44.3153 49.7416 43.8753 50.0733 42.3616C50.4184 40.7836 49.0325 40.0275 47.3094 39.9012H47.3086ZM55.2145 40.0024C53.4914 40.1294 52.1055 40.8855 52.4506 42.4628C52.7823 43.9773 53.66 44.4165 55.3878 44.4165C57.1157 44.4165 57.8584 43.7545 58.3251 42.4628C58.8513 41.0047 58.3447 39.7718 55.2153 40.0024H55.2145Z" fill="#2C2E35"/>
<path d="M43.911 41.8588L42.9957 42.0941L42.6435 39.7278H44.1024L43.911 41.8588Z" fill="#2C2E35"/>
<path d="M58.4522 39.7287H59.911L59.5596 42.0949L58.6444 41.8596L58.4522 39.7287Z" fill="#2C2E35"/>
</g>
<defs>
<clipPath id="clip0_16_1024">
<rect width="100" height="100" fill="white" transform="translate(0.700012)"/>
</clipPath>
</defs>
</svg>
