<svg version="1.2" xmlns="http://www.w3.org/2000/svg" width="400" height="400"><defs><radialGradient id="g2" cx="64.2" cy="130.1" r="57.8" gradientUnits="userSpaceOnUse"><stop offset="0" stop-color="#b3c7ff"/><stop offset="1" stop-color="#fff"/></radialGradient><radialGradient id="g3" cx="323.8" cy="110.4" r="217.7" gradientUnits="userSpaceOnUse"><stop offset="0" stop-color="#b3c7ff"/><stop offset="1" stop-color="#fff"/></radialGradient><radialGradient id="g4" cx="138.1" cy="135.1" r="19.5" gradientUnits="userSpaceOnUse"><stop offset="0" stop-color="#fff"/><stop offset="1" stop-color="#ffb699"/></radialGradient><linearGradient id="g1" x1="26.9" y1="277.3" x2="237.1" y2="67.1" gradientUnits="userSpaceOnUse"><stop offset="0" stop-color="#ff7a45"/><stop offset="1" stop-color="#0f3ca4"/></linearGradient><linearGradient id="g5" x1="122" y1="306" x2="382" y2="46" gradientUnits="userSpaceOnUse"><stop offset="0" stop-color="#0f3ca4"/><stop offset="1" stop-color="#ff7a45"/></linearGradient></defs><style>.s7{fill:#ff9100}.s7,.s9{stroke:#000}.s10,.s9{fill:#fff}</style><g id="base"><path id="base_circle copy 2" d="M200 354.5c-85.4 0-154.5-69-154.5-154.5 0-85.4 69.1-154.5 154.5-154.5 85.5 0 154.5 69.1 154.5 154.5 0 85.5-69 154.5-154.5 154.5z" style="fill:url(#g1)"/><g id="shape"><g id="light"><path id="Shape 3" d="M126.1 143 7.6 154.4l61.9-64 58.6 29.7" style="fill:url(#g2)"/><path id="Shape 4" d="M152.4 119.4 314.9 56l28.3 86-193.5 1.7" style="fill:url(#g3)"/></g><g id="lighthouse"><path id="Shape 2" d="M119 155.2v-40.6s8.6-12.1 20.3-12.1c11.6 0 20.2 12.1 20.2 12.1v40.6z" style="fill:url(#g4);stroke:#000;stroke-width:2"/><path id="Shape 1" d="M119 341.1V143s12.5-8.1 20.3-8.1c7.8 0 20.2 8.1 20.2 8.1L186 354.9z" style="fill:#0529d3;stroke:#000;stroke-width:2"/></g><g id="stripes"><path id="Layer 1" d="M119 297.1c17.9-12.9 49-22.2 57.6-19.1.2 2.1.4 1.2 1.6 15.6-27.8-5.1-59.2 19.7-59.2 19.7" style="fill:#ff9100;stroke:#000;stroke-width:1.5"/><path id="Layer 1 copy" d="M119 249.1c17.9-12.9 43.2-21.7 51.8-18.6.2 2.1 0-5.1 1.3 9.3-29.9-.5-52.9 22.1-52.9 22.1" style="fill:#ff9100;stroke:#000;stroke-width:1.2"/><path id="Layer 1 copy 2" class="s7" d="M119 200.1c17.9-12.9 36.2-18.8 45.8-18.1.2 2.1.1-2.2 1.4 11.6-28.4.7-47.2 20.9-47.2 20.9"/><path id="Layer 1 copy 3" class="s7" d="M119.2 165.9c17.9-12.9 27.7-13 41.8-14.9.2 2.1-1.8-6.2.7 8.2-32.1.3-42.7 18.1-42.7 18.1"/></g></g><path id="base_circle" fill-rule="evenodd" d="M200 400C89.4 400 0 310.6 0 200S89.4 0 200 0s200 89.4 200 200-89.4 200-200 200zm150-200c0-83-67.1-150-150-150-83 0-150 67-150 150 0 82.9 67 150 150 150 82.9 0 150-67.1 150-150z" style="fill:url(#g5);stroke:#000"/></g><g id="side design"><path class="s9" d="M374.9 209.9c-5.6 0-10-4.5-10-10 0-5.6 4.4-10 10-10 5.5 0 10 4.4 10 10 0 5.5-4.5 10-10 10z"/><path id="Shape 1 copy" class="s9" d="M24.9 209.9c-5.6 0-10-4.5-10-10 0-5.6 4.4-10 10-10 5.5 0 10 4.4 10 10 0 5.5-4.5 10-10 10z"/></g><g id="text_path"><path id="JAYA EDUCATIONAL TRUST" fill-rule="evenodd" class="s10" d="M44.7 140.1 30 134.2l1.7-4.2 14.6 5.9q3.1 1.2 3.9 3.5.9 2.2-.5 5.6l-.3.8-3.2-1.3.3-.6q.5-1.3 0-2.3-.4-.9-1.8-1.5zm11-19.9-3.4-.4-3.1 6.3 2.3 2.4-2.1 4.1-12.6-13.7 2.4-4.8 18.5 2.1zm-14-1.9 5.1 5.3 2.2-4.3zm13.6-11.6H43.2l2.7-4.1h7.4l-3-6.7 2.7-4.1 4.8 11.1 6.2 4-2.5 3.8zM76 90.6l-3.2-1.2-4.5 5.4 1.7 2.9-2.9 3.5L57.9 85l3.4-4.1 17.6 6.2zm-13.3-5 3.8 6.3 3.1-3.7zM89.5 77 78.3 63.6l9.3-7.8 2.2 2.6-5.9 4.9 2.1 2.5 5.5-4.6 2.2 2.6-5.5 4.6 2.6 3.1 6-5.1L99 69zm14.7-11.8-9.4-14.7 4-2.6q3.3-2.1 5.3-2.7 1.9-.6 3.8-.2 1.7.3 3.1 1.3 1.3 1 2.3 2.6 1.1 1.7 1.5 3.3.3 1.7-.1 3.3-.5 1.9-1.8 3.5-1.4 1.5-4.7 3.6zm-2.4-15.1-1.4.9 5.8 8.9 1.3-.8q2.4-1.5 2.9-3.5.4-1.9-1-4.1-1.4-2.2-3.3-2.6-2-.3-4.3 1.2zm18.7-2.9-4.5-9.5 4.1-1.9 4.5 9.5q.9 1.9 1.9 2.5 1 .5 2.5-.1 1.5-.7 1.7-1.9.3-1.1-.6-3.1l-4.5-9.5 4.1-1.9 4.4 9.5q1.6 3.4.7 5.8-.9 2.5-4.4 4.1-3.5 1.6-5.9.7-2.5-.9-4-4.2zm35.2-11.1 1 3.5q-1 1-2.1 1.7-1.2.7-2.6 1.1-4.2 1.3-7.4-.2-3.1-1.6-4.4-5.6-1.3-4 .5-7.1 1.7-3.1 5.8-4.4 1.4-.4 2.8-.5 1.4-.1 2.8.1l1.1 3.5q-1.5-.4-2.8-.5-1.3 0-2.6.4-2.3.8-3.1 2.6-.9 1.9 0 4.5.8 2.6 2.6 3.7 1.7 1 4 .3 1.3-.4 2.4-1.1 1-.8 2-2zm18.7.8-1.7-2.9-6.9 1.3-.5 3.3-4.5.9 3.1-18.4 5.3-1 9.7 16zm-7.1-12.3-1.1 7.3 4.8-.9zm11.5-2.6-.3-3.4 16.1-1.2.2 3.4-5.7.5 1 14-4.5.3-1-14zm21.1 13 .3-17.5 4.5.1-.3 17.5zM221 18.4q4.2.5 6.3 3.2 2.1 2.6 1.6 6.9-.5 4.2-3.1 6.3-2.7 2.1-6.9 1.7-4.1-.5-6.3-3.2-2.1-2.7-1.6-6.9t3.2-6.3q2.6-2.2 6.8-1.7zm-.4 3.3q-2-.3-3.3 1.1-1.3 1.4-1.6 4.1-.4 2.8.6 4.4 1 1.7 3 1.9 2.1.2 3.4-1.1 1.3-1.4 1.6-4.2.3-2.7-.6-4.4-1-1.6-3.1-1.8zM234 38.4l4.4-16.9 4.9 1.2 3.1 13.2 3-11.6 4.2 1.1-4.4 16.9-4.9-1.2-3.1-13.3-3.1 11.7zm32.8 10.7.1-3.4-6.5-2.7-2.2 2.6-4.2-1.8 12.6-13.7 5 2-.7 18.7zm1.5-14.2-4.9 5.6 4.4 1.8zm7 18.1 8.5-15.3 3.9 2.2-6.8 12.3 6.9 3.9-1.7 2.9zm30.7 2.4 2.1-2.7 12.6 10.1-2.2 2.7-4.5-3.7-8.8 11-3.5-2.8 8.8-11zm15.9 23.8-.9-1-4.8 4.7-3.1-3.3 12.5-12.2 4.8 4.9q2.4 2.5 2.7 4.5.3 1.9-1.5 3.7-1.2 1.2-2.6 1.4-1.4.2-2.9-.7.5.8.4 1.9 0 1-.5 2.6l-1.9 5.2-3.3-3.4 1.6-4.6q.5-1.3.4-2.2-.2-.8-.9-1.5zm1.3-3.1 1.3 1.3q1 1 1.8 1.1.8.1 1.7-.8.9-.8.8-1.6-.1-.8-1.1-1.8l-1.3-1.4zM333.9 91l8.4-6.3 2.7 3.7-8.4 6.2q-1.7 1.3-2.1 2.5-.3 1.1.7 2.4 1 1.3 2.1 1.3 1.2 0 2.9-1.3l8.4-6.3 2.7 3.6-8.4 6.3q-2.9 2.2-5.5 1.8-2.6-.4-4.9-3.4-2.3-3.1-1.9-5.7.3-2.5 3.3-4.8zm27.3 24.4-3.2 1.9q-.2-1.6-.6-3-.3-1.3-.9-2.4-.8-1.4-1.6-1.8-.8-.5-1.6 0-.6.3-.7 1-.1.6.4 2l.6 1.8q.9 2.8.5 4.5-.5 1.7-2.4 2.8-2.5 1.4-4.6.6-2.1-.8-3.8-3.9-.8-1.4-1.4-3-.5-1.7-.8-3.4l3.3-1.9q.1 1.9.4 3.5.4 1.6 1.1 2.8.8 1.3 1.6 1.8.8.4 1.6-.1.7-.4.8-1.1.1-.6-.3-2.2l-.6-1.7q-.8-2.6-.3-4.2.5-1.7 2.3-2.7 2.3-1.3 4.3-.5 2.1.7 3.6 3.5.8 1.3 1.3 2.7.6 1.4 1 3zm.7 7.5 3.1-1.3 6.3 14.9-3.2 1.3-2.2-5.3-13 5.4-1.8-4.1 13-5.5z"/><path id="JAYA ENGINEERING COLLEGE" fill-rule="evenodd" class="s10" d="m22.9 237.6 15.4-3.5 1 4.4-15.4 3.5q-3.2.7-5.2-.7-1.9-1.4-2.7-4.9l-.2-.9 3.3-.7.2.7q.3 1.3 1.2 1.9.9.5 2.4.2zm5.1 24.5 2.7-2-2.2-6.7-3.3-.1-1.4-4.3 18.6.8 1.7 5.1-14.7 11.5zm11.3-8.5-7.3-.1 1.4 4.5zm.8 18.5 6.4-10.3 2.1 4.5-4.1 6.2 7.4 1 2 4.5-12-1.8-6.7 3-1.8-4.1zm6.5 27.5 2.1-2.6-3.7-6-3.3.7-2.3-3.9 18.3-3.6 2.8 4.6-11.6 14.7zm9.1-11-7.2 1.6 2.5 4.1zm5.4 30.3L74 307.1l8.2 9-2.5 2.3-5.2-5.6-2.4 2.2 4.9 5.3-2.6 2.3-4.8-5.3-3 2.7 5.4 5.8-2.6 2.3zM76.6 335l11.3-13.4 3.8 3.3-2.9 13.3 7.8-9.2 3.2 2.7-11.2 13.4-3.9-3.2 2.9-13.3-7.8 9.2zm38.9 16.3-4.4 7.1q-1.9-.2-3.7-.8-1.7-.6-3.4-1.6-3.7-2.4-4.5-5.8-.9-3.4 1.3-7 2.3-3.5 5.8-4.2 3.5-.7 7.3 1.7 1.5.9 2.6 2.1 1.2 1.1 2.1 2.4l-1.9 3.1q-.8-1.5-1.8-2.6-1-1.2-2.3-1.9-2.3-1.5-4.3-1t-3.5 2.9q-1.5 2.4-1.1 4.4.4 2 2.6 3.4.6.4 1.1.6.6.3 1.1.4l1.8-2.9-2.3-1.5 1.6-2.5zm2.6 12.1 7.6-15.7 4.1 2-7.7 15.7zm12.6 6 6-16.5 4.7 1.7 1.9 13.5 4.1-11.3 4 1.5-5.9 16.4-4.8-1.7-1.9-13.5-4.1 11.3zm24.4 8 3.8-17.1 11.9 2.7-.7 3.3-7.5-1.7-.7 3.2 7 1.6-.7 3.3-7-1.5-.9 3.9 7.7 1.7-.7 3.3zm20.8 4.1 1.7-17.4 12.1 1.2-.3 3.4-7.6-.8-.4 3.3 7.2.7-.3 3.4-7.2-.7-.4 4 7.9.7-.3 3.4zm28.1-5.2-1.3.1.2 6.6-4.5.1-.5-17.5 6.9-.2q3.5-.1 5.1 1.1 1.6 1.1 1.7 3.6 0 1.7-.8 2.9-.8 1.1-2.4 1.7.9.2 1.6.9.8.7 1.6 2.2l2.6 4.9-4.8.1-2.3-4.3q-.7-1.3-1.3-1.7-.7-.5-1.8-.5zm-2-3 1.9-.1q1.4 0 2-.6.6-.5.6-1.7-.1-1.2-.7-1.7t-2-.5l-1.9.1zm19 8.5-2.2-17.4 4.5-.5 2.2 17.3zm13.6-1.9-4-17 4.9-1.2 9 10.2-2.8-11.7 4.2-1 4 17.1-4.9 1.1-8.9-10.2 2.7 11.7zm36.2-21.5 3.1 7.8q-1.3 1.4-2.8 2.4-1.5 1.1-3.3 1.8-4.1 1.6-7.4.2-3.3-1.3-4.8-5.2-1.5-3.9 0-7.1 1.5-3.2 5.7-4.9 1.7-.6 3.3-.9 1.6-.3 3.1-.2l1.4 3.4q-1.7-.3-3.2-.1-1.5.1-2.8.6-2.6 1-3.4 3-.8 1.9.3 4.5 1 2.6 2.8 3.5 1.9.9 4.3-.1.7-.2 1.2-.5t.9-.7l-1.2-3.1-2.6 1-1.1-2.9zm32.6-12.4 2 3q-.7 1.3-1.6 2.3-1 1-2.2 1.8-3.7 2.3-7.2 1.7-3.4-.7-5.7-4.2-2.3-3.5-1.5-7 .8-3.4 4.5-5.8 1.2-.8 2.6-1.2 1.3-.5 2.7-.6l1.9 3q-1.5 0-2.7.3-1.3.3-2.4 1.1-2 1.3-2.4 3.3-.3 2.1 1.2 4.4 1.5 2.2 3.5 2.8 2 .5 4-.8 1.1-.7 1.9-1.7.8-1 1.4-2.4zm4.7-20.6q3.2-2.7 6.6-2.5 3.4.3 6.1 3.5 2.8 3.2 2.6 6.6-.3 3.4-3.5 6.2-3.2 2.7-6.6 2.4-3.4-.2-6.1-3.4-2.8-3.3-2.6-6.7.3-3.4 3.5-6.1zm2.1 2.5q-1.5 1.3-1.4 3.2.1 1.9 1.9 4 1.8 2.1 3.7 2.5 1.8.4 3.4-.9 1.6-1.4 1.4-3.3-.1-1.9-1.9-3.9-1.8-2.1-3.7-2.6-1.8-.4-3.4 1zm22.6-1.4-13-11.7 3-3.3 10.5 9.4 5.3-5.9 2.5 2.3zm13.2-15.3-14.2-10.3 2.6-3.6 11.4 8.2 4.7-6.4 2.7 2zm11.5-16.9-15.3-8.5 5.9-10.7 3 1.7-3.7 6.7 2.8 1.6 3.5-6.3 3 1.6-3.5 6.3 3.5 2 3.9-6.9 2.9 1.6zm7.1-37.8 7.8 3.1q.2 1.9-.1 3.7-.3 1.9-1 3.7-1.6 4-4.9 5.5-3.2 1.5-7.1-.1-3.9-1.5-5.2-4.8-1.3-3.4.4-7.6.6-1.6 1.5-2.9.9-1.4 2-2.5l3.4 1.3q-1.3 1.1-2.2 2.3-.9 1.2-1.5 2.5-1 2.5-.1 4.5.9 1.9 3.5 2.9 2.5 1 4.5.3 1.9-.8 2.8-3.2.3-.6.4-1.2.2-.6.2-1.1l-3.2-1.3-1 2.6-2.8-1.2zm11.9-5.7-17-4.2 3-11.8 3.3.8-1.9 7.4 3.2.8 1.7-7 3.3.9-1.7 7 3.9.9 1.9-7.6 3.3.8z"/></g></svg>