<svg width="100" height="100" viewBox="0 0 100 100" fill="none" xmlns="http://www.w3.org/2000/svg">
<g clip-path="url(#clip0_16_846)">
<path d="M0 0H100V100H0V0Z" fill="white"/>
<path d="M99.6778 63.7753H-11.0313V0.221008H99.6778V63.7753Z" fill="#263238"/>
<path fill-rule="evenodd" clip-rule="evenodd" d="M99.8895 63.9871H-11.2431V0.00921631H99.8895V63.9871ZM-10.8287 63.5728H99.4659V0.432789H-10.8287V63.5728Z" fill="#263238"/>
<path d="M97.8637 61.593H-8.57274V1.98895H97.8637V61.593Z" fill="#455A64"/>
<path fill-rule="evenodd" clip-rule="evenodd" d="M98.0755 61.8048H-8.78453V1.78638H98.0755V61.8048ZM-8.37017 61.3812H97.6612V2.20074H-8.37017V61.3812Z" fill="#263238"/>
<path d="M101.722 63.7753H-13.14V60.9208H101.722V63.7753Z" fill="#263238"/>
<path fill-rule="evenodd" clip-rule="evenodd" d="M101.934 63.9871H-13.3517V60.709H101.934V63.9871ZM-12.9374 63.5728H101.519V61.1326H-12.9374V63.5728Z" fill="#263238"/>
<path d="M17.7624 13.2136C17.7624 13.2781 14.0608 13.3241 9.50276 13.3241C4.94475 13.3241 1.2523 13.2781 1.2523 13.2136C1.2523 13.1584 4.94475 13.1031 9.50276 13.1031C14.0608 13.1031 17.7624 13.1584 17.7624 13.2136Z" fill="white"/>
<path d="M17.7624 14.9448C17.7624 15 14.0608 15.0553 9.50276 15.0553C4.94475 15.0553 1.2523 15 1.2523 14.9448C1.2523 14.8803 4.94475 14.8343 9.50276 14.8343C14.0608 14.8343 17.7624 14.8803 17.7624 14.9448Z" fill="white"/>
<path d="M6.74954 10.1473C6.74954 10.2118 5.51566 10.2578 3.99632 10.2578C2.47698 10.2578 1.2523 10.2118 1.2523 10.1473C1.2523 10.0921 2.47698 10.0368 3.99632 10.0368C5.51566 10.0368 6.74954 10.0921 6.74954 10.1473Z" fill="white"/>
<path d="M38.4899 40.488C38.4899 40.5341 29.7698 40.5617 19.0147 40.5617C8.25046 40.5617 -0.460403 40.5341 -0.460403 40.488C-0.460403 40.4512 8.25046 40.4236 19.0147 40.4236C29.7698 40.4236 38.4899 40.4512 38.4899 40.488Z" fill="white"/>
<path d="M15.2486 57.2468C15.2118 57.2468 15.175 48.9503 15.175 38.7201C15.175 28.4899 15.2118 20.1934 15.2486 20.1934C15.2947 20.1934 15.3223 28.4899 15.3223 38.7201C15.3223 48.9503 15.2947 57.2468 15.2486 57.2468Z" fill="white"/>
<path d="M28.6832 22.7901C28.6925 22.7901 28.6372 22.9742 28.5083 23.3057C28.3702 23.628 28.1492 24.1068 27.8637 24.7145C27.2744 25.93 26.3996 27.6704 25.2762 29.8066C24.1621 31.9337 22.8177 34.4659 21.2707 37.2468C20.884 37.9466 20.4788 38.6556 20.0553 39.3831C19.8435 39.7422 19.6317 40.1013 19.4107 40.4696C19.2941 40.6476 19.1805 40.8287 19.07 41.0129L18.8674 41.2891L18.7661 41.4272L18.6464 41.5562C18.0203 42.2007 17.2284 42.7256 16.3168 42.9742C15.8656 43.0939 15.3867 43.1492 14.8987 43.0847C14.4199 43.0295 13.9503 42.8637 13.5359 42.6243C12.698 42.1271 12.0718 41.4088 11.5101 40.709C10.9392 40.0092 10.4328 39.2818 9.96318 38.5359C9.03316 37.0626 8.27809 35.5525 7.63353 34.0976C6.98896 32.6335 6.44568 31.2155 5.93923 29.8987C5.43279 28.5727 4.98159 27.3296 4.57644 26.1971C3.77533 23.9227 3.19522 22.0626 2.81769 20.7643C2.63353 20.1197 2.50461 19.6133 2.41253 19.2726C2.32966 18.9227 2.29283 18.7385 2.31124 18.7385C2.32966 18.7385 2.39412 18.9134 2.50461 19.2449C2.61511 19.5856 2.77165 20.0829 2.98343 20.7182C3.3978 21.9982 4.02395 23.8398 4.86189 26.0958C5.28546 27.2192 5.75507 28.453 6.27073 29.7698C6.79559 31.0866 7.34807 32.4862 8.00185 33.9319C8.64642 35.3775 9.40148 36.86 10.3223 38.3149C10.7827 39.0424 11.2891 39.7514 11.8416 40.442C12.3941 41.1326 12.9926 41.8048 13.7477 42.2468C14.4936 42.698 15.396 42.79 16.2063 42.5598C17.0258 42.3389 17.7624 41.86 18.3425 41.2615L18.453 41.151L18.5359 41.0313L18.7201 40.7827C18.8306 40.6047 18.9441 40.4266 19.0608 40.2486C19.2818 39.8895 19.4936 39.5304 19.7053 39.1713C20.1197 38.453 20.5341 37.7532 20.9208 37.0534C22.4862 34.291 23.8582 31.7772 25.0092 29.6593C26.1602 27.5506 27.081 25.8287 27.7072 24.6409C28.0203 24.0516 28.2597 23.5912 28.4254 23.2689C28.582 22.9558 28.6648 22.7901 28.6832 22.7901Z" fill="white"/>
<path d="M15.1473 36.9061C15.1473 36.9429 14.7974 36.9705 14.3739 36.9705C13.9411 36.9705 13.6004 36.9429 13.6004 36.8969C13.6004 36.86 13.9411 36.8324 14.3739 36.8324C14.7974 36.8324 15.1473 36.86 15.1473 36.8969V36.9061Z" fill="white"/>
<path d="M15.1473 32.919C15.1473 32.9558 14.7974 32.9834 14.3739 32.9834C13.9411 32.9834 13.6004 32.9558 13.6004 32.919C13.6004 32.873 13.9411 32.8453 14.3739 32.8453C14.7974 32.8453 15.1473 32.873 15.1473 32.919Z" fill="white"/>
<path d="M15.1473 28.9319C15.1473 28.9687 14.7974 29.0055 14.3739 29.0055C13.9411 28.9963 13.6004 28.9687 13.6004 28.9319C13.6004 28.8858 13.9411 28.8582 14.3739 28.8582C14.7974 28.8582 15.1473 28.8858 15.1473 28.9319Z" fill="white"/>
<path d="M15.1473 24.9447C15.1473 24.9816 14.7974 25.0184 14.3739 25.0184C13.9411 25.0184 13.6004 24.9816 13.6004 24.9447C13.6004 24.9079 13.9411 24.8711 14.3739 24.8711C14.7974 24.8711 15.1473 24.9079 15.1473 24.9447Z" fill="white"/>
<path d="M15.1473 51.0405C15.1473 51.0865 14.7974 51.1142 14.3739 51.1142C13.9411 51.1142 13.6004 51.0865 13.6004 51.0405C13.6004 51.0037 13.9411 50.976 14.3739 50.976C14.7974 50.976 15.1473 51.0037 15.1473 51.0405Z" fill="white"/>
<path d="M15.1473 47.0534C15.1473 47.0995 14.7974 47.1271 14.3739 47.1271C13.9411 47.1271 13.6004 47.0995 13.6004 47.0534C13.6004 47.0166 13.9411 46.989 14.3739 46.989C14.7974 46.989 15.1473 47.0166 15.1473 47.0534Z" fill="white"/>
<path d="M15.1473 43.0755C15.1473 43.1123 14.7974 43.14 14.3739 43.14C13.9411 43.14 13.6004 43.1124 13.6004 43.0663C13.6004 43.0295 13.9411 43.0018 14.3739 43.0018C14.7974 43.0018 15.1473 43.0295 15.1473 43.0663V43.0755Z" fill="white"/>
<path d="M12.4586 40.8471C12.5046 40.8471 12.5322 41.1878 12.5322 41.6206C12.5322 42.0442 12.5046 42.3941 12.4586 42.3941C12.4217 42.3941 12.3849 42.0442 12.3849 41.6206C12.3941 41.1878 12.4217 40.8471 12.4586 40.8471Z" fill="white"/>
<path d="M8.47145 40.8471C8.51749 40.8471 8.54512 41.1878 8.54512 41.6206C8.54512 42.0442 8.51749 42.3941 8.47145 42.3941C8.43462 42.3941 8.407 42.0442 8.407 41.6206C8.407 41.1878 8.43462 40.8471 8.47145 40.8471Z" fill="white"/>
<path d="M4.49356 40.8471C4.53039 40.8471 4.55801 41.1878 4.55801 41.6206C4.55801 42.0442 4.53039 42.3941 4.49356 42.3941C4.44752 42.3941 4.41989 42.0442 4.41989 41.6206C4.41989 41.1878 4.44752 40.8471 4.49356 40.8471Z" fill="white"/>
<path d="M0.50645 40.8471C0.543282 40.8471 0.580115 41.1878 0.580115 41.6206C0.570907 42.0442 0.543282 42.3941 0.50645 42.3941C0.460409 42.3941 0.432785 42.0442 0.432785 41.6206C0.432785 41.1878 0.460409 40.8471 0.50645 40.8471Z" fill="white"/>
<path d="M30.5893 40.8471C30.6262 40.8471 30.663 41.1878 30.663 41.6206C30.663 42.0442 30.6262 42.3941 30.5893 42.3941C30.5525 42.3941 30.5157 42.0442 30.5157 41.6206C30.5157 41.1878 30.5525 40.8471 30.5893 40.8471Z" fill="white"/>
<path d="M34.7053 40.8471C34.7422 40.8471 34.7698 41.1878 34.7698 41.6206C34.7698 42.0442 34.7422 42.3941 34.7053 42.3941C34.6593 42.3941 34.6317 42.0442 34.6317 41.6206C34.6317 41.1878 34.6593 40.8471 34.7053 40.8471Z" fill="white"/>
<path d="M26.6022 40.8471C26.639 40.8471 26.6759 41.1878 26.6759 41.6206C26.6759 42.0442 26.639 42.3941 26.6022 42.3941C26.5654 42.3941 26.5285 42.0442 26.5285 41.6206C26.5285 41.1878 26.5654 40.8471 26.6022 40.8471Z" fill="white"/>
<path d="M22.6151 40.8471C22.6611 40.8471 22.6888 41.1878 22.6888 41.6206C22.6888 42.0442 22.6611 42.3941 22.6151 42.3941C22.5783 42.3941 22.5414 42.0442 22.5414 41.6206C22.5414 41.1878 22.5783 40.8471 22.6151 40.8471Z" fill="white"/>
<path d="M18.628 40.8471C18.674 40.8471 18.7017 41.1878 18.7017 41.6206C18.7017 42.0442 18.674 42.3941 18.628 42.3941C18.5912 42.3941 18.5543 42.0442 18.5543 41.6206C18.5635 41.1878 18.5912 40.8471 18.628 40.8471Z" fill="white"/>
<path d="M16.4457 21.7588C16.4273 21.768 16.2799 21.5746 16.0497 21.2431C15.8195 20.9116 15.5157 20.4512 15.1842 19.9356L15.175 19.9263L15.3039 19.9171C15.0092 20.4512 14.7422 20.93 14.5396 21.2799C14.337 21.6206 14.2081 21.8324 14.1897 21.8232C14.1713 21.814 14.2726 21.5838 14.4567 21.2339C14.6317 20.8748 14.8895 20.3868 15.175 19.8527L15.2302 19.7422L15.3039 19.8435V19.8619C15.6354 20.3683 15.93 20.8472 16.1326 21.1879C16.3444 21.5286 16.4641 21.7495 16.4457 21.7588Z" fill="white"/>
<path d="M37.1915 41.6206C37.1823 41.6022 37.3849 41.4549 37.7072 41.2247C38.0387 40.9945 38.4991 40.6906 39.0147 40.3591L39.0332 40.3499V40.4788C38.4991 40.1842 38.0203 39.9171 37.6795 39.7145C37.3296 39.512 37.127 39.3831 37.1363 39.3646C37.1455 39.3462 37.3665 39.4475 37.7256 39.6225C38.0847 39.8066 38.5635 40.0645 39.1068 40.3499L39.2081 40.4052L39.1068 40.4696L39.0976 40.4788C38.582 40.8103 38.1123 41.105 37.7624 41.3076C37.4217 41.5193 37.2007 41.6298 37.1915 41.6206Z" fill="white"/>
<path d="M85 32.5598C85 32.5598 85 32.5384 85 32.4954C84.9939 32.4463 84.9908 32.3818 84.9908 32.302C84.9908 32.1301 84.9908 31.8877 84.9908 31.5746C84.9816 30.93 84.9816 30 84.9724 28.8214C84.9632 26.4549 84.954 23.0755 84.9448 19.0331L85 19.0884C81.0681 19.0884 76.4273 19.0884 71.4733 19.0976L71.5378 19.0331C71.5378 23.9871 71.5285 28.628 71.5285 32.5598L71.4733 32.5046C75.5157 32.5138 78.895 32.523 81.2615 32.5322C82.4402 32.5414 83.3794 32.5414 84.0147 32.5506C84.334 32.5506 84.5764 32.5506 84.7422 32.5506C84.822 32.5568 84.8864 32.5598 84.9356 32.5598C84.9785 32.5598 85 32.5598 85 32.5598C85 32.5598 84.9816 32.5598 84.9448 32.5598C84.8957 32.5598 84.8343 32.5598 84.7606 32.5598C84.5887 32.566 84.3493 32.5691 84.0424 32.5691C83.3978 32.5783 82.477 32.5783 81.2984 32.5875C78.9227 32.5875 75.5341 32.6059 71.4733 32.6151H71.418V32.5598C71.418 28.628 71.4088 23.9871 71.4088 19.0331V18.9687H71.4733C76.4273 18.9687 81.0681 18.9687 85 18.9779H85.0553V19.0331C85.0461 23.0939 85.0368 26.4733 85.0276 28.849C85.0184 30.0276 85.0184 30.9576 85.0184 31.593C85.0123 31.9061 85.0092 32.1455 85.0092 32.3112C85.0092 32.391 85.0092 32.4524 85.0092 32.4954C85.0031 32.5384 85 32.5598 85 32.5598Z" fill="white"/>
<path d="M85 32.5598C85.0184 32.5414 85.0522 32.5169 85.1013 32.4862C85.1749 32.4371 85.2793 32.3726 85.4144 32.2928C85.6906 32.1087 86.0958 31.86 86.6114 31.5377C87.6611 30.884 89.1621 29.9447 91.0129 28.7937L90.9945 28.8306C90.9853 25.3039 90.9853 20.6261 90.9761 15.5064L91.0405 15.5709C91.0283 15.5709 91.016 15.5709 91.0037 15.5709C85.884 15.5617 81.2062 15.5617 77.6703 15.5525H77.6887C75.7827 16.6206 74.2357 17.4954 73.1491 18.1031C72.6151 18.407 72.2007 18.6372 71.906 18.7937C71.771 18.8735 71.6636 18.9349 71.5838 18.9779C71.5346 19.0025 71.4978 19.0209 71.4733 19.0331C71.4978 19.0147 71.5316 18.9902 71.5745 18.9595C71.6543 18.9165 71.7618 18.8551 71.8968 18.7753C72.1823 18.6096 72.5966 18.3702 73.1215 18.0571C74.1989 17.4401 75.7458 16.5562 77.6427 15.4604H77.6519H77.6703C81.2062 15.4512 85.884 15.4512 91.0037 15.442C91.016 15.442 91.0283 15.442 91.0405 15.442H91.105V15.5064C91.0958 20.6261 91.0958 25.2947 91.0866 28.8306V28.8582L91.0682 28.8674C89.2081 30.0092 87.6888 30.93 86.639 31.5746C86.1142 31.8969 85.709 32.1363 85.4236 32.3112C85.2885 32.391 85.1842 32.4524 85.1105 32.4954C85.0614 32.5261 85.0245 32.5476 85 32.5598Z" fill="white"/>
<path d="M91.0405 15.5065C91.0589 15.5341 89.7146 16.3536 88.0479 17.3297C86.3812 18.2965 85.0184 19.0608 85 19.0332C84.9816 19.0055 86.3168 18.186 87.9834 17.21C89.6501 16.2431 91.0221 15.4788 91.0405 15.5065Z" fill="white"/>
<path d="M72.1087 32.0074C72.1271 32.035 71.9982 32.1455 71.8232 32.2468C71.6483 32.3481 71.4917 32.4033 71.4733 32.3757C71.4549 32.3388 71.5838 32.2376 71.7588 32.1271C71.9337 32.0258 72.0903 31.9705 72.1087 31.9981V32.0074Z" fill="white"/>
<path d="M73.3978 31.2707C73.4162 31.2983 73.2873 31.4088 73.1031 31.5101C72.9282 31.6114 72.7716 31.6666 72.7532 31.639C72.7348 31.6022 72.8637 31.5009 73.0387 31.3996C73.2229 31.2983 73.3794 31.2339 73.3978 31.2707Z" fill="white"/>
<path d="M74.6777 30.5341C74.6962 30.5617 74.5672 30.6722 74.3923 30.7735C74.2173 30.8748 74.0516 30.93 74.0332 30.9024C74.024 30.8656 74.1529 30.7643 74.3278 30.663C74.5028 30.5617 74.6593 30.4973 74.6777 30.5341Z" fill="white"/>
<path d="M75.9669 29.7974C75.9853 29.825 75.8472 29.9355 75.6722 30.0368C75.4973 30.1381 75.3407 30.1933 75.3223 30.1657C75.3039 30.1289 75.4328 30.0276 75.6078 29.9171C75.7827 29.8158 75.9485 29.7606 75.9669 29.7882V29.7974Z" fill="white"/>
<path d="M77.2468 29.0608C77.2652 29.0884 77.1363 29.1989 76.9613 29.3002C76.7772 29.4015 76.6206 29.4567 76.6022 29.4291C76.5838 29.3923 76.7127 29.291 76.8969 29.1897C77.0718 29.0884 77.2284 29.0239 77.2468 29.0608Z" fill="white"/>
<path d="M77.5691 27.7624C77.6059 27.7624 77.6335 27.9282 77.6335 28.1307C77.6335 28.3333 77.6059 28.4991 77.5691 28.4991C77.5322 28.4991 77.5046 28.3333 77.5046 28.1307C77.5046 27.9282 77.5322 27.7624 77.5691 27.7624Z" fill="white"/>
<path d="M77.5875 26.2799C77.6151 26.2799 77.6427 26.4457 77.6427 26.6482C77.6427 26.8508 77.6151 27.0166 77.5783 27.0166C77.5414 27.0166 77.5138 26.8508 77.5138 26.6482C77.5138 26.4457 77.5506 26.2799 77.5875 26.2799Z" fill="white"/>
<path d="M77.5967 24.7974C77.6335 24.7974 77.6611 24.9631 77.6519 25.1657C77.6519 25.3775 77.6243 25.5433 77.5875 25.5433C77.5507 25.5433 77.523 25.3775 77.523 25.1657C77.5322 24.9631 77.5599 24.7974 77.5967 24.7974Z" fill="white"/>
<path d="M77.6059 23.3241C77.6427 23.3241 77.6704 23.4899 77.6704 23.6924C77.6704 23.895 77.6335 24.0608 77.5967 24.0608C77.5691 24.0608 77.5414 23.895 77.5414 23.6924C77.5414 23.4807 77.5691 23.3149 77.6059 23.3241Z" fill="white"/>
<path d="M77.6151 21.8416C77.652 21.8416 77.6796 22.0074 77.6796 22.2099C77.6796 22.4125 77.652 22.5783 77.6151 22.5783C77.5783 22.5783 77.5507 22.4125 77.5507 22.2099C77.5507 22.0074 77.5783 21.8416 77.6151 21.8416Z" fill="white"/>
<path d="M77.6335 20.3591C77.6612 20.3591 77.6888 20.5248 77.6888 20.7274C77.6888 20.9392 77.6612 21.0957 77.6243 21.0957C77.5875 21.0957 77.5599 20.93 77.5599 20.7274C77.5599 20.5248 77.5967 20.3591 77.6335 20.3591Z" fill="white"/>
<path d="M77.6427 18.8766C77.6796 18.8766 77.7072 19.0424 77.7072 19.2542C77.698 19.4567 77.6704 19.6225 77.6335 19.6225C77.5967 19.6225 77.5783 19.4567 77.5783 19.2542C77.5783 19.0424 77.6059 18.8766 77.6427 18.8766Z" fill="white"/>
<path d="M77.652 17.4033C77.6888 17.4033 77.7164 17.569 77.7164 17.7716C77.7164 17.9742 77.6796 18.1399 77.6427 18.1399C77.6151 18.1399 77.5875 17.9742 77.5875 17.7716C77.5875 17.569 77.6151 17.4033 77.652 17.4033Z" fill="white"/>
<path d="M77.6612 15.9208C77.698 15.9208 77.7256 16.0866 77.7256 16.2891C77.7256 16.4917 77.698 16.6575 77.6612 16.6575C77.6243 16.6575 77.5967 16.4917 77.5967 16.2891C77.5967 16.0866 77.6335 15.9208 77.6612 15.9208Z" fill="white"/>
<path d="M90.2947 28.8306C90.2947 28.7937 90.4604 28.7661 90.6722 28.7661C90.8748 28.7661 91.0405 28.7937 91.0405 28.8306C91.0405 28.8674 90.8748 28.895 90.6722 28.895C90.4604 28.895 90.2947 28.8674 90.2947 28.8306Z" fill="white"/>
<path d="M88.8213 28.8306C88.8213 28.7937 88.9871 28.7661 89.1897 28.7661C89.3923 28.7661 89.558 28.7937 89.558 28.8306C89.558 28.8674 89.3923 28.895 89.1897 28.895C88.9871 28.895 88.8213 28.8674 88.8213 28.8306Z" fill="white"/>
<path d="M87.3389 28.8306C87.3389 28.7937 87.5046 28.7661 87.7072 28.7661C87.919 28.7661 88.0755 28.7937 88.0755 28.8306C88.0755 28.8674 87.9098 28.895 87.7072 28.895C87.5046 28.895 87.3389 28.8674 87.3389 28.8306Z" fill="white"/>
<path d="M85.8564 28.8306C85.8564 28.7937 86.0221 28.7661 86.2247 28.7661C86.4365 28.7661 86.6022 28.7937 86.6022 28.8306C86.6022 28.8674 86.4365 28.895 86.2247 28.895C86.0221 28.895 85.8564 28.8674 85.8564 28.8306Z" fill="white"/>
<path d="M84.3831 28.8306C84.3831 28.7937 84.5488 28.7661 84.7514 28.7661C84.954 28.7661 85.1197 28.7937 85.1197 28.8306C85.1197 28.8674 84.954 28.895 84.7514 28.895C84.5488 28.895 84.3831 28.8674 84.3831 28.8306Z" fill="white"/>
<path d="M82.9006 28.8306C82.9006 28.7937 83.0663 28.7661 83.2689 28.7661C83.4715 28.7661 83.6372 28.7937 83.6372 28.8306C83.6372 28.8674 83.4715 28.895 83.2689 28.895C83.0663 28.895 82.9006 28.8674 82.9006 28.8306Z" fill="white"/>
<path d="M81.4181 28.8306C81.4181 28.7937 81.5838 28.7661 81.7864 28.7661C81.9982 28.7661 82.164 28.7937 82.164 28.8306C82.164 28.8674 81.9982 28.895 81.7864 28.895C81.5838 28.895 81.4181 28.8674 81.4181 28.8306Z" fill="white"/>
<path d="M79.9355 28.8306C79.9355 28.7937 80.1013 28.7661 80.3131 28.7661C80.5157 28.7661 80.6814 28.7937 80.6814 28.8306C80.6814 28.8674 80.5157 28.895 80.3131 28.895C80.1013 28.895 79.9355 28.8674 79.9355 28.8306Z" fill="white"/>
<path d="M78.4622 28.8306C78.4622 28.7937 78.628 28.7661 78.8306 28.7661C79.0332 28.7661 79.1989 28.7937 79.1989 28.8306C79.1989 28.8674 79.0332 28.895 78.8306 28.895C78.628 28.895 78.4622 28.8674 78.4622 28.8306Z" fill="white"/>
<path d="M77.5599 28.8306C77.5599 28.7937 77.5967 28.7661 77.6427 28.7661C77.6888 28.7661 77.7164 28.7937 77.7164 28.8306C77.7164 28.8674 77.6888 28.895 77.6427 28.895C77.5967 28.895 77.5599 28.8674 77.5599 28.8306Z" fill="white"/>
<path d="M92.6796 24.3278C92.6796 24.3094 92.7993 24.3555 93.0111 24.3094C93.2229 24.2726 93.5359 24.116 93.7201 23.7845C93.8951 23.4438 93.9135 22.9374 93.6741 22.4954C93.6188 22.3849 93.5267 22.302 93.4162 22.2836C93.2965 22.256 93.1676 22.302 93.0663 22.3757C92.8637 22.5322 92.744 22.8177 92.6427 23.0939C92.5322 23.3978 92.4678 23.7109 92.4494 24.0055H92.3205C92.3113 23.0295 92.302 22.1731 92.302 21.5654C92.302 21.2769 92.302 21.0374 92.302 20.8471C92.3113 20.6722 92.3113 20.5801 92.3205 20.5801C92.3297 20.5801 92.3389 20.6722 92.3481 20.8471C92.3604 21.0374 92.3726 21.2738 92.3849 21.5562C92.4033 22.1731 92.4218 23.0203 92.4494 24.0055H92.3205C92.3389 23.6925 92.4033 23.361 92.5138 23.0479C92.5691 22.9006 92.6305 22.7594 92.698 22.6243C92.7717 22.4954 92.8637 22.3665 92.9927 22.2744C93.1216 22.1823 93.2781 22.1271 93.4347 22.1547C93.6004 22.1915 93.7109 22.3112 93.7754 22.4309C94.0332 22.919 93.9963 23.4623 93.7938 23.8214C93.582 24.1897 93.2413 24.3278 93.0203 24.3555C92.9098 24.3739 92.8177 24.3647 92.7625 24.3555C92.7072 24.337 92.6796 24.3278 92.6796 24.3186V24.3278Z" fill="white"/>
<path d="M86.1234 13.9595C86.1234 13.9656 86.1112 13.984 86.0866 14.0147C86.059 14.0424 86.0221 14.0792 85.9577 14.1068C85.8932 14.1437 85.8011 14.1713 85.6999 14.1621C85.5894 14.1621 85.4604 14.1252 85.3592 14.0239C85.2671 13.9319 85.1934 13.7937 85.1382 13.6464C85.0829 13.5052 85.0307 13.3487 84.9816 13.1768C84.8895 12.8361 84.8159 12.4402 84.7975 12.0074L84.9172 11.9982C84.954 12.4678 85.0184 13.0019 84.8711 13.5451C84.7882 13.8398 84.6593 14.1437 84.3923 14.3278C84.2634 14.4199 84.0976 14.4659 83.9411 14.4291C83.7845 14.4015 83.6648 14.2818 83.5912 14.1621C83.3241 13.6556 83.4254 13.1123 83.6188 12.7532C83.8214 12.3849 84.116 12.1915 84.3186 12.0995C84.4199 12.0534 84.512 12.035 84.5672 12.0166C84.6286 12.0043 84.6593 12.0012 84.6593 12.0074C84.6593 12.0166 84.5396 12.0442 84.3462 12.1455C84.1529 12.2468 83.8766 12.4494 83.7017 12.7993C83.6096 12.965 83.5451 13.1768 83.5359 13.407C83.5267 13.628 83.5635 13.8858 83.6925 14.0976C83.7569 14.1989 83.849 14.291 83.9687 14.3094C84.0884 14.337 84.2173 14.3002 84.3278 14.2265C84.5396 14.0792 84.6685 13.7937 84.7514 13.5083C84.8803 13.0018 84.8343 12.477 84.7975 12.0074H84.9172C84.9356 12.4217 85 12.8085 85.0829 13.1492C85.1259 13.3149 85.175 13.4715 85.2302 13.6188C85.2763 13.7569 85.3315 13.8858 85.4144 13.9779C85.5894 14.1529 85.8288 14.1252 85.9393 14.07C86.0682 14.0239 86.1142 13.9595 86.1234 13.9687V13.9595Z" fill="white"/>
<path d="M65.7275 64.9632L65.5525 71.6206L63.582 92.2928C63.9994 99.0025 64.3432 104.251 64.6133 108.039C64.8404 111.329 64.6225 115.829 63.9595 121.538L55.6538 121.317L53.4254 92.6427L52.0442 74.7514L49.3094 65.6538L65.7275 64.9632Z" fill="#263238"/>
<path d="M45.1473 65.8288L54.3554 65.4513L57.8177 117.68L52.8177 118.757L52.4678 117.44L45.3315 97.5507C44.8619 96.2615 44.6409 94.8895 44.6685 93.5083L45.1658 66.1235L45.1473 65.8288Z" fill="#263238"/>
<path d="M52.1639 71.3812C52.1639 71.4733 52.167 71.5991 52.1731 71.7587C52.1823 72.1086 52.1915 72.5967 52.21 73.2228C52.2284 74.4935 52.2836 76.3352 52.3573 78.6096C52.5138 83.1492 52.8361 89.4199 53.3886 96.326C53.9227 103.232 54.5396 109.475 54.9724 113.996C55.1934 116.252 55.3684 118.075 55.4881 119.355C55.5433 119.982 55.5894 120.47 55.617 120.81C55.6293 120.97 55.6385 121.096 55.6446 121.188C55.6508 121.274 55.6538 121.317 55.6538 121.317C55.6477 121.317 55.6385 121.274 55.6262 121.188C55.6201 121.096 55.6078 120.97 55.5894 120.81C55.5525 120.47 55.4973 119.982 55.4236 119.365C55.2947 118.085 55.1013 116.261 54.8619 114.015C54.4015 109.494 53.7754 103.25 53.2321 96.3444C52.6888 89.4291 52.3757 83.1584 52.2468 78.6096C52.1823 76.3444 52.1547 74.5027 52.1455 73.232C52.1455 72.5967 52.1455 72.1086 52.1455 71.7679C52.1455 71.6022 52.1455 71.4733 52.1455 71.3812C52.1516 71.2953 52.1547 71.2523 52.1547 71.2523C52.1608 71.2523 52.1639 71.2953 52.1639 71.3812Z" fill="#455A64"/>
<path d="M52.1547 67.3112C52.3941 67.3204 52.5783 67.5138 52.5691 67.7532C52.5691 67.9834 52.3665 68.1768 52.1363 68.1676C51.8969 68.1584 51.7127 67.965 51.7219 67.7256C51.7219 67.4954 51.9245 67.3112 52.1547 67.3112Z" fill="#455A64"/>
<path d="M45.4973 70.3223C45.8103 69.9448 46.1971 69.3923 46.5286 68.7201C46.8417 68.0387 47.035 67.3849 47.1271 66.9061C47.2284 66.4273 47.2468 66.1234 47.2744 66.1234C47.2929 66.1234 47.3113 66.4365 47.2376 66.9245C47.1639 67.4217 46.989 68.0939 46.6667 68.7846C46.3352 69.466 45.9208 70.0277 45.5801 70.3868C45.2394 70.7551 44.9908 70.9393 44.9724 70.9209C44.9632 70.9024 45.1842 70.6906 45.4973 70.3223Z" fill="#455A64"/>
<path d="M59.7514 67.7441C60.0093 68.3886 60.5065 69.245 61.3168 69.9263C62.1271 70.6169 63.0479 70.9668 63.7201 71.1142C64.4015 71.2615 64.8435 71.2431 64.8435 71.2707C64.8435 71.2799 64.733 71.2983 64.5304 71.2983C64.337 71.2983 64.0516 71.2799 63.7017 71.2155C63.0019 71.0958 62.0442 70.7551 61.2155 70.046C60.3776 69.337 59.8804 68.4531 59.6502 67.7809C59.5305 67.4494 59.466 67.1732 59.4292 66.9798C59.4015 66.7772 59.4015 66.6759 59.4107 66.6667C59.4384 66.6667 59.4936 67.0995 59.7514 67.7441Z" fill="#455A64"/>
<path d="M45.1473 65.8288C45.1842 65.8288 45.175 68.4531 45.1197 71.6943C45.0737 74.9448 44.9908 77.5691 44.954 77.5691C44.9171 77.5691 44.9263 74.9356 44.9816 71.6943C45.0276 68.4531 45.1013 65.8288 45.1473 65.8288Z" fill="#455A64"/>
<path d="M65.5157 70.9853C65.4972 70.9853 65.5064 70.6354 65.5341 70.0737C65.5617 69.512 65.5893 68.7293 65.617 67.8729C65.6354 67.0166 65.6354 66.2339 65.6354 65.6722C65.6354 65.1105 65.6354 64.7606 65.6538 64.7606C65.6722 64.7606 65.7091 65.1013 65.7367 65.6722C65.7643 66.2339 65.7735 67.0166 65.7551 67.8729C65.7367 68.7385 65.6906 69.512 65.6354 70.0737C65.5893 70.6446 65.5341 70.9853 65.5157 70.9853Z" fill="#455A64"/>
<path d="M26.5193 29.0792L25.9761 28.3517C25.7858 27.9527 25.7366 27.6642 25.8287 27.4862C25.9147 27.3082 26.1019 27.2713 26.3904 27.3757L28.5544 29.8066L27.7901 30.4328L26.6298 29.1621" fill="white"/>
<path d="M39.116 39.6317L36.8509 42.8637C33.8183 39.4813 32.1424 37.6028 31.8232 37.2284L30.1934 35.2855C29.3033 34.5243 28.7293 34.0301 28.4715 33.803C28.0847 33.4715 27.7348 32.5322 27.6796 32.3757C27.6427 32.2714 27.4555 31.9245 27.1179 31.3352L27.0166 30.617C26.9337 30.0645 26.326 29.466 26.6298 29.1621C26.9245 28.8582 27.698 29.4844 27.9742 29.9816C28.1645 30.3131 28.4837 30.7704 28.9319 31.3536C29.0546 31.2677 29.1621 31.1142 29.2542 30.8932C29.3462 30.6661 29.3585 30.2885 29.291 29.7606L28.9319 28.6741C28.5329 28.7784 28.1308 28.8306 27.7256 28.8306C27.3266 28.8367 27.0166 28.6464 26.7956 28.2597L28.1584 27.5967C29.0915 27.5476 29.7084 27.566 30.0092 27.652C30.31 27.7379 30.5279 28.1093 30.663 28.7661L31.2523 28.8766C31.4641 29.0055 32.0626 30.3223 32.081 30.5617L32.744 32.8729C32.7809 33.2781 33.1492 33.895 33.5636 34.0608C33.8398 34.1713 34.0608 34.4506 34.2265 34.8987L38.5912 38.4439L39.116 39.6317Z" fill="#FFBE9D"/>
<path d="M34.3831 34.6777C34.4199 34.8005 34.868 35.2364 35.7274 35.9853C37.9067 37.655 39.2357 38.7815 39.7146 39.3647C40.1995 39.9417 41.4242 40.7551 43.3886 41.8048L46.1971 36.151L50.5617 33.3702C51.2063 32.7195 52.4494 32.9988 54.291 34.2081L46.2155 53.14L40.2394 50.9024L32.4309 39.7422L31.1694 36.6943L34.3923 34.6869L34.3831 34.6777Z" fill="#B4F8F8"/>
<path d="M59.0608 28.2505L60.2118 29.8803C65.0737 32.3296 67.609 33.7201 67.8177 34.0516C68.0203 34.3831 67.3788 40.3499 65.8932 51.9521L66.7864 62.5322L65.7274 65.3775L45.046 66.5378C44.7238 66.4088 43.9319 65.7274 43.8766 64.512C43.8306 63.5912 44.5672 62.6335 44.558 62.0258C44.512 57.7348 44.9724 47.8913 45.6722 44.2541C46.2922 41.0436 47.302 37.8484 48.7017 34.6685L50.5617 33.3702L50.93 31.3075L59.0608 28.2505Z" fill="#B4F8F8"/>
<g opacity="0.3">
<path opacity="0.3" d="M66.4825 60.9392C66.3352 61.0958 66.1142 61.1326 65.9024 61.1602C64.1897 61.3444 62.4217 61.0866 60.8379 60.396C60.1105 60.0829 59.4199 59.6777 58.6648 59.4383C57.965 59.2081 57.2376 59.116 56.5101 59.0332C55.5341 58.9104 54.5611 58.7907 53.5912 58.674C53.1584 58.6188 52.6796 58.582 52.3205 58.8214C51.9613 59.07 51.8232 59.5212 51.6298 59.9079C51.1418 60.8564 50.0553 61.7495 48.9871 61.8416C48.9871 60.5709 49.0976 59.0516 49.512 57.8545C49.9356 56.6114 50.8656 55.4696 52.1363 55.1473C52.919 54.954 53.7477 55.0829 54.5304 55.2855C58.2965 56.2891 61.4825 59.0332 65.3223 59.7054C65.6722 59.7606 66.0313 59.8066 66.3076 60.0276C66.5838 60.2394 66.7219 60.6814 66.4825 60.9392Z" fill="black"/>
</g>
<g opacity="0.3">
<path opacity="0.3" d="M54.2081 33.3149C52.8821 39.0055 52.2284 44.8619 52.2652 50.709L50.9669 50.8747C50.9208 50.9852 51.0129 50.7642 50.9669 50.8747C51.2339 46.9797 51.3536 43.407 51.6206 39.5027C51.7035 38.3425 51.7864 37.1547 52.1455 36.0497C52.5138 34.9355 53.1952 33.8858 54.2081 33.3149Z" fill="black"/>
</g>
<path d="M52.8637 35.7919L50.7459 60.3315L48.9963 61.8416L47.1823 59.5672L47.5507 50.5525C47.8208 45.8625 48.1522 42.9128 48.5451 41.7035C48.9319 40.488 49.7913 38.4469 51.1234 35.5801L52.8637 35.7919Z" fill="#FF725E"/>
<path d="M50.7459 60.3315C50.6998 60.3315 51.0313 54.8435 51.4641 48.0755C51.9061 41.2983 52.2928 35.8103 52.3296 35.8195C52.3757 35.8195 52.0534 41.3076 51.6114 48.0847C51.1694 54.8527 50.7827 60.3407 50.7459 60.3315Z" fill="#263238"/>
<path d="M67.8177 34.0516C69.1314 34.7759 70.0245 36.0497 70.4972 37.8729C71.2154 40.5985 73.5635 51.2431 73.7753 52.8821C73.9963 54.5212 73.6188 56.7588 72.9005 57.3573C72.1915 57.965 67.8821 60.709 65.9668 60.709C64.6961 60.709 62.7778 60.2947 60.2118 59.4659L61.0589 55.175L64.2818 54.4107L66.7864 51.9613L63.9503 45.7367C64.6992 38.3149 65.9883 34.4199 67.8177 34.0516Z" fill="#B4F8F8"/>
<path d="M71.4732 53.0755C71.4456 53.0847 71.2799 52.8453 70.9208 52.5322C70.5709 52.2284 70.0092 51.8692 69.3186 51.6943C68.6188 51.5193 67.9558 51.6206 67.5138 51.7587C67.0626 51.8876 66.7956 52.0258 66.7864 52.0074C66.7864 51.9981 66.8416 51.9521 66.9613 51.8877C67.081 51.8232 67.256 51.7403 67.4862 51.6574C67.9282 51.5009 68.6188 51.372 69.3462 51.5562C70.0736 51.7311 70.6445 52.1271 70.9944 52.4586C71.1694 52.6243 71.2891 52.7808 71.3627 52.8913C71.4456 53.0018 71.4732 53.0663 71.4732 53.0663V53.0755Z" fill="#263238"/>
<path d="M63.9871 60.1749C63.9595 60.1565 64.1897 59.9079 64.4383 59.4291C64.6869 58.9595 64.9448 58.2413 64.9448 57.4218C64.954 56.6115 64.7146 55.884 64.4659 55.4144C64.2265 54.9356 64.0055 54.6778 64.024 54.6594C64.0332 54.6594 64.0884 54.7146 64.1897 54.8343C64.291 54.9448 64.4199 55.129 64.558 55.3684C64.8343 55.838 65.1013 56.5746 65.0921 57.431C65.0829 58.2781 64.8066 59.0147 64.5304 59.4843C64.3923 59.7145 64.2542 59.8987 64.1529 60.0092C64.0516 60.1289 63.9871 60.1841 63.9871 60.1749Z" fill="#263238"/>
<path d="M52.8637 32.1455L54.3462 33.4438L52.8177 35.8748L51.0866 35.663L50.5893 34.3738L52.2099 32.2744L52.8637 32.1455Z" fill="#FF725E"/>
<path d="M70.5617 49.8803C70.5617 49.9079 70.3039 49.8711 69.8987 49.9079C69.6961 49.9263 69.4567 49.9724 69.1897 50.0461C68.9411 50.1197 68.6648 50.2394 68.3886 50.3868C67.8545 50.6998 67.4494 51.105 67.1915 51.4273C66.9337 51.7404 66.814 51.9706 66.7864 51.9614C66.7772 51.9522 66.8692 51.7035 67.1087 51.3628C67.3481 51.0221 67.7624 50.5893 68.3241 50.2671C68.6004 50.1013 68.8858 49.9908 69.1621 49.9171C69.4291 49.8435 69.6777 49.8066 69.8895 49.8066C70.1013 49.8066 70.2763 49.8158 70.3867 49.8343C70.5065 49.8619 70.5617 49.8711 70.5617 49.8803Z" fill="#263238"/>
<path d="M67.0719 34.4199C67.0811 34.4475 66.8048 34.5396 66.4181 34.7698C66.0221 35 65.5249 35.3867 65.1013 35.9392C64.6777 36.4917 64.4291 37.0718 64.3094 37.5138C64.1897 37.9466 64.1713 38.232 64.1436 38.232C64.1344 38.232 64.1344 38.1584 64.1436 38.0295C64.1436 37.9006 64.1621 37.7164 64.2173 37.4862C64.3094 37.035 64.5488 36.418 64.9908 35.8471C65.4236 35.2855 65.9485 34.8895 66.3628 34.6777C66.5746 34.5764 66.7496 34.5028 66.8693 34.4659C66.9982 34.4291 67.0627 34.4107 67.0719 34.4199Z" fill="#263238"/>
<path d="M59.9171 30.1934C59.9263 30.2026 59.8343 30.3315 59.6777 30.5617C59.5028 30.8011 59.2726 31.1326 58.9963 31.5193C58.407 32.3296 57.5967 33.4346 56.6851 34.6593C56.5838 34.7974 56.4825 34.9263 56.3904 35.0552L56.3444 35.1197L56.2891 35.0737C55.2026 34.1713 54.2449 33.361 53.5543 32.7808C53.232 32.4954 52.9558 32.2652 52.7532 32.081C52.5599 31.9153 52.4586 31.8232 52.4678 31.814C52.477 31.814 52.5875 31.8877 52.7808 32.0442C53.0018 32.2191 53.2781 32.4401 53.6188 32.7072C54.3186 33.2689 55.2947 34.0608 56.3812 34.9632L56.2707 34.9724C56.3628 34.8435 56.4641 34.7145 56.5654 34.5764C57.477 33.3517 58.3057 32.2468 58.9134 31.4549C59.1989 31.0773 59.4475 30.7643 59.6317 30.5249C59.8066 30.3039 59.9079 30.1842 59.9171 30.1934Z" fill="#263238"/>
<path d="M62.4954 42.5046C62.5015 42.5046 62.5261 42.5445 62.5691 42.6243C62.612 42.7225 62.6704 42.8453 62.744 42.9926C62.9006 43.3241 63.1215 43.7845 63.3794 44.337C63.9134 45.4696 64.6409 47.0534 65.4328 48.7937C65.9484 49.9355 66.4273 51.0129 66.8416 51.9337L66.86 51.9705L66.8324 51.9982C66.1142 52.7716 65.4512 53.3425 65.0092 53.7661C64.8005 53.9687 64.6317 54.1344 64.5028 54.2634C64.3831 54.3831 64.3186 54.4383 64.3094 54.4383C64.3094 54.4291 64.3646 54.3646 64.4751 54.2357C64.5764 54.116 64.7422 53.9319 64.9632 53.7201C65.3867 53.2781 66.0405 52.6888 66.7403 51.9153L66.7311 51.9797C66.3168 51.0681 65.8195 49.9908 65.3039 48.849C64.512 47.1087 63.7937 45.5249 63.2873 44.3739C63.0479 43.8122 62.8453 43.3518 62.698 43.0111C62.6366 42.8576 62.5844 42.7317 62.5414 42.6335C62.5046 42.5476 62.4893 42.5046 62.4954 42.5046Z" fill="#263238"/>
<path d="M73.0847 57.1639C73.0909 57.1639 73.054 57.2099 72.9742 57.302C72.9374 57.3511 72.8852 57.4064 72.8177 57.4678C72.7532 57.523 72.6796 57.5967 72.5875 57.6611C72.2284 57.9558 71.6759 58.3149 70.9669 58.7201C70.2578 59.1344 69.3923 59.5856 68.4254 60.046C67.4586 60.5341 66.2615 60.884 65 60.7735C64.5028 60.7366 64.0147 60.6353 63.5635 60.442L63.582 60.4512C62.3296 60.1105 61.1694 59.7882 60.1565 59.512L60.1013 59.4935L60.1197 59.4383C60.3591 58.2689 60.5525 57.2836 60.6998 56.5838C60.7673 56.2523 60.8226 55.9853 60.8656 55.7827C60.9116 55.6077 60.93 55.5064 60.9392 55.5064C60.9484 55.5064 60.93 55.6077 60.9024 55.7919C60.8717 55.9945 60.8257 56.2615 60.7643 56.593C60.6354 57.302 60.4512 58.2873 60.2302 59.4659L60.1934 59.3923C61.2063 59.6685 62.3665 59.9724 63.6188 60.3131H63.628C64.0516 60.4972 64.5304 60.5893 65.0092 60.6353C66.2431 60.7366 67.4125 60.4051 68.3702 59.9263C69.337 59.4659 70.2026 59.0239 70.9208 58.6372C71.6298 58.2412 72.1915 57.8913 72.5506 57.6151C72.919 57.3481 73.0755 57.1455 73.0847 57.1547V57.1639Z" fill="#263238"/>
<path d="M46.9245 37.9742C46.9306 37.9804 46.9276 38.0233 46.9153 38.1031C46.8907 38.2013 46.8662 38.3241 46.8416 38.4714C46.768 38.8029 46.6759 39.2541 46.5562 39.7882C46.326 40.9116 46.0221 42.4586 45.7643 44.1805C45.4972 45.9024 45.3407 47.477 45.2486 48.6188C45.2026 49.1805 45.175 49.6501 45.1565 49.9632C45.1443 50.1105 45.1351 50.2333 45.1289 50.3315C45.1228 50.4174 45.1166 50.4604 45.1105 50.4604C45.1044 50.4604 45.1013 50.4174 45.1013 50.3315C45.1013 50.2333 45.1013 50.1105 45.1013 49.9632C45.1013 49.6409 45.1197 49.1805 45.1473 48.6096C45.2118 47.4678 45.3591 45.884 45.6169 44.1621C45.8748 42.4309 46.1971 40.884 46.4641 39.7698C46.593 39.2173 46.7035 38.7661 46.7864 38.453C46.8232 38.3118 46.857 38.1952 46.8877 38.1031C46.9061 38.0172 46.9184 37.9773 46.9245 37.9834V37.9742Z" fill="#263238"/>
<path d="M52.4677 31.814C52.4862 31.8324 52.3296 32.081 52.0626 32.477C51.7956 32.8729 51.418 33.4162 50.9945 34.0055C50.7643 34.3278 50.5433 34.6317 50.3407 34.9079L50.1657 35.1473L50.221 34.8619C50.3131 34.4199 50.3867 34.0423 50.442 33.7845C50.5064 33.5175 50.5433 33.3702 50.5617 33.3702C50.5709 33.3702 50.5617 33.5267 50.5249 33.7937C50.488 34.0608 50.4236 34.4383 50.3499 34.8803L50.2394 34.8342C50.4328 34.5488 50.6538 34.2449 50.8748 33.9226C51.2983 33.3333 51.6943 32.7993 51.9797 32.4125C52.2652 32.035 52.4493 31.8048 52.4677 31.814Z" fill="#263238"/>
<path d="M53.4807 32.7072C53.4991 32.744 52.8729 33.2228 52.2099 33.9318C51.5377 34.6409 50.9576 35.1841 50.93 35.1473C50.9115 35.1289 51.0405 34.9816 51.2615 34.7514C51.4733 34.5119 51.7679 34.1805 52.1086 33.8306C52.4493 33.4806 52.7808 33.1768 53.0387 32.9834C53.2873 32.79 53.4715 32.698 53.4807 32.7072Z" fill="#263238"/>
<path d="M42.6612 46.6206C42.6427 46.6206 42.6151 46.3444 42.6151 45.9024C42.6151 45.4512 42.6519 44.8342 42.744 44.1621C42.8361 43.4899 42.9834 42.8821 43.1031 42.4493C43.2321 42.0258 43.3333 41.7679 43.3518 41.7772C43.3702 41.7772 43.3057 42.0442 43.2044 42.477C43.1031 42.9097 42.9834 43.5083 42.8914 44.1805C42.7901 44.8527 42.744 45.4604 42.7164 45.9024C42.6888 46.3444 42.6796 46.6206 42.6612 46.6206Z" fill="#263238"/>
<path d="M43.3794 45.5801C43.3425 45.5893 43.2689 44.7422 43.2873 43.6924C43.3149 42.6427 43.4162 41.8048 43.453 41.8048C43.4991 41.814 43.453 42.6519 43.4346 43.6924C43.407 44.733 43.4254 45.5801 43.3794 45.5801Z" fill="#263238"/>
<path d="M36.2799 36.3904C36.2891 36.4088 36.0866 36.6022 35.7459 36.9153C35.3683 37.256 34.9079 37.6611 34.4015 38.1215C33.8766 38.5819 33.3978 39.0055 33.0387 39.291C32.6796 39.5856 32.4494 39.7514 32.431 39.7329C32.4217 39.7237 32.6335 39.5304 32.9742 39.2173C33.3518 38.8766 33.803 38.4622 34.3094 38.011C34.8343 37.5414 35.3223 37.1271 35.6814 36.8324C36.0405 36.547 36.2707 36.372 36.2799 36.3904Z" fill="#263238"/>
<path d="M51.4088 50.5156C52.5936 50.7551 53.3149 51.1664 53.5727 51.7495C53.4622 49.9386 56.6544 48.76 63.1491 48.2136L65.4511 50.1657L54.0331 54.0424L41.9061 51.9245C41.9705 51.3168 43.1584 50.6446 43.3241 50.5525C47.5292 50.2947 50.224 50.2824 51.4088 50.5156Z" fill="white"/>
<path d="M52.4402 52.1179C52.6243 52.9773 53.0632 53.3886 53.7569 53.3518C54.5611 53.3027 55.0553 52.8361 55.2394 51.9521L65.8471 49.8895L64.2818 54.4107L58.2965 56.3721H43.4715L41.6943 52.081L41.6667 51.9061L52.4402 52.1179Z" fill="#FF725E"/>
<path d="M41.6667 51.9153C41.7096 51.9091 41.7741 51.9061 41.86 51.9061C41.989 51.9061 42.1731 51.9091 42.4125 51.9153C42.919 51.9245 43.6372 51.9245 44.5672 51.9429C46.4457 51.9705 49.1437 52.0074 52.4402 52.0626H52.4862L52.4954 52.1087C52.5691 52.4033 52.7072 52.698 52.919 52.9374C53.1308 53.1768 53.453 53.3149 53.7845 53.2873C54.116 53.2597 54.4383 53.1123 54.6777 52.8637C54.9171 52.6151 55.0921 52.2836 55.175 51.9429L55.1842 51.9061L55.221 51.8969C58.407 51.2707 62.0074 50.5709 65.8287 49.8158L65.9576 49.7974L65.9116 49.9171C65.6538 50.663 65.3775 51.4641 65.0921 52.2744C64.8404 53.0049 64.5918 53.7262 64.3462 54.4383L64.337 54.4751L64.3002 54.4844C62.2192 55.1658 60.221 55.8195 58.3241 56.4365L58.3057 56.4457H58.2965C52.1271 56.4365 46.9153 56.4181 43.4715 56.4181H43.4438L43.4346 56.3904C42.4033 53.8582 41.7864 52.3297 41.6943 52.081C41.6759 51.9767 41.6667 51.9214 41.6667 51.9153C41.6728 51.9276 41.6851 51.9828 41.7035 52.081C41.814 52.3204 42.4586 53.8398 43.5083 56.3628L43.4715 56.3352C46.9153 56.326 52.1271 56.3168 58.2965 56.3076H58.2781C60.175 55.6906 62.1823 55.0276 64.2542 54.3462L64.2081 54.3923C64.4598 53.6802 64.7115 52.9589 64.9632 52.2284C65.2394 51.4181 65.5157 50.6169 65.7827 49.8619L65.8564 49.9632C62.035 50.6998 58.4346 51.3996 55.2486 52.0166L55.3039 51.9705C55.2026 52.3389 55.0276 52.6796 54.7698 52.9466C54.512 53.2228 54.1529 53.3794 53.7937 53.407C53.6096 53.4162 53.4254 53.3978 53.2597 53.3241C53.0939 53.2505 52.9558 53.1492 52.8361 53.0203C52.6059 52.7532 52.4678 52.4494 52.3849 52.1271L52.4402 52.1731C49.1621 52.0994 46.4733 52.035 44.6041 51.989C43.674 51.9705 42.9466 51.9521 42.4402 51.9337C42.1946 51.9276 42.0043 51.9245 41.8693 51.9245C41.7833 51.9184 41.7158 51.9153 41.6667 51.9153Z" fill="#263238"/>
<path d="M52.744 55.2855C52.7072 55.2947 52.5415 54.5673 52.431 53.6557C52.3113 52.7441 52.2928 51.9982 52.3389 51.9982C52.3757 51.9982 52.4586 52.7349 52.5691 53.6373C52.6796 54.5396 52.7809 55.2763 52.744 55.2855Z" fill="#263238"/>
<path d="M55.3407 55.3223C55.2947 55.3223 55.2946 54.5764 55.2578 53.6648C55.221 52.744 55.1565 52.0074 55.1934 51.9982C55.2302 51.989 55.3591 52.7348 55.4051 53.6556C55.442 54.5764 55.3775 55.3223 55.3407 55.3223Z" fill="#263238"/>
<g opacity="0.3">
<path opacity="0.3" d="M51.0037 55.9301C50.7551 55.8011 50.3131 55.4512 50.175 55.2026C50.046 54.9632 50.1197 54.5949 50.3867 54.512C50.5341 54.4752 50.6906 54.5304 50.8287 54.5857C51.2093 54.7453 51.5869 54.9141 51.9613 55.0921C51.768 54.8159 51.5746 54.4383 51.7772 54.1713C51.9797 53.9043 52.3941 53.9963 52.7072 54.116C53.407 54.3923 54.0976 54.7146 54.825 54.9264C55.5525 55.1474 56.326 55.2671 57.0718 55.1289C57.3573 55.0829 57.6427 54.9908 57.8545 54.7974C58.0479 54.6317 58.1768 54.4015 58.3333 54.1989C58.628 53.8122 59.0608 53.5359 59.5304 53.4162C59.6593 53.3886 59.7974 53.3702 59.8987 53.4438C60.0737 53.5636 60.0276 53.8306 59.9908 54.0516C59.8711 54.733 60.1013 55.4604 60.5893 55.9485L58.8122 56.4089L51.0037 55.9301Z" fill="black"/>
</g>
<path d="M61.0497 55.8011C61.3198 56.2247 61.4549 56.7189 61.4549 57.2836C61.4549 57.8423 61.1664 58.2843 60.5893 58.6096L55.6446 58.0203L53.5175 57.256L50.0276 54.8896L50.1197 54.687C50.5126 54.4107 51.1725 54.5458 52.0995 55.0921L51.3168 54.1437C52.1148 53.7263 53.1522 54.1069 54.4291 55.2855L57.5138 55.4973C58.1461 55.5832 58.5236 55.5464 58.6464 55.3868C58.8306 55.1566 58.6096 54.733 58.6464 54.4844C58.6833 54.245 58.8766 53.6188 59.4015 53.361C59.9171 53.1032 60.3407 53.361 60.3407 53.6004C60.3407 53.849 60.0553 54.07 60.0921 54.3002C60.1381 54.5396 60.3131 54.6133 60.617 54.908C60.8134 55.1105 60.9392 55.3837 60.9945 55.7275" fill="#FFBE9D"/>
<path d="M56.1602 56.9982C56.1602 57.0166 55.8287 57.0074 55.3039 56.9429C55.0368 56.9061 54.7237 56.86 54.383 56.7772C54.2081 56.7311 54.0239 56.6851 53.849 56.593C53.674 56.5009 53.5083 56.3904 53.3425 56.2707C52.6888 55.7827 52.1823 55.2394 51.8324 54.8343C51.4917 54.4291 51.3076 54.1529 51.3168 54.1436C51.3352 54.1344 51.547 54.3831 51.9061 54.7698C52.2744 55.1473 52.7808 55.6722 53.4254 56.1602C53.582 56.2707 53.7477 56.3812 53.9134 56.4641C54.07 56.547 54.2449 56.6022 54.4107 56.6483C54.7514 56.7403 55.0552 56.7956 55.3223 56.8416C55.8379 56.9245 56.1602 56.9705 56.1602 56.9982Z" fill="#263238"/>
<path d="M52.9651 35.7827C52.9651 35.8287 52.5599 35.8195 52.0534 35.7735C51.5562 35.7367 51.151 35.663 51.1602 35.6262C51.1602 35.5893 51.5654 35.5893 52.0718 35.6354C52.5691 35.6814 52.9743 35.7459 52.9651 35.7827Z" fill="#263238"/>
<path d="M65.6077 20.1658C65.5341 20.5617 65.3591 20.9669 65.0184 21.1971C64.6777 21.4181 64.1529 21.3812 63.9411 21.0313C63.9319 21.7035 63.1216 22.1363 62.4586 21.9982C61.7956 21.86 61.2891 21.3352 60.8564 20.8195C60.7919 20.7459 60.7275 20.663 60.6354 20.6354C60.5341 20.5985 60.4236 20.6354 60.3223 20.6262C60.0092 20.5893 59.8711 20.2118 59.8435 19.9079C59.7606 19.0147 60.0276 18.5543 60.5433 17.8361L60.5249 17.9742C60.5801 17.3757 60.8379 16.7864 61.2431 16.3444C61.7772 15.7735 62.5691 15.442 63.3518 15.4696C63.8214 15.4788 64.3094 15.6354 64.6041 15.9945C64.9079 16.3628 64.9263 16.9613 64.5672 17.2652C64.9908 16.9613 65.6814 17.2007 65.8379 17.6888C65.9853 18.186 65.5525 18.7661 65.0368 18.7661C65.5709 18.9042 65.7182 19.6225 65.6077 20.1658Z" fill="#E0E0E0"/>
<path d="M60.5801 24.512C60.6354 25.4512 58.6096 27.0903 57.6888 27.2836L59.733 19.8803C60.1013 19.8987 60.396 20.221 60.488 20.5801C60.5893 20.93 60.5157 21.3076 60.4328 21.6667C60.3407 22.0258 60.2302 22.3757 60.2302 22.744C60.2302 23.3426 60.5433 23.9135 60.5801 24.512Z" fill="#E0E0E0"/>
<path d="M52.4678 31.7588L51.105 31.2615L51.0958 29.8619C48.9595 29.6102 47.8361 28.4224 47.7256 26.2984C47.6519 24.7606 47.744 21.5746 47.8637 18.6925C48.0019 15.5985 50.488 13.1216 53.582 13.0019L53.8858 12.9926C57.2192 13.0571 59.0148 15.9208 58.8582 19.2449L58.9227 28.3057L52.4678 31.7588Z" fill="#FFBE9D"/>
<path d="M51.0958 29.8619C52.4402 29.9171 53.8122 29.469 55.2118 28.5175C54.6102 30.0706 53.2474 30.7919 51.1234 30.6814L51.0958 29.8619Z" fill="#EB996E"/>
<path d="M49.1252 20.709C49.3831 20.709 49.5856 20.9116 49.5856 21.151C49.5856 21.3904 49.3831 21.5838 49.1344 21.5746C48.8766 21.5746 48.674 21.3812 48.674 21.1326C48.674 20.8932 48.8766 20.6998 49.1252 20.709Z" fill="#263238"/>
<path d="M48.674 19.5488C48.8122 19.4291 49.07 19.3002 49.3739 19.291C49.6777 19.2818 49.9448 19.3739 50.1013 19.4843C50.2671 19.5948 50.3223 19.6961 50.2947 19.7238C50.2486 19.7882 49.8803 19.5488 49.3923 19.5764C48.895 19.5948 48.5635 19.8619 48.5083 19.8066C48.4807 19.779 48.5267 19.6685 48.6648 19.5488H48.674Z" fill="#263238"/>
<path d="M53.6004 20.8287C53.8582 20.8379 54.0608 21.0313 54.0608 21.2799C54.0608 21.5194 53.8582 21.7127 53.6096 21.7035C53.361 21.7035 53.1492 21.5009 53.1492 21.2615C53.1492 21.0221 53.3518 20.8287 53.6004 20.8287Z" fill="#263238"/>
<path d="M53.628 19.5028C53.7846 19.3923 54.0516 19.3002 54.3555 19.3186C54.6593 19.3462 54.9172 19.4751 55.0553 19.5949C55.2119 19.7238 55.2579 19.8343 55.2303 19.8527C55.175 19.9171 54.8343 19.6317 54.3371 19.6041C53.849 19.5672 53.4899 19.8066 53.4346 19.7422C53.407 19.7146 53.4715 19.6041 53.628 19.5028Z" fill="#263238"/>
<path d="M50.9853 23.8674C50.93 23.8674 50.8564 23.8674 50.7735 23.849C50.6906 23.8306 50.5985 23.7661 50.5617 23.674C50.488 23.4899 50.5617 23.3241 50.6077 23.1768C50.706 22.8699 50.8134 22.5476 50.93 22.2099C51.3904 20.8287 51.8048 19.733 51.8601 19.7514C51.9153 19.7698 51.593 20.8932 51.1234 22.2744C51.0068 22.612 50.8963 22.9343 50.7919 23.2412C50.7367 23.3886 50.6906 23.5267 50.7275 23.6096C50.7459 23.7017 50.8656 23.7201 50.9945 23.7293C51.4917 23.7753 51.7956 23.8122 51.7956 23.8398C51.7956 23.8674 51.4825 23.8766 50.9853 23.8674Z" fill="#263238"/>
<path d="M53.5543 17.6704C53.7661 17.5783 54.0792 17.5046 54.4199 17.5322C54.7698 17.5599 55.0736 17.6704 55.2578 17.7901C55.4512 17.9098 55.534 18.0387 55.5064 18.0939C55.4327 18.2136 54.9631 18.0663 54.383 18.0295C53.8122 17.9834 53.3241 18.0663 53.2689 17.9374C53.2413 17.8729 53.3518 17.7624 53.5543 17.6704Z" fill="#E0E0E0"/>
<path d="M48.7201 18.4715C48.8582 18.3518 49.0884 18.2413 49.3738 18.2136C49.6501 18.1952 49.8987 18.2781 50.0552 18.3702C50.2026 18.4715 50.267 18.582 50.2302 18.6372C50.1565 18.7661 49.8066 18.6833 49.4015 18.7201C48.9963 18.7385 48.6648 18.8674 48.5728 18.7569C48.5359 18.7017 48.582 18.5912 48.7201 18.4715Z" fill="#E0E0E0"/>
<path d="M53.3425 24.4752C53.3333 24.6869 53.2228 25 52.9558 25.2486C52.6888 25.488 52.3481 25.5709 52.1087 25.5801C51.8693 25.5801 51.7311 25.5157 51.7403 25.4788C51.7403 25.4052 52.3112 25.442 52.7532 25.046C53.1952 24.6501 53.1676 24.1252 53.2504 24.1252C53.2873 24.116 53.3517 24.245 53.3425 24.4659V24.4752Z" fill="#263238"/>
<path d="M60.6261 20.9208L60.1012 21.8416L59.0423 23.7109C58.4806 23.6188 57.8821 22.7072 57.7256 21.3352C57.5506 19.7974 57.4033 18.0019 57.6795 16.4825C57.6979 16.3904 57.7164 16.2984 57.6703 16.2155C57.6059 16.105 57.4493 16.0866 57.3204 16.0774C56.2062 16.0037 55.1841 15.175 54.8803 14.1068C54.291 14.6041 53.3886 14.6961 52.7072 14.337C52.6611 14.3094 52.6059 14.2818 52.5506 14.2818C52.4125 14.2634 52.3112 14.3923 52.2284 14.4936C51.7864 15.0276 51.1694 15.4052 50.5064 15.5617C50.3591 15.5893 50.2026 15.617 50.0645 15.6906C49.9171 15.7735 49.8066 15.9116 49.6869 16.0405C49.4936 16.2615 49.2634 16.4549 49.024 16.6206C48.8582 16.7311 48.6648 16.8232 48.4715 16.8048C48.14 16.7588 47.9466 16.3904 47.919 16.0589C47.8361 15.2302 47.9098 14.5672 48.8858 14.116C48.7631 13.8214 48.8367 13.5728 49.1068 13.3702C49.2449 13.2597 49.558 13.2781 49.7238 13.2136C49.9724 13.1124 50.1934 12.9466 50.4236 12.8085C51.1234 12.3573 51.9429 12.1087 52.7716 12.0995C52.9097 12.0903 53.0479 12.0995 53.1768 12.0626C53.3057 12.035 53.4254 11.9798 53.5543 11.9337C54.6317 11.4917 55.9392 11.7219 56.8048 12.4862C56.9337 12.5967 57.0534 12.7256 57.2007 12.8085C57.3665 12.8914 57.5506 12.9282 57.7348 12.9834C58.4622 13.2136 58.9963 13.8214 59.4843 14.4015C59.8987 14.8895 60.3407 15.5157 60.1197 16.1142C60.0828 16.1971 60.0368 16.2891 60.0552 16.372C60.0644 16.4825 60.1565 16.5562 60.2394 16.6298C60.6814 17.0626 60.7642 17.8177 60.4327 18.3333C60.709 18.4346 60.8379 18.803 60.6998 19.0608C60.6629 19.1345 60.5985 19.1989 60.5893 19.291C60.5801 19.3923 60.6537 19.4936 60.709 19.5764C60.976 19.9816 60.9392 20.5617 60.6261 20.9208Z" fill="#E0E0E0"/>
<path d="M52.0903 12.2652C52.035 12.3204 51.9798 12.4217 51.9982 12.523C52.0074 12.5691 52.035 12.5967 52.0811 12.6151C52.1271 12.6427 52.1731 12.6335 52.1916 12.6059L52.3205 12.7348C52.2468 12.7993 52.1916 12.8729 52.1363 12.9558C51.9521 13.2689 51.9982 13.6188 52.1179 13.8306C52.2192 14.0424 52.3573 14.1436 52.3389 14.1621C52.3297 14.1805 52.1639 14.1252 51.9982 13.895C51.9245 13.7845 51.8601 13.628 51.8416 13.4346C51.8324 13.2505 51.8785 13.0479 51.9798 12.8637C52.0442 12.7624 52.1179 12.6704 52.2008 12.6059L52.3205 12.7348C52.1087 12.9098 51.8601 12.7256 51.8508 12.5414C51.8324 12.3665 51.9337 12.2468 52.0166 12.1823C52.21 12.0626 52.3389 12.081 52.3389 12.0902C52.3481 12.1179 52.2284 12.1547 52.0903 12.2652Z" fill="white"/>
<path d="M48.7385 14.3462C48.7569 14.3831 48.7845 14.4291 48.8214 14.4659C48.8674 14.5028 48.9227 14.4844 48.9319 14.4567L49.024 14.024L49.0792 14.4844C49.0976 14.6317 49.1989 14.7882 49.3739 14.8435C49.4383 14.8619 49.5212 14.8711 49.5857 14.8527L49.6962 14.8343V14.9356C49.6869 15.1934 49.7606 15.3868 49.8895 15.4696C50.0092 15.5525 50.1013 15.5249 50.1105 15.5525C50.1289 15.5617 50.0092 15.6446 49.8343 15.5709C49.7422 15.5341 49.6501 15.4512 49.5949 15.3315C49.5396 15.221 49.5212 15.0829 49.512 14.9448L49.6225 15.0276C49.5212 15.0553 49.4199 15.0461 49.3094 15.0184C49.0608 14.9356 48.9227 14.6961 48.9227 14.5028L49.07 14.5304C48.9779 14.6777 48.803 14.6317 48.7385 14.5672C48.674 14.4936 48.6556 14.4199 48.6464 14.3554C48.6464 14.2173 48.7385 14.1805 48.7385 14.1897C48.7569 14.2081 48.7109 14.2542 48.7385 14.3462Z" fill="white"/>
<path d="M58.6925 21.6114C58.7385 21.5838 60.8564 20.884 60.8656 23.0663C60.884 25.2486 58.6925 24.8067 58.6833 24.7514C58.6833 24.7084 58.6863 23.6618 58.6925 21.6114Z" fill="#FFBE9D"/>
<path d="M59.3462 23.9135C59.3554 23.9135 59.3831 23.9411 59.4475 23.9687C59.512 24.0055 59.6225 24.0239 59.733 23.9779C59.9632 23.8858 60.1566 23.5267 60.1658 23.1308C60.1658 22.9282 60.129 22.744 60.0553 22.5875C59.9816 22.4217 59.8803 22.3112 59.7698 22.2928C59.6501 22.2652 59.5672 22.3389 59.5396 22.4033C59.512 22.4586 59.5304 22.5046 59.512 22.5138C59.512 22.5138 59.4659 22.477 59.4844 22.3849C59.4936 22.3389 59.5212 22.2928 59.5672 22.2468C59.6225 22.2008 59.6962 22.1823 59.779 22.1915C59.9448 22.2007 60.1013 22.3573 60.175 22.523C60.2671 22.698 60.3223 22.9098 60.3131 23.1308C60.3039 23.5728 60.0829 23.9871 59.7698 24.0792C59.6133 24.1252 59.4844 24.0792 59.4199 24.0239C59.3462 23.9687 59.337 23.9227 59.3462 23.9227V23.9135Z" fill="#EB996E"/>
<path d="M60.6262 17.5138C60.6538 17.4862 60.8103 17.6151 60.9761 17.8822C61.1326 18.1492 61.2891 18.5728 61.326 19.0516C61.3536 19.5396 61.2523 19.9724 61.1142 20.2578C60.9853 20.5433 60.8564 20.6906 60.8195 20.6722C60.7459 20.6354 61.0958 19.9632 61.0313 19.07C60.9945 18.186 60.5617 17.5599 60.6262 17.5138Z" fill="#FF725E"/>
<path d="M54.2357 24.4199C54.1897 24.4291 54.1436 24.2081 53.9687 24.0147C53.8029 23.8122 53.6004 23.7201 53.6096 23.6833C53.6188 23.6464 53.8766 23.6833 54.0792 23.9227C54.2818 24.1529 54.2726 24.4199 54.2357 24.4199Z" fill="#EB996E"/>
<path d="M56.3628 20.4512C56.3904 20.4696 56.2339 20.6814 55.93 20.7643C55.6262 20.8564 55.3775 20.7551 55.396 20.7183C55.396 20.6814 55.6262 20.7091 55.8932 20.6262C56.151 20.5525 56.3352 20.4144 56.3628 20.4512Z" fill="#EB996E"/>
<path d="M56.5009 21.1418C56.4733 21.1787 56.2984 21.0958 56.0682 21.0405C55.838 20.9761 55.6354 20.9761 55.6354 20.9301C55.6262 20.8932 55.838 20.8288 56.0958 20.8932C56.3628 20.9577 56.5193 21.1142 56.5009 21.1418Z" fill="#EB996E"/>
<path d="M48.361 21.1142C48.3702 21.1142 48.3794 21.1234 48.3702 21.151C48.361 21.1694 48.3334 21.1879 48.3057 21.1971C48.2505 21.2063 48.186 21.1971 48.1216 21.1787C47.9926 21.1418 47.9098 21.0682 47.9282 21.0313C47.9374 20.9945 48.0479 21.0037 48.1676 21.0405C48.2229 21.0589 48.2781 21.0866 48.3057 21.0958C48.3149 21.105 48.3241 21.105 48.3241 21.1142C48.3334 21.1142 48.3518 21.1142 48.361 21.1142Z" fill="#EB996E"/>
<path d="M59.4199 14.3831C59.4291 14.4015 59.2265 14.5857 58.8306 14.7882C58.4346 14.9816 57.8361 15.1658 57.1547 15.1289C56.4733 15.0921 55.884 14.8435 55.5157 14.6041C55.1473 14.3647 54.9632 14.1529 54.9724 14.1437C54.9908 14.1253 55.1934 14.3094 55.5709 14.5212C55.9392 14.7238 56.5101 14.9448 57.1547 14.9816C57.8085 15.0184 58.3978 14.8619 58.7938 14.6962C59.1897 14.5304 59.4015 14.3647 59.4199 14.3923V14.3831Z" fill="#263238"/>
<path d="M60.1658 15.5985C60.175 15.6169 59.9448 15.8103 59.5212 16.0405C59.3094 16.1602 59.0332 16.2799 58.7109 16.3444C58.3978 16.4088 58.0295 16.4088 57.6612 16.3352C56.9245 16.1878 56.3352 15.8287 55.9392 15.5525C55.5525 15.267 55.3315 15.0645 55.3407 15.0553C55.3499 15.0368 55.5985 15.2118 56.0037 15.4696C56.3997 15.7182 56.9798 16.0589 57.6888 16.1878C58.0387 16.2615 58.3886 16.2615 58.6925 16.2155C58.9964 16.1602 59.2542 16.0497 59.4752 15.9484C59.8988 15.7459 60.1566 15.5801 60.1658 15.5985Z" fill="#263238"/>
<path d="M65.1013 20.9392C65.0736 20.9392 65.1381 20.709 64.9631 20.396C64.8803 20.2486 64.7329 20.0921 64.5119 20.0276C64.3094 19.954 64.0331 19.9632 63.8029 20.1013L63.6924 20.175L63.7016 20.046C63.7016 19.9171 63.6648 19.779 63.5911 19.6593C63.4162 19.3923 63.1307 19.2265 62.8637 19.1713C62.5875 19.116 62.3204 19.1437 62.1087 19.1897C61.6759 19.2726 61.4088 19.3646 61.4088 19.337C61.3996 19.3278 61.6483 19.1989 62.081 19.0884C62.302 19.0332 62.5783 18.9871 62.8821 19.0424C63.186 19.0976 63.5175 19.2726 63.7109 19.5856C63.8029 19.7238 63.8398 19.8895 63.8398 20.046L63.7293 19.9908C63.9963 19.8251 64.3186 19.8158 64.558 19.9079C64.8066 20 64.9631 20.1842 65.046 20.3591C65.2118 20.709 65.1105 20.9484 65.1013 20.9392Z" fill="#263238"/>
<g opacity="0.3">
<path opacity="0.3" d="M44.9448 50.5616L46.4181 39.8803C44.7146 43.1308 44.1897 46.9797 44.9448 50.5616Z" fill="black"/>
</g>
<g opacity="0.3">
<path opacity="0.3" d="M72.2652 52.7533C72.2744 52.9006 72.2468 53.0755 72.1271 53.1676C71.9153 53.3334 71.6114 53.1308 71.4181 52.9466C70.8103 52.3665 70.1381 51.8048 69.3278 51.5654C68.5175 51.326 67.4862 51.6023 66.8232 52.0074C67.2652 51.2984 68.3241 51.013 69.2634 50.9117C69.9171 50.838 70.6078 50.8932 71.1971 51.1971C71.7772 51.501 72.2468 52.0903 72.2652 52.7533Z" fill="black"/>
</g>
<path fill-rule="evenodd" clip-rule="evenodd" d="M94.6225 37.7993V61.9153H80.5985L94.6225 37.7993ZM92.1731 58.2136V48.1952L86.2339 58.2136H92.1731Z" fill="#FF725E"/>
<path d="M81.9429 59.604C81.9705 59.558 82.3481 59.7514 82.7993 60.0368C83.2505 60.3131 83.6004 60.5709 83.5728 60.6077C83.5451 60.6537 83.1584 60.4512 82.7164 60.1749C82.2652 59.8987 81.9153 59.6409 81.9429 59.604Z" fill="#263238"/>
<path d="M84.0056 56.0221C84.024 55.9853 84.4015 56.1786 84.8343 56.4549C85.2763 56.7311 85.6077 56.9797 85.5801 57.0258C85.5617 57.0626 85.1842 56.8692 84.7514 56.593C84.3094 56.3168 83.978 56.0589 84.0056 56.0221Z" fill="#263238"/>
<path d="M86.0589 52.4401C86.0866 52.4033 86.4365 52.6335 86.8416 52.9558C87.2468 53.2781 87.5506 53.5635 87.523 53.6004C87.4954 53.6372 87.1455 53.407 86.7403 53.0847C86.3352 52.7716 86.0313 52.477 86.0589 52.4401Z" fill="#263238"/>
<path d="M88.1952 48.9318C88.2228 48.895 88.582 49.1252 88.9871 49.4475C89.3923 49.7606 89.6961 50.0552 89.6685 50.0921C89.6409 50.1289 89.2818 49.8987 88.8766 49.5764C88.4715 49.2541 88.1676 48.9687 88.1952 48.9318Z" fill="#263238"/>
<path d="M90.3039 45.2578C90.3223 45.221 90.6998 45.4328 91.1418 45.7274C91.5746 46.0313 91.906 46.3076 91.8876 46.3444C91.86 46.3812 91.4825 46.1694 91.0405 45.8656C90.6077 45.5709 90.2762 45.2947 90.3039 45.2578Z" fill="#263238"/>
<path d="M92.5138 41.4457C92.5414 41.3996 92.9005 41.593 93.3149 41.8692C93.7293 42.1363 94.0423 42.3941 94.0239 42.4309C93.9963 42.4678 93.6372 42.2744 93.2228 42.0074C92.8085 41.7311 92.4862 41.4825 92.5138 41.4457Z" fill="#263238"/>
<path d="M82.5967 58.4806C82.6151 58.4438 82.8177 58.5267 83.0387 58.6648C83.2689 58.8029 83.4254 58.9502 83.407 58.9871C83.3794 59.0239 83.1768 58.941 82.9558 58.8029C82.7256 58.6648 82.5691 58.5267 82.5967 58.4806Z" fill="#263238"/>
<path d="M83.2412 57.3112C83.2689 57.2744 83.4714 57.3481 83.6924 57.4954C83.9226 57.6335 84.0792 57.7716 84.0516 57.8176C84.0331 57.8545 83.8306 57.7716 83.6096 57.6335C83.3794 57.4954 83.2228 57.3481 83.2412 57.3112Z" fill="#263238"/>
<path d="M84.779 54.7053C84.8066 54.6593 85.0092 54.7422 85.2302 54.8803C85.4512 55.0184 85.6169 55.1658 85.5893 55.2026C85.5617 55.2486 85.3683 55.1658 85.1381 55.0276C84.9171 54.8895 84.7514 54.7422 84.779 54.7053Z" fill="#263238"/>
<path d="M85.4328 53.5267C85.4604 53.4899 85.663 53.5727 85.884 53.7109C86.105 53.849 86.2707 53.9963 86.2431 54.0331C86.2155 54.07 86.0221 53.9871 85.7919 53.849C85.5709 53.7109 85.4052 53.5727 85.4328 53.5267Z" fill="#263238"/>
<path d="M86.8969 51.1694C86.9153 51.1326 87.1179 51.2155 87.348 51.3536C87.569 51.4917 87.7256 51.639 87.7072 51.6759C87.6795 51.7127 87.477 51.6298 87.256 51.4917C87.035 51.3536 86.8692 51.2063 86.8969 51.1694Z" fill="#263238"/>
<path d="M87.5506 50.0552C87.5783 50.0092 87.7716 50.0921 88.0018 50.2302C88.2228 50.3683 88.3886 50.5157 88.361 50.5525C88.3333 50.5985 88.1308 50.5157 87.9098 50.3775C87.6888 50.2394 87.523 50.0921 87.5506 50.0552Z" fill="#263238"/>
<path d="M88.9411 47.6427C88.9687 47.5967 89.1713 47.6796 89.3923 47.8177C89.6133 47.9558 89.7791 48.1032 89.7514 48.14C89.7238 48.1861 89.5304 48.1032 89.3002 47.965C89.0792 47.8269 88.9227 47.6796 88.9411 47.6427Z" fill="#263238"/>
<path d="M89.7053 46.3444C89.733 46.2983 89.9355 46.3812 90.1565 46.5193C90.3775 46.6574 90.5433 46.8048 90.5156 46.8416C90.488 46.8876 90.2946 46.8048 90.0645 46.6666C89.8435 46.5285 89.6777 46.3812 89.7053 46.3444Z" fill="#263238"/>
<path d="M91.0681 44.0055C91.0958 43.9687 91.2984 44.0515 91.5193 44.1897C91.7495 44.3278 91.9061 44.4751 91.8785 44.512C91.86 44.5488 91.6575 44.4751 91.4365 44.3278C91.2063 44.1897 91.0497 44.0515 91.0681 44.0055Z" fill="#263238"/>
<path d="M91.8416 42.6611C91.8692 42.6243 92.0718 42.7072 92.2928 42.8453C92.5138 42.9834 92.6796 43.1308 92.652 43.1676C92.6336 43.2044 92.431 43.1216 92.2007 42.9834C91.9797 42.8453 91.8232 42.698 91.8416 42.6611Z" fill="#263238"/>
</g>
<defs>
<clipPath id="clip0_16_846">
<rect width="100" height="100" fill="white"/>
</clipPath>
</defs>
</svg>
