<svg width="100" height="100" viewBox="0 0 100 100" fill="none" xmlns="http://www.w3.org/2000/svg">
<g id="login_student">
<g id="2002.i515.001_modern_students_flat_icons-13-ai-svg-svg (1) 1" clip-path="url(#clip0_16_39)">
<path id="Color Fill 1" d="M0 0H100V100H0V0Z" fill="white"/>
<g id="Layer 1">
<g id="&#60;Group&#62;">
<g id="&#60;Group&#62;_2">
<g id="&#60;Group&#62;_3">
<path id="&#60;Path&#62;" d="M92.8531 96.305L88.5968 95.3602L58.653 88.653L60.8326 88.3162L64.0505 87.8111L67.9888 87.175L88.1946 84.0038L90.8419 83.5922C96.0306 86.8039 96.6978 91.0415 92.8438 96.305H92.8531Z" fill="#3F90A8"/>
<path id="&#60;Path&#62;_2" d="M92.8531 96.305L40.1684 104.584L-18.7465 93.6857L7.08138 88.0824L9.24228 87.5491L21.0851 82.6006L32.9654 79.682L45.4256 83.3677L62.4789 87.334L63.8915 87.7549L64.0505 87.8111L64.2469 87.8578L89.2984 95.2573L92.8438 96.305H92.8531Z" fill="#3F90A8"/>
<path id="&#60;Path&#62;_3" d="M-14.3966 90.5613L-18.8026 89.2236L-19.4668 84.986L-8.07298 87.914L-19.5323 84.5837L-19.6632 83.7418L-16.6511 84.4434L-19.7287 83.3302L90.8512 83.5922C92.9466 91.4593 92.7502 91.4219 91.7773 94.9205L39.9439 103.096L-18.2601 92.6474L-18.6904 89.9439L-14.3966 90.5519V90.5613Z" fill="#F8DCC2"/>
<path id="&#60;Path&#62;_4" d="M37.4462 92.7222L-19.9065 82.1609L30.8045 76.0804L90.131 84.4434L37.4462 92.7222Z" fill="#F8DCC2"/>
<g id="&#60;Path&#62;_5" style="mix-blend-mode:multiply">
<path d="M38.2881 92.6099L-19.9158 82.1609L30.8045 76.0804L90.8512 83.5922L90.9635 84.0225L38.2881 92.6099Z" fill="#F8DCC2"/>
</g>
<path id="&#60;Path&#62;_6" d="M38.1759 91.8803L-20.898 81.4406L27.3433 75.884C30.1123 75.4537 32.928 75.5379 35.6595 76.1459L90.8513 83.5921L38.1759 91.8803Z" fill="#3F90A8"/>
<g id="&#60;Path&#62;_7" style="mix-blend-mode:multiply">
<path d="M92.8531 96.305L40.1684 104.584L39.9439 103.096L38.2881 92.6099L38.1665 91.8709L62.4883 87.334L88.0168 83.9663L90.8419 83.5922C96.0305 86.8039 96.6978 91.0415 92.8438 96.305H92.8531Z" fill="#F8DCC2"/>
</g>
</g>
</g>
<g id="&#60;Group&#62;_4">
<path id="&#60;Path&#62;_8" d="M75.1731 83.1151C75.0702 85.6969 73.4238 86.492 72.2825 88.4752C71.4967 88.2507 70.3181 88.101 68.8681 87.9888C67.5117 87.8765 65.9027 87.811 64.1721 87.7643C55.304 87.4743 42.9373 87.6146 41.1038 85.3882C40.608 84.7989 38.4284 76.1927 38.0823 75.5753C37.3433 74.247 36.9598 72.8906 36.9223 71.637C36.8662 69.3639 37.942 67.4369 40.1216 66.6698C41.3658 66.2208 42.9747 66.1646 44.9205 66.6417C45.6969 66.9411 47.231 65.9588 48.0449 66.2021C48.7465 66.4266 49.4481 66.6511 50.1497 66.8943C51.8522 67.4556 53.5267 68.0636 55.1824 68.6997C61.6838 71.1787 68.1197 74.3124 72.1703 76.5295C74.6679 78.1852 75.276 80.5893 75.1824 83.1151H75.1731Z" fill="#EC925D"/>
<path id="&#60;Path&#62;_9" d="M75.1356 81.319C75.4724 89.8409 73.8447 103.742 74.2282 106.314C73.3208 107.848 66.9411 108.251 66.754 106.997C66.6324 105.977 66.6324 105.949 66.6136 105.8C65.9308 101.394 63.4144 87.4275 63.0402 85.9869C63.0402 85.9495 63.0589 85.9027 63.0963 85.8466C63.3863 85.2572 65.4163 83.5921 67.6239 81.9177C70.5238 79.7194 75.1076 80.6455 75.1356 81.319Z" fill="#EC925D"/>
<g id="&#60;Path&#62;_10" style="mix-blend-mode:multiply" opacity="0.4">
<path d="M69.1674 90.3742C67.7642 95.0982 66.5482 104.818 66.8849 108.017C66.202 103.611 63.9476 89.5884 63.5828 88.1478C63.5828 88.1104 64.1347 87.8204 64.1721 87.7642C55.304 87.4743 42.9373 87.6146 41.1038 85.3882C40.608 84.7989 38.4284 76.1927 38.0823 75.5753C37.3433 74.247 36.9598 72.8905 36.9223 71.637L50.1496 66.8943C51.8522 67.4556 53.5266 68.0636 55.1824 68.6997C55.6314 68.787 55.4755 69.4699 54.7147 70.7484C54.2563 71.5248 55.6127 73.4892 56.3798 73.9663C60.5706 76.5856 65.1356 79.3919 67.6239 81.9177C69.4761 83.7886 70.0093 87.5678 69.1674 90.3742Z" fill="#EC925D"/>
</g>
<path id="&#60;Path&#62;_11" d="M57.0814 42.9373C56.9691 43.5828 54.7053 53.0776 53.7698 57.0065C53.7698 57.0128 53.7698 57.019 53.7698 57.0252C53.536 58.0168 53.3863 58.6529 53.3863 58.681C51.3564 58.4191 47.5304 57.4368 45.9214 55.4256C45.3601 54.7334 45.0795 53.9008 45.2479 52.9373C45.5472 51.3003 46.8662 47.5023 47.2872 45.9588C47.8671 43.7886 48.6155 42.0112 49.5042 40.6642C50.4864 39.1207 51.6464 38.1478 52.9279 37.7923C55.9588 36.9598 56.7352 38.6436 57.2965 40.1684C57.5958 40.9822 57.1468 42.5725 57.0814 42.9373Z" fill="#F8C650"/>
<path id="&#60;Path&#62;_12" d="M62.8438 67.3713C63.8603 68.4378 64.6367 69.0676 65.173 69.261C65.9775 69.5509 67.5023 69.0364 69.1019 69.261C70.7016 69.4761 71.1412 71.6557 71.4312 72.1702C71.7118 72.6754 71.7867 74.2656 70.1496 74.3405C68.522 74.4247 66.6791 71.9364 66.6417 72.8157C67.2591 73.9102 67.7736 74.5463 66.9878 74.565C66.2114 74.593 64.9953 72.3105 63.8447 71.9644C62.7034 71.6089 61.8241 71.188 61.5341 70.477C61.3408 70.0031 61.7773 68.9678 62.8438 67.3713Z" fill="#FCC7A9"/>
<path id="&#60;Path&#62;_13" d="M60.2058 70.8887C59.9314 70.7328 59.5634 70.5238 59.1019 70.2619C59.0926 70.2619 59.0832 70.2619 59.0739 70.2432C56.0617 68.5313 48.1104 63.9944 47.231 63.4892C46.1646 62.8718 44.5089 60.7203 43.985 59.9532C44.1066 57.9888 44.855 56.4265 45.9214 55.4256C47.97 53.536 51.2067 53.6857 53.7699 57.0252C53.7792 57.0533 63.6857 67.3994 64.0505 67.6801C64.434 67.9794 61.6745 71.5435 60.2151 70.8887H60.2058Z" fill="#F8C650"/>
<path id="&#60;Path&#62;_14" d="M45.0327 34.5556L44.0879 33.2086C44.9236 32.5101 45.859 32.3791 46.8943 32.8157L45.0327 34.5556Z" fill="#F8C650"/>
<g id="&#60;Path&#62;_15" style="mix-blend-mode:multiply">
<path d="M44.0879 33.2086C44.9298 32.5101 45.8653 32.3791 46.8943 32.8157C47.9295 33.2522 47.309 33.8322 45.0327 34.5556L44.0879 33.2086Z" fill="#F8C650"/>
</g>
<path id="&#60;Path&#62;_16" d="M59.6351 25.5005C56.8194 27.9139 56.4453 31.9738 51.0196 31.9738C45.594 31.9738 46.5482 33.3208 44.9673 29.9626C43.4144 26.6978 43.3302 24.9392 43.087 21.7399C42.9654 20.1684 44.7521 17.8017 48.2788 16.8007C52.348 14.3031 55.8092 16.8101 57.8952 17.2778C60.9635 17.9701 61.2348 19.8597 60.8512 20.9729C60.8793 23.8447 60.5893 24.0411 59.6351 25.5005Z" fill="#3B5765"/>
<path id="&#60;Path&#62;_17" d="M64.0692 80.7203C64.1066 81.0103 62.7315 84.275 61.4593 87.1375C61.3938 87.2965 61.319 87.4649 61.2348 87.6333C60.3274 89.7193 59.5229 91.4686 59.4668 91.478C57.7081 91.1225 55.9775 90.767 54.275 90.3742C53.7137 90.2525 53.1618 90.1403 52.5912 90C45.884 88.4752 39.4948 86.6323 33.1618 83.854C27.8765 81.5435 25.8466 75.9869 26.4359 72.4509C26.5014 72.0393 26.5762 71.6557 26.6323 71.2815C27.6052 65.5191 27.6613 65.6314 35.2292 66.0056C36.6043 66.0617 40.159 67.6426 41.5061 68.0636C44.9298 69.1768 43.7792 67.3433 46.6417 69.1487C46.8101 69.2516 46.9878 69.3732 47.1562 69.4761C48.55 70.3461 49.8222 71.1599 51.0009 71.8989C56.3424 75.2759 59.6445 77.4649 62.3106 79.4106C62.4322 79.4855 62.5538 79.5697 62.666 79.6632C63.115 79.9813 63.5454 80.3087 63.957 80.6174C64.0131 80.6454 64.0505 80.6829 64.0786 80.7203H64.0692Z" fill="#EC925D"/>
<path id="&#60;Path&#62;_18" d="M67.6427 89.5229C65.3976 96.782 49.6445 109.345 48.9991 110.505C48.7652 110.926 48.3349 111.076 47.811 111.02C47.8048 111.02 47.7986 111.023 47.7923 111.029C45.5285 110.795 41.478 106.997 42.5538 105.472C44.2875 102.741 46.2738 99.6538 48.5126 96.2114C48.522 96.202 48.5313 96.174 48.5407 96.1646C49.1207 95.2666 49.7287 94.3405 50.3555 93.3957C51.0851 92.2825 51.8335 91.1319 52.5912 90C52.6754 89.8877 52.7502 89.7661 52.8344 89.6445C53.5454 88.5594 54.2657 87.4743 54.986 86.4266C55.1824 85.7063 59.0365 78.3255 59.2236 77.5304C60.3773 78.1603 61.4063 78.787 62.3106 79.4107C62.4322 79.4855 62.5538 79.5697 62.666 79.6632C63.1151 79.9813 63.5454 80.3087 63.957 80.6174C64.0131 80.6455 64.0505 80.6829 64.0786 80.7203C68.2226 84.0692 68.7371 86.9878 67.6427 89.5229Z" fill="#EC925D"/>
<g id="&#60;Path&#62;_19" style="mix-blend-mode:multiply" opacity="0.4">
<path d="M58.3349 88.4752C53.8728 90.2058 56.0524 94.144 53.3115 96.5762C51.503 99.0209 48.7995 102.002 45.2011 105.519C43.7699 106.913 46.6791 110.281 47.783 111.02C45.5285 110.795 41.478 106.997 42.5444 105.472C49.1425 95.2759 52.4914 90.1185 52.5912 90C45.884 88.4752 39.4948 86.623 33.1618 83.854C27.8765 81.5435 25.8466 75.9869 26.4359 72.4508C26.5014 72.0392 26.5762 71.6464 26.6323 71.2815L26.8381 71.1038L41.0477 69.4855L47.1562 69.4761C48.55 70.3367 50.2806 71.4406 51.4593 72.1889C51.5809 73.1337 49.1207 74.593 40.1684 77.6333C33.2179 80 56.0243 89.0271 58.3349 88.4658V88.4752Z" fill="#EC925D"/>
</g>
<g id="&#60;Path&#62;_20" style="mix-blend-mode:multiply" opacity="0.5">
<path d="M59.0739 70.2432C56.0617 68.5313 48.1104 63.9944 47.231 63.4892C46.1646 62.8718 44.5089 60.7203 43.985 59.9532C44.1066 57.9888 44.855 56.4266 45.9214 55.4256C45.3601 54.724 45.0795 53.9008 45.2479 52.9373C45.5472 51.3003 46.8662 47.5023 47.2872 45.9588C47.8671 43.7886 48.6155 42.0112 49.5042 40.6642L54.3031 41.4499C54.2095 50.6548 54.0318 55.8372 53.7699 56.9972C53.7699 57.0065 54.406 58.4846 54.6211 60.0935C54.7989 61.5061 55.9588 68.2788 59.0739 70.2432Z" fill="#F8C650"/>
</g>
<path id="&#60;Path&#62;_21" d="M57.044 40.5893C57.044 40.7016 57.044 40.8232 57.0346 40.9354V41.0196C57.044 48.6716 51.1038 61.0103 50.8887 63.3676C50.8887 63.3863 50.1029 66.8569 52.2544 68.2507C53.4393 69.2921 51.9208 70.8824 47.6988 73.0215C47.6426 72.9934 47.5585 72.9467 47.4743 72.9186C46.9598 72.6473 46.5014 72.376 46.1833 72.0299C45.8279 71.6464 45.6782 71.188 45.8746 70.5612C45.5753 71.2628 45.3882 71.8335 45.2666 72.2918C45.2292 72.4509 45.2011 72.6005 45.1637 72.7315C45.0234 73.4331 45.0608 73.826 45.0795 74.0692C44.5931 75.4069 40.7484 75.9588 37.6239 76.1927C37.5678 76.1927 37.5304 76.202 37.4743 76.202C34.7334 76.3985 31.9644 76.1646 29.2984 75.4911C26.8756 74.8643 24.1253 73.9663 24.275 73.0215C25.1824 67.7081 27.811 63.377 28.7278 52.1796C28.7933 51.347 32.6286 41.4874 35.3227 38.3068C35.6221 37.9607 35.9027 37.6988 36.1459 37.5398C36.3143 37.4275 36.4546 37.334 36.5669 37.2498C37.3714 36.6978 37.7268 36.3891 38.9242 35.7624C39.1955 35.6127 39.5136 35.4537 39.8877 35.2666C46.7633 31.927 53.4144 32.6099 56.6698 39.0926C56.8101 39.4013 56.754 39.2329 56.9317 39.8503C56.9972 40.1029 57.0346 40.3274 57.044 40.58V40.5893Z" fill="#F8C650"/>
<path id="&#60;Path&#62;_22" d="M55.0327 34.5182L52.3386 36.9972C52.3199 37.3901 52.3012 37.8297 52.2731 38.3068C52.1609 40.3274 51.8709 42.7596 51.0945 42.9467C50.9261 40.6548 50.4396 39.0552 49.6726 37.8297C49.2048 37.072 48.6249 36.4546 47.9513 35.9027C46.9597 35.0982 45.7624 34.434 44.3779 33.6483C44.4278 33.5485 45.5659 31.9925 47.7923 28.9803C48.7558 27.6614 55.7156 33.2367 55.0327 34.5182Z" fill="#FCC7A9"/>
<g id="&#60;Path&#62;_23" style="mix-blend-mode:multiply" opacity="0.4">
<path d="M55.0046 35.2292L52.3105 37.493C52.3012 37.8578 52.1328 42.8438 51.0757 42.956C51.5341 42.7502 51.8241 41.2629 51.9457 40.3835C52.0673 39.4761 52.0205 38.7745 50.7109 38.7652C50.3461 38.6716 49.9906 38.4939 49.6538 38.26C49.1861 37.5678 48.6061 36.9972 47.9233 36.492C44.1815 36.0368 43.4736 34.7365 45.7998 32.5912L55.0046 35.2292Z" fill="#FCC7A9"/>
</g>
<path id="&#60;Path&#62;_24" d="M49.8877 38.1665C49.869 38.2974 49.8035 38.8681 50.0468 39.4387C48.469 39.4075 47.4805 39.1175 47.0814 38.5687C46.4827 37.7736 49.5042 37.9981 49.8597 38.1197C49.8784 38.1291 49.8877 38.1478 49.8877 38.1665Z" fill="#F8C650"/>
<g id="&#60;Path&#62;_25" style="mix-blend-mode:multiply" opacity="0.5">
<path d="M49.5042 68.4752C49.4948 69.3264 50.0093 71.3938 47.6988 73.0308C47.6426 72.9934 47.5585 72.956 47.4743 72.9186C46.8194 72.6005 45.6127 72.1422 45.2666 72.2918C45.2479 72.2918 45.2385 72.3012 45.2292 72.3105C40.6642 72.1328 30.6735 66.941 29.6352 67.7175C21.4499 73.826 34.3592 75.5846 37.4836 76.202C34.7334 76.3985 31.9644 76.174 29.2984 75.4911C26.8756 74.8643 24.1253 73.9663 24.275 73.0308C25.1824 67.7175 27.811 63.377 28.7371 52.1796C28.7933 51.347 32.6286 41.4873 35.3227 38.3068C35.6221 37.97 35.9027 37.7081 36.1459 37.5397C36.3237 37.4275 36.9317 36.9504 37.0533 36.8381C36.9317 36.8662 41.2722 34.3592 42.9654 34.0411C46.3268 37.284 48.5719 39.0053 49.7006 39.2048C48.9523 39.1986 47.1406 40.0873 44.2657 41.8709C43.748 39.1019 43.0059 37.3526 42.0393 36.623C41.6745 36.333 41.16 35.145 42.5818 34.7801C41.8335 34.434 39.6539 35.9214 40.3274 36.6604C41.1225 37.6988 41.5716 39.7848 41.16 43.9663C40.7671 48.0355 42.3667 52.6754 40.58 56.7446C38.7184 60.9915 49.5229 66.941 49.5042 68.4752Z" fill="#F8C650"/>
</g>
<g id="&#60;Path&#62;_26" style="mix-blend-mode:multiply">
<path d="M45.4911 38.4004C46.8756 38.4471 49.7942 38.0168 49.8784 38.1384C49.8846 38.1447 49.8877 38.154 49.8877 38.1665C49.869 38.2694 49.7942 38.9055 50.0468 39.4387C48.522 38.2039 45.6595 39.1487 45.4911 38.4004Z" fill="#F8C650"/>
</g>
<path id="&#60;Path&#62;_27" d="M49.8597 38.1197C49.6352 38.0355 49.1113 38.2787 48.4752 38.6623C47.6988 39.1487 46.754 39.8597 45.9495 40.4864C45.3196 40.9853 44.7583 41.4468 44.2657 41.8709C44.3031 38.9897 43.7636 37.1437 42.6473 36.333C40.9916 35.145 43.2086 33.9102 43.4892 33.6483C43.8166 33.3676 44.0692 33.1899 44.2657 33.087C44.2657 33.0807 44.2657 33.0776 44.2657 33.0776C44.8145 32.7471 45.2697 32.5974 45.6314 32.6286C46.1646 32.6754 45.2292 32.7128 44.9766 33.6576C45.1824 35.7156 49.2236 37.783 49.869 38.1197H49.8597Z" fill="#F8C650"/>
<g id="&#60;Path&#62;_28" style="mix-blend-mode:multiply" opacity="0.5">
<path d="M55.014 37.5959C54.9392 38.2133 54.6118 40.3461 54.3218 41.6745C53.5828 41.1974 52.7502 38.7746 52.2544 39.2142C52.5257 38.2039 53.7324 36.9224 55.014 37.5959Z" fill="#F8C650"/>
</g>
<g id="&#60;Path&#62;_29" style="mix-blend-mode:multiply">
<path d="M52.3106 38.0449C52.3106 38.0168 52.3293 37.9888 52.3573 37.9794C52.6286 37.9139 53.9008 37.5865 53.2086 37.9139C52.7034 38.1571 52.3854 38.6155 52.2544 39.289L52.3106 38.0449Z" fill="#F8C650"/>
</g>
<path id="&#60;Path&#62;_30" d="M54.4153 36.333C54.908 37.2747 55.0296 37.8765 54.7801 38.1384C54.5369 38.4004 54.3779 39.5042 54.303 41.4499C54.0099 41.2067 53.6794 40.5332 53.3115 39.4294C52.9435 38.3318 52.6193 37.8516 52.3386 37.9888L54.4153 36.333Z" fill="#F8C650"/>
<path id="&#60;Path&#62;_31" d="M59.102 26.9597C58.9149 27.3807 58.8307 27.8484 58.8587 28.3161C58.971 29.8784 58.3536 31.4031 57.3339 33.1618C54.5369 37.9513 54.3218 37.3058 51.8522 36.7446C50.3274 36.3985 48.9336 35.594 47.8578 34.4527C46.3798 32.8718 45.0701 30.6548 43.9757 27.4462C43.5641 26.2488 43.6389 24.9205 44.2095 23.7979C47.0533 18.2413 52.4041 20.5238 57.1656 21.5715C60.7577 22.3667 59.8971 25.2198 59.102 26.9597Z" fill="#FCC7A9"/>
<path id="&#60;Path&#62;_32" d="M59.6351 25.5005C57.0658 24.3031 56.0149 23.1805 56.4827 22.1328C56.7072 21.6183 55.6501 21.347 55.0888 21.319C51.7493 21.188 49.3919 22.6847 48.7091 24.6585C48.5687 25.0608 48.4939 25.4817 48.5033 25.9214C48.55 29.1207 46.4827 27.5772 45.9682 28.7839C45.6875 29.4387 45.2292 29.579 45.145 30.3461C44.0131 28.6342 43.4518 25.2105 42.9934 22.8251C43.0402 20.4677 44.0224 18.7184 46.8381 17.3807C51.5341 15.1263 55.5659 16.9504 57.652 19.0645C57.6457 19.0708 57.6457 19.0739 57.652 19.0739C62.376 20.2058 63.3489 23.3489 59.6351 25.5005Z" fill="#3B5765"/>
<path id="&#60;Path&#62;_33" d="M46.8382 17.3714C40.9355 20.1964 43.667 28.3817 45.8279 31.6557C45.9121 30.8793 45.6969 29.4387 45.9682 28.7745L46.8382 17.3714Z" fill="#3B5765"/>
<path id="&#60;Path&#62;_34" d="M47.1094 28.2413C46.5295 29.289 47.3807 30.6829 46.6885 30.9541C45.9869 31.2161 45.0327 30.4303 44.5744 29.1955C44.1066 27.97 43.7324 26.9691 44.9953 26.492C46.6136 25.8746 47.7455 27.0907 47.1094 28.2413Z" fill="#FCC7A9"/>
<path id="&#60;Path&#62;_35" d="M25.9495 58.4752C26.015 58.232 28.5781 50.3181 28.6249 50.1684C32.0299 40.6829 35.4069 37.1001 38.232 36.3985C38.84 36.2488 40.1684 36.3704 40.6455 36.9036C41.029 37.334 43.2554 40.4864 39.6539 47.8485L36.1366 57.8485C32.7689 57.2685 25.9214 58.5875 25.9495 58.4752Z" fill="#F8C650"/>
<g id="&#60;Path&#62;_36" style="mix-blend-mode:multiply" opacity="0.7">
<path d="M51.0664 43.4705C50.9729 45.7904 50.7109 48.0917 50.3368 50.3648C49.9532 52.6473 49.3358 54.9018 48.2039 56.9317C47.1936 59.0365 46.6978 61.3377 46.3424 63.6295C45.9869 65.9214 45.8466 68.2507 45.8653 70.5706H45.8934C46.0056 68.2507 46.2301 65.9495 46.5762 63.667C46.9317 61.3845 47.4088 59.1019 48.3255 56.9878C50.4116 52.8251 51.16 48.0917 51.0945 43.4705H51.0664Z" fill="#F8C650"/>
</g>
<g id="&#60;Path&#62;_37" style="mix-blend-mode:multiply" opacity="0.1">
<path d="M45.9495 40.3368C46.1179 38.7745 43.7699 35.2759 44.986 35.7998C45.725 37.2498 47.7268 38.1478 48.4752 38.6623C47.6988 39.1487 46.754 39.8597 45.9495 40.4864C45.9401 40.449 45.9495 40.3929 45.9495 40.3368Z" fill="#F8C650"/>
</g>
<g id="&#60;Group&#62;_5">
<path id="&#60;Path&#62;_38" d="M75.5379 75.304L60.2525 82.1048C60.1029 82.1703 59.9345 82.1703 59.7848 82.1141L44.9766 76.623C44.883 76.5856 44.8363 76.5108 44.8269 76.4266C44.8269 76.4172 44.8269 76.4079 44.8269 76.4079C44.8176 76.305 44.8643 76.0243 44.9111 75.9589C44.9392 75.9121 45.0982 76.043 45.1917 76.1179L59.8971 70.7203C60.1309 70.6361 60.3835 70.6268 60.6174 70.7016L75.5379 75.304Z" fill="#3B5765"/>
<path id="&#60;Path&#62;_39" d="M59.8503 81.768L45.0327 76.2675C44.8363 76.1927 44.8363 75.9121 45.0327 75.8466L59.9626 70.3742C60.1871 70.29 60.4396 70.2806 60.6829 70.3555L75.8559 75.0327L60.3087 81.7587C60.1684 81.8148 60 81.8241 59.8503 81.768Z" fill="#ABE3EF"/>
<path id="&#60;Path&#62;_40" d="M81.8241 59.2891L76.492 74.2189C76.3891 74.5089 76.1646 74.7428 75.884 74.8737L60.1777 81.8428C59.9345 81.9551 59.6726 81.7212 59.7567 81.4593L65.1263 64.6773C65.2385 64.3312 65.5004 64.0599 65.8466 63.9476L81.4593 58.7746C81.6651 58.7091 81.7773 58.6717 82.1609 59.1113C82.0392 59.2236 81.927 59.2703 81.8241 59.2891Z" fill="#3B5765"/>
<g id="&#60;Path&#62;_41" style="mix-blend-mode:multiply">
<path d="M59.8503 81.768L45.0327 76.2675C44.8363 76.1927 44.8363 75.9121 45.0327 75.8466L59.9626 70.3742C60.1871 70.29 60.4396 70.2806 60.6829 70.3555L75.8559 75.0327L60.3087 81.7587C60.1684 81.8148 60 81.8241 59.8503 81.768Z" fill="#ABE3EF"/>
</g>
<g id="&#60;Path&#62;_42" style="mix-blend-mode:multiply">
<path d="M60.4116 81.2161L51.2161 77.8859C51.0383 77.8204 51.0383 77.5678 51.2161 77.493L64.7147 72.5444C64.9298 72.4696 65.1543 72.4602 65.3695 72.5257L74.8924 75.1169L60.8325 81.2067C60.7016 81.2628 60.5519 81.2628 60.4116 81.2161Z" fill="#ABE3EF"/>
</g>
<g id="&#60;Path&#62;_43" style="mix-blend-mode:multiply">
<path d="M55.7437 75.2479L52.8531 74.2002C52.8531 74.144 52.8531 74.144 52.8531 74.0786L57.1094 72.5257C57.1749 72.5164 57.2497 72.5164 57.3152 72.5164L60.2806 73.536C60.3648 73.5641 60.3648 73.6763 60.2806 73.7044L55.884 75.2479C55.8279 75.2479 55.7904 75.2479 55.7343 75.2479H55.7437Z" fill="#ABE3EF"/>
</g>
<path id="&#60;Path&#62;_44" d="M60.1122 81.6932L65.4817 64.9111C65.594 64.565 65.8653 64.2937 66.202 64.1815L81.8241 59.0178C82.0673 58.9336 82.3012 59.1675 82.217 59.42L76.8475 74.4528C76.7446 74.7521 76.5201 74.986 76.2394 75.1076L60.5425 82.0767C60.29 82.189 60.028 81.9551 60.1122 81.6932Z" fill="#ABE3EF"/>
<g id="&#60;Path&#62;_45" style="mix-blend-mode:screen" opacity="0.5">
<path d="M72.956 71.0009C72.9279 71.5809 71.9551 71.9925 70.7858 71.9271C69.6258 71.8522 68.709 71.3377 68.7465 70.7577C68.7745 70.2432 69.5697 69.8597 70.5893 69.841C70.7203 69.5884 70.8793 69.3358 71.0945 69.0926C71.8428 68.1945 72.8063 67.7736 73.246 68.1478C73.6857 68.522 73.4331 69.5416 72.6847 70.4303C72.6785 70.4365 72.6754 70.4428 72.6754 70.449C72.8625 70.6174 72.9747 70.8045 72.956 71.0103V71.0009Z" fill="#ABE3EF"/>
</g>
<g id="&#60;Path&#62;_46" style="mix-blend-mode:multiply" opacity="0.5">
<path d="M82.217 59.42L76.8475 74.4528C76.7446 74.7428 76.5201 74.986 76.2394 75.1076L60.5425 82.0767C60.29 82.189 60.028 81.9551 60.1122 81.6932L60.58 80.2245L68.5968 76.3517C72.1422 74.6492 75.0421 71.8522 76.8849 68.3723C78.3754 65.5473 79.9064 62.4821 81.478 59.1768C81.4873 59.1581 81.4873 59.1394 81.4967 59.1207L81.8241 59.0084C82.0673 58.9336 82.3012 59.1675 82.217 59.42Z" fill="#ABE3EF"/>
</g>
</g>
<path id="&#60;Path&#62;_47" d="M43.7605 66.1646C46.9223 68.2912 48.7777 69.4262 49.3264 69.5697C50.1496 69.7848 52.2544 69.9064 53.0028 69.9439C53.7605 69.9813 56.0524 72.4322 56.4359 73.6483C56.8194 74.8644 56.8288 76.1927 56.4639 76.6324C56.0898 77.072 53.9102 76.8662 52.2825 76.2301C50.6548 75.594 50.0093 73.6857 49.4387 73.4425C49.0583 73.2865 46.2613 71.9707 41.0477 69.4948L43.7605 66.1646Z" fill="#FCC7A9"/>
<path id="&#60;Path&#62;_48" d="M49.5042 68.4752C49.8784 68.9336 47.783 73.4705 46.5014 72.9373C39.0084 70.29 33.3021 67.5491 29.8877 64.7053C29.4855 64.5089 28.4191 63.985 27.8017 63.3863C26.941 62.5257 26.3049 61.319 26.043 60.1777C25.8279 59.2329 26.0524 58.2881 26.043 58.2881C28.4752 54.6211 33.2928 58.8774 36.3049 57.3901L36.0617 58.84L49.5042 68.4752Z" fill="#F8C650"/>
<path id="&#60;Path&#62;_49" d="M52.9934 70.1403C53.4799 70.2432 54.0131 70.3274 54.5089 70.3835C54.7615 70.4116 55.0047 70.4303 55.2292 70.4303C55.435 70.449 55.7156 70.3648 55.6408 70.4209C55.9401 70.1871 56.3798 70.2525 56.6043 70.5519C56.8382 70.8606 56.7727 71.2909 56.4733 71.5248C55.9308 71.8709 55.6408 71.8335 55.3134 71.8896C55.0047 71.9177 54.7147 71.9177 54.4247 71.9177C53.8447 71.9083 53.2928 71.8709 52.7128 71.8054C52.2544 71.7586 51.9177 71.3377 51.9738 70.8699C52.0206 70.4022 52.4415 70.0748 52.9093 70.1216C52.9373 70.1309 52.9654 70.1309 52.9934 70.1403Z" fill="#FCC7A9"/>
</g>
</g>
</g>
</g>
</g>
<defs>
<clipPath id="clip0_16_39">
<rect width="100" height="100" fill="white"/>
</clipPath>
</defs>
</svg>
