<svg width="101" height="100" fill="none" xmlns="http://www.w3.org/2000/svg"><g clip-path="url(#a)"><path d="M100.746 100H.7V-.046h100.046V100Z" fill="#F5F6F6"/><path d="M42.03 57.558a3.288 3.288 0 0 1-3.29 3.288H15.903a3.288 3.288 0 0 1-3.288-3.288V31.613a3.288 3.288 0 0 1 3.288-3.29h22.839a3.288 3.288 0 0 1 3.288 3.29v25.945Z" fill="#CCCDCF" style="mix-blend-mode:multiply"/><path d="M41.7 57.144a3.29 3.29 0 0 1-3.288 3.29H15.575a3.29 3.29 0 0 1-3.29-3.29V31.2a3.29 3.29 0 0 1 3.29-3.29h22.837a3.289 3.289 0 0 1 3.289 3.29v25.944Z" fill="#fff"/><path d="M12.285 32.845V31.2a3.29 3.29 0 0 1 3.29-3.29h22.837a3.289 3.289 0 0 1 3.289 3.29v1.644H12.285Z" fill="#0B4B7F"/><path d="M35.397 31.456a.27.27 0 0 1-.269.27h-1.792a.27.27 0 0 1-.268-.27v-1.792c0-.148.12-.267.268-.267h1.792c.148 0 .27.12.27.267v1.792Zm3.381 0a.27.27 0 0 1-.27.27h-1.79a.27.27 0 0 1-.27-.27v-1.792c0-.148.121-.267.27-.267h1.79c.15 0 .27.12.27.267v1.792Zm-7.264-.894c0 .643-.52 1.164-1.164 1.164H15.277a1.164 1.164 0 1 1 0-2.33H30.35c.643 0 1.164.522 1.164 1.166Z" fill="#fff"/><path d="M28.638 42.909a7.058 7.058 0 1 1-14.115 0 7.058 7.058 0 0 1 14.115 0Z" fill="#D8D9DA"/><path d="M25.112 46.965c.223 1.042-7.118.928-7.118 0 1.147-1.978.038-3.3-.096-5.909-.134-2.607 7.023-1.903 7.173 0 .148 1.905-.96 4.523.04 5.91Z" fill="#78241C"/><path d="M23.763 51.438c-.039-.415-.213-1.59-.523-3.527l.525-1.538c.482-.007.766.295.85.908.083.612.163 2.007.24 4.187l.027.372h-1.054a4.641 4.641 0 0 1-.065-.402Zm-5.907.402.03-.409c.077-2.178.157-3.574.24-4.185.085-.612.368-.916.85-.91l.526 1.54c-.312 1.937-.486 3.112-.524 3.526a4.907 4.907 0 0 1-.073.437h-1.049v.001Z" fill="#FFB38F"/><path d="M18.515 49.615c.006-.331.238-.899.695-1.704l-.255-1.6 1.231-.566h2.448l1.259.594-.294 1.57c.563.831.847 1.4.85 1.705.005.306-.216.624-.66.953l-.423 1.272H19.38l-.284-1.272c-.395-.303-.59-.621-.583-.953Z" fill="#FF4D44"/><path d="M22.634 45.745c.297 1.16.364 1.888.204 2.184-.27.5-2.458.46-2.752 0-.196-.306-.162-1.033.101-2.184l.377-.02V43.89h1.682v1.759l.388.096Z" fill="#FFB38F"/><path d="M20.563 45.23v-1.34h1.682v1.484c-.09.038-.183.072-.282.1-.52.146-.954-.036-1.4-.246Z" fill="#E6937B"/><path d="M25.084 42.88c-.154.064-.32.041-.498-.068-.791.04-1.186-.042-1.186-.248v-1.035c0-.491.395-.713 1.186-.663.178-.25.387-.29.626-.12.566.405.316 1.947-.128 2.133v.001Zm-7.133-2.132c.24-.17.448-.131.627.119.79-.05 1.185.172 1.185.663v1.035c0 .206-.396.288-1.185.248-.178.11-.345.132-.498.068-.445-.187-.695-1.729-.129-2.133Z" fill="#FFB38F"/><path d="M24.614 42.457c0 1.372-1.986 2.893-3.051 2.893-1.17 0-3.05-1.618-3.05-2.978v-2.868c0-4.051 6.101-4.32 6.101 0v2.953Z" fill="#FFB38F"/><path d="M18.793 42.147c-.313-.072-.276-.529-.323-.961-.057-.536-.295-.609-.713-.22l-.134-1.667c-.058-.708 1.184-3.584 3.925-2.95 2.876-.73 3.564 2.388 3.564 3.06v1.25c-.308.085-.46.25-.457.49.003.243.003.6 0 1.07-.055-.236-.25-.501-.228-1.318-1.942-.29-4.515-1.8-5.046-2.096-.064 1.408-.704 1.718-.683 2.104.027.493.055.851.095 1.239v-.001Z" fill="#78241C"/><path d="m21.86 42.85-.354.278v-2.009l.353 1.732Z" fill="#E6937B"/><path d="M20.976 40.724c-.36-.242-.655-.325-.885-.249-.229.076-.487.239-.773.487l-.048-.178c.215-.26.478-.402.79-.426.311-.027.617.095.916.366Z" fill="#78241C"/><path d="m21.577 43.8.806.04c-.158.15-.26.233-.304.248-.2.067-.792.041-.955.03-.108-.007-.257-.102-.447-.284.518-.027.818-.038.9-.033V43.8Z" fill="#E23D36"/><path d="M20.225 43.622c.279.101.475.145.586.133.168-.02.449-.255.516-.226.044.02.122.051.234.098.146-.073.241-.105.286-.098.066.011.415.243.536.226.08-.012.216-.055.405-.133-.234.154-.397.246-.49.274-.258.077-.534-.004-.719-.016-.22-.014-.54.141-.793.008a8.877 8.877 0 0 0-.56-.267l-.001.001Z" fill="#FF473E"/><path d="M23.103 40.322c.312.025.576.168.79.428l-.047.179c-.287-.248-.546-.41-.775-.487-.229-.077-.524.006-.884.249.299-.271.605-.394.916-.368Z" fill="#78241C"/><path d="M22.36 41.318a.22.22 0 0 0-.112-.022c.125-.228.355-.342.689-.342.335 0 .57.116.71.349a1.826 1.826 0 0 0-.251.094c-.126-.08-.065-.371-.46-.371-.392 0-.45.213-.576.292Z" fill="#2A161C"/><path d="M23.552 41.303c-.054.198-.249.297-.584.297-.334 0-.57-.101-.708-.303.138-.193.374-.29.708-.29.335 0 .53.099.584.297Z" fill="#fff"/><path d="M22.77 41.01a1.353 1.353 0 0 1 .395 0 .354.354 0 0 1 0 .574 1.243 1.243 0 0 1-.394 0 .352.352 0 0 1 0-.574Z" fill="#2A161C"/><path d="M23.108 41.303a.14.14 0 1 1-.28 0 .14.14 0 0 1 .14-.14c.076 0 .14.064.14.14Z" fill="#1A0B11"/><path d="M22.931 41.171a.063.063 0 0 1-.063.062.062.062 0 0 1-.063-.062.063.063 0 1 1 .126 0Zm.04.136a.032.032 0 0 1-.033.033.033.033 0 0 1-.032-.033c0-.018.014-.033.032-.033.02 0 .033.015.033.033Z" fill="#fff"/><path d="M20.226 41.026c-.393 0-.333.292-.458.37a1.845 1.845 0 0 0-.252-.093c.14-.233.375-.35.71-.35.334 0 .564.114.69.343-.053 0-.09.007-.113.022-.126-.08-.183-.293-.577-.293Z" fill="#2A161C"/><path d="M20.195 41.007c.334 0 .57.097.709.29-.138.202-.374.303-.71.303-.334 0-.528-.099-.582-.297.054-.197.248-.296.583-.296Z" fill="#fff"/><path d="M20.54 41.297a.351.351 0 0 1-.147.287 1.253 1.253 0 0 1-.396 0 .352.352 0 0 1 0-.575 1.347 1.347 0 0 1 .396 0 .354.354 0 0 1 .146.288Z" fill="#2A161C"/><path d="M20.195 41.163a.14.14 0 0 1 .14.14.14.14 0 1 1-.28 0 .14.14 0 0 1 .14-.14Z" fill="#1A0B11"/><path d="M20.295 41.108c.035 0 .063.027.063.063a.062.062 0 0 1-.063.062.062.062 0 0 1-.063-.062c0-.035.028-.063.063-.063Zm-.069.166c.017 0 .032.015.032.033a.033.033 0 0 1-.032.033.033.033 0 0 1-.033-.033c0-.018.014-.033.032-.033Z" fill="#fff"/><path d="M39.28 38.166h-9.477v-1.793h9.477v1.793Z" fill="#B0B1B3"/><path d="M39.28 40.343h-9.477v-.896h9.477v.896Zm0 1.835h-9.477v-.896h9.477v.896Zm0 1.835h-9.477v-.896h9.477v.896Zm0 1.836h-9.477v-.898h9.477v.898Zm0 1.834h-9.477v-.896h9.477v.896Zm0 1.837h-9.477v-.898h9.477v.897Zm0 3.756H15.803v-.896H39.28v.896Zm0 2.22H15.803V54.6H39.28v.896Z" fill="#D8D9DA"/><path d="M91.14 42.817v21.46a2.72 2.72 0 0 1-2.722 2.72H69.53a2.717 2.717 0 0 1-2.263-1.213 2.708 2.708 0 0 1-.73-1.85V42.477a2.72 2.72 0 0 1 2.722-2.72h18.89c.943 0 1.776.482 2.263 1.213a2.71 2.71 0 0 1 .729 1.848Z" fill="#C4C5C7" style="mix-blend-mode:multiply"/><path d="M92.237 63.65a2.72 2.72 0 0 1-2.72 2.719h-18.89a2.72 2.72 0 0 1-2.72-2.72V42.19a2.72 2.72 0 0 1 2.72-2.72h18.89a2.72 2.72 0 0 1 2.72 2.72v21.46Z" fill="#CCCDCF" style="mix-blend-mode:multiply"/><path d="M91.964 63.307a2.72 2.72 0 0 1-2.72 2.72h-18.89a2.72 2.72 0 0 1-2.72-2.72V41.85a2.72 2.72 0 0 1 2.72-2.72h18.89a2.72 2.72 0 0 1 2.72 2.72v21.459Z" fill="#fff"/><path d="M67.635 43.21v-1.36a2.72 2.72 0 0 1 2.72-2.721h18.89a2.72 2.72 0 0 1 2.72 2.72v1.36h-24.33Z" fill="#0B4B7F"/><path d="M86.751 42.061c0 .123-.1.223-.223.223h-1.482a.223.223 0 0 1-.222-.223V40.58c0-.123.1-.221.222-.221h1.482c.123 0 .223.1.223.22v1.483Zm2.796 0c0 .123-.1.223-.223.223h-1.482a.223.223 0 0 1-.222-.223V40.58c0-.123.1-.221.222-.221h1.482c.123 0 .223.1.223.22v1.483Zm-6.007-.741a.963.963 0 0 1-.963.964H70.11a.963.963 0 1 1 0-1.926h12.467c.532 0 .963.43.963.963Z" fill="#fff"/><path d="M81.16 51.534a5.838 5.838 0 1 1-11.675 0 5.838 5.838 0 0 1 11.675 0Z" fill="#D8D9DA"/><path d="M76.455 56.917c.201.944-2.919.269-2.919-.572 1.04-1.796-1.478-1.932-1.554-5.828-.047-2.37 6.488-1.733 6.507 0 .037 3.45-2.944 5.142-2.035 6.4Z" fill="#472B1E"/><path d="M77.302 59.937c-.035-.377-.193-1.444-.475-3.2l.477-1.397c.438-.006.694.269.77.824.076.555.15 1.821.218 3.798l.025.338h-.956a4.028 4.028 0 0 1-.06-.364h.001Zm-5.36.364.028-.37c.069-1.978.142-3.244.218-3.798.076-.556.332-.83.77-.825l.477 1.396c-.282 1.757-.44 2.824-.475 3.2a4.223 4.223 0 0 1-.066.397h-.952Z" fill="#9C643F"/><path d="M72.54 58.282c.006-.3.216-.816.631-1.546l-.232-1.451 1.119-.515h2.22l1.143.54-.267 1.426c.511.753.769 1.268.773 1.546.003.277-.197.565-.6.864l-.384 1.154h-3.616l-.257-1.154c-.358-.276-.534-.565-.528-.864h-.001Z" fill="#47C8C2"/><path d="M76.278 54.77c.27 1.053.33 1.714.184 1.983-.244.454-2.23.416-2.496 0-.178-.278-.147-.939.092-1.983l.342-.017v-1.664h1.526v1.594l.352.087Z" fill="#9C643F"/><path d="M74.4 54.304V53.09h1.526v1.346a2.173 2.173 0 0 1-.256.09c-.472.132-.866-.032-1.27-.221Z" fill="#7F5132"/><path d="M78.5 52.172c-.14.058-.29.037-.45-.063-.718.037-1.076-.038-1.076-.224v-.938c0-.446.358-.647 1.075-.603.162-.226.351-.262.569-.107.513.366.286 1.765-.117 1.935H78.5Zm-6.471-1.936c.217-.154.406-.12.568.107.717-.044 1.075.157 1.075.603v.938c0 .187-.359.261-1.075.224-.161.1-.312.121-.452.063-.403-.17-.63-1.569-.117-1.935Z" fill="#9C643F"/><path d="M78.074 51.787c0 1.246-1.802 2.626-2.768 2.626-1.063 0-2.768-1.468-2.768-2.702v-2.602c0-3.678 5.536-3.92 5.536 0v2.678Z" fill="#9C643F"/><path d="M72.793 51.506c-.283-.065-.25-.48-.292-.871-.052-.486-.268-.553-.647-.2a11.279 11.279 0 0 1-.122-1.512c-.001-.85 1.074-3.252 3.56-2.676 2.61-.662 3.235 2.167 3.235 2.775v1.134c-.28.079-.418.227-.415.447.002.22.002.543 0 .969-.051-.215-.226-.456-.206-1.196-1.762-.265-2.187-1.038-2.709-2.356-.537 1.53-2.51 2.013-2.49 2.364.025.446.05.771.086 1.122Z" fill="#472B1E"/><path d="m75.575 52.144-.32.252v-1.823l.32 1.57Z" fill="#7F5132"/><path d="M74.774 50.215c-.327-.22-.594-.295-.803-.225-.208.069-.441.216-.702.442l-.043-.163a1.01 1.01 0 0 1 .716-.387c.284-.022.56.088.832.333Z" fill="#472B1E"/><path d="m75.318 53.005.732.036c-.143.137-.235.212-.276.225-.181.062-.719.038-.867.028-.098-.007-.233-.093-.405-.259.47-.023.742-.033.816-.03Z" fill="#872C20"/><path d="M74.092 52.845c.254.092.43.132.533.12.151-.017.407-.23.467-.205l.213.09c.131-.066.218-.096.258-.09.06.011.377.22.487.206.074-.01.196-.05.367-.121-.212.14-.36.223-.446.248-.233.07-.484-.003-.651-.014-.2-.013-.491.128-.719.007a7.515 7.515 0 0 0-.51-.241h.001Z" fill="#872C20"/><path d="M76.705 49.851c.283.023.521.152.716.387l-.043.163c-.26-.226-.495-.373-.703-.443-.208-.069-.475.006-.802.226.27-.246.549-.356.832-.333Z" fill="#472B1E"/><path d="M76.03 50.755c-.021-.014-.055-.02-.102-.02.114-.207.322-.31.625-.31.304 0 .518.104.644.315a1.94 1.94 0 0 0-.228.085c-.114-.071-.06-.337-.416-.337s-.408.195-.524.266Z" fill="#2A161C"/><path d="M77.11 50.74c-.05.18-.226.269-.528.269-.304 0-.518-.092-.643-.275.125-.176.34-.263.643-.263s.48.09.528.269Z" fill="#fff"/><path d="M76.403 50.475a1.202 1.202 0 0 1 .358 0 .317.317 0 0 1 .133.26.319.319 0 0 1-.133.26 1.221 1.221 0 0 1-.358 0 .32.32 0 0 1 0-.52Z" fill="#2A161C"/><path d="M76.708 50.74c0 .07-.057.128-.127.128a.127.127 0 1 1 .127-.128Z" fill="#1A0B11"/><path d="M76.548 50.62a.057.057 0 0 1-.057.057.057.057 0 0 1-.058-.057c0-.032.025-.057.058-.057.031 0 .057.025.057.057Zm.037.124a.03.03 0 0 1-.03.03.03.03 0 0 1-.03-.03.03.03 0 0 1 .03-.03.03.03 0 0 1 .03.03Z" fill="#fff"/><path d="M74.093 50.489c-.357 0-.301.266-.416.337a1.953 1.953 0 0 0-.227-.085c.125-.21.34-.316.643-.316s.512.104.625.31a.197.197 0 0 0-.102.02c-.114-.071-.165-.266-.523-.266Z" fill="#2A161C"/><path d="M74.066 50.471c.303 0 .517.088.642.263-.125.183-.339.275-.642.275-.304 0-.48-.09-.53-.269.05-.178.227-.268.53-.268Z" fill="#fff"/><path d="M74.377 50.735a.32.32 0 0 1-.133.26 1.221 1.221 0 0 1-.358 0 .317.317 0 0 1-.133-.26c0-.108.051-.202.133-.26a1.21 1.21 0 0 1 .358 0 .32.32 0 0 1 .133.26Z" fill="#2A161C"/><path d="M74.066 50.614c.07 0 .127.057.127.126 0 .07-.058.128-.127.128a.127.127 0 0 1-.127-.128c0-.07.056-.126.127-.126Z" fill="#1A0B11"/><path d="M74.156 50.563c.032 0 .056.025.056.057a.056.056 0 0 1-.056.057.057.057 0 1 1 0-.114Zm-.064.152a.03.03 0 0 1 .03.03.03.03 0 0 1-.03.03.03.03 0 0 1-.03-.03.03.03 0 0 1 .03-.03Z" fill="#fff"/><path d="M89.962 47.611h-7.838v-1.482h7.838v1.482Z" fill="#B0B1B3"/><path d="M89.962 49.412h-7.838v-.741h7.838v.74Zm0 1.517h-7.838v-.742h7.838v.742Zm0 1.519h-7.838v-.742h7.838v.742Zm0 1.517h-7.838v-.742h7.838v.742Zm0 1.518h-7.838v-.741h7.838v.741Zm0 1.517h-7.838v-.74h7.838V57Zm0 3.108H70.546v-.741h19.416v.741Zm0 1.836H70.546v-.74h19.416v.74Z" fill="#D8D9DA"/><path opacity=".1" d="M70.55 89.87c0 1.146-8.877 2.076-19.827 2.076-10.95 0-19.828-.929-19.828-2.075 0-1.146 8.877-2.076 19.828-2.076 10.95 0 19.827.929 19.827 2.076Z" fill="#707176"/><path opacity=".1" d="M68.98 89.87c0 1.056-8.173 1.911-18.257 1.911-10.084 0-18.258-.856-18.258-1.91 0-1.055 8.174-1.911 18.258-1.911s18.258.856 18.258 1.91Z" fill="#707176"/><path opacity=".1" d="M78.12 89.87c0 1.584-12.266 2.868-27.397 2.868-15.13 0-27.396-1.284-27.396-2.867 0-1.584 12.266-2.867 27.396-2.867 15.132 0 27.397 1.284 27.397 2.867Z" fill="#707176"/><path opacity=".1" d="M75.952 89.87c0 1.459-11.296 2.641-25.23 2.641-13.933 0-25.228-1.182-25.228-2.64 0-1.458 11.295-2.64 25.229-2.64 13.933 0 25.229 1.182 25.229 2.64Z" fill="#707176"/><path opacity=".1" d="M74.117 89.87c0 1.353-10.474 2.45-23.394 2.45-12.92 0-23.393-1.096-23.393-2.45 0-1.352 10.474-2.447 23.394-2.447 12.92 0 23.393 1.096 23.393 2.448Z" fill="#707176"/><path opacity=".1" d="M72.116 89.87c0 1.237-9.578 2.24-21.392 2.24-11.815 0-21.393-1.003-21.393-2.24 0-1.236 9.578-2.238 21.393-2.238 11.814 0 21.392 1.002 21.392 2.239Z" fill="#707176"/><path opacity=".1" d="M59.578 89.87c0 .513-3.964.928-8.855.928s-8.856-.415-8.856-.927 3.965-.927 8.856-.927c4.89 0 8.855.415 8.855.927Z" fill="#707176"/><path opacity=".1" d="M58.878 89.87c0 .472-3.651.854-8.154.854-4.504 0-8.155-.382-8.155-.853 0-.472 3.651-.854 8.154-.854 4.504 0 8.155.382 8.155.854Z" fill="#707176"/><path opacity=".1" d="M58.285 89.87c0 .438-3.386.792-7.561.792-4.176 0-7.562-.355-7.562-.791 0-.437 3.386-.792 7.562-.792 4.175 0 7.561.354 7.561.792Z" fill="#707176"/><path opacity=".1" d="M57.638 89.87c0 .4-3.096.724-6.914.724-3.82 0-6.915-.323-6.915-.723 0-.4 3.096-.724 6.915-.724 3.818 0 6.914.324 6.914.724Z" fill="#707176"/><path opacity=".1" d="M62.868 89.87c0 .703-5.437 1.271-12.145 1.271-6.706 0-12.144-.568-12.144-1.27 0-.702 5.438-1.271 12.145-1.271s12.144.57 12.144 1.27Z" fill="#707176"/><path opacity=".1" d="M61.906 89.87c0 .647-5.007 1.17-11.182 1.17-6.177 0-11.184-.523-11.184-1.17 0-.646 5.007-1.17 11.184-1.17 6.176 0 11.182.524 11.182 1.17Z" fill="#707176"/><path opacity=".1" d="M61.093 89.87c0 .6-4.643 1.086-10.37 1.086-5.727 0-10.37-.485-10.37-1.085s4.643-1.086 10.37-1.086c5.727 0 10.37.486 10.37 1.086Z" fill="#707176"/><path opacity=".1" d="M60.206 89.87c0 .549-4.246.993-9.483.993-5.236 0-9.482-.444-9.482-.992 0-.549 4.246-.993 9.483-.993 5.236 0 9.482.444 9.482.993Z" fill="#707176"/><path opacity=".1" d="M67.504 89.87c0 .97-7.513 1.757-16.781 1.757-9.268 0-16.781-.787-16.781-1.756 0-.97 7.513-1.756 16.78-1.756 9.269 0 16.782.786 16.782 1.756Z" fill="#707176"/><path opacity=".1" d="M66.176 89.87c0 .894-6.918 1.618-15.453 1.618-8.534 0-15.452-.724-15.452-1.617s6.918-1.618 15.453-1.618c8.534 0 15.452.724 15.452 1.618Z" fill="#707176"/><path opacity=".1" d="M65.052 89.87c0 .829-6.416 1.5-14.33 1.5-7.913 0-14.329-.671-14.329-1.5 0-.828 6.416-1.499 14.33-1.499 7.913 0 14.33.671 14.33 1.5Z" fill="#707176"/><path opacity=".1" d="M63.826 89.87c0 .758-5.866 1.372-13.102 1.372-7.237 0-13.103-.615-13.103-1.371 0-.757 5.866-1.371 13.102-1.371 7.237 0 13.103.614 13.103 1.37Z" fill="#707176"/><path opacity=".1" d="M56.829 89.87c0 .354-2.734.64-6.106.64-3.373 0-6.106-.286-6.106-.64 0-.352 2.733-.639 6.106-.639 3.372 0 6.106.287 6.106.64Z" fill="#707176"/><path opacity=".1" d="M56.29 89.87c0 .322-2.493.583-5.566.583-3.075 0-5.567-.26-5.567-.582 0-.322 2.493-.583 5.567-.583 3.074 0 5.566.261 5.566.583Z" fill="#707176"/><path opacity=".1" d="M55.913 89.87c0 .301-2.324.544-5.19.544-2.865 0-5.188-.243-5.188-.543 0-.3 2.323-.543 5.189-.543 2.865 0 5.189.243 5.189.543Z" fill="#707176"/><path opacity=".1" d="M55.502 89.87c0 .277-2.14.501-4.78.501-2.639 0-4.778-.224-4.778-.5s2.14-.5 4.779-.5 4.779.224 4.779.5Z" fill="#707176"/><path opacity=".1" d="M55.154 89.87c0 .257-1.983.465-4.431.465-2.447 0-4.432-.208-4.432-.464s1.985-.464 4.432-.464 4.431.208 4.431.464Z" fill="#707176"/><path opacity=".1" d="M54.775 89.87c0 .235-1.814.425-4.051.425-2.238 0-4.052-.19-4.052-.424 0-.235 1.814-.425 4.052-.425 2.237 0 4.051.19 4.051.425Z" fill="#707176"/><path opacity=".1" d="M54.302 89.87c0 .208-1.603.376-3.578.376-1.977 0-3.578-.168-3.578-.375s1.602-.374 3.578-.374c1.976 0 3.578.167 3.578.374Z" fill="#707176"/><path opacity=".1" d="M53.986 89.87c0 .19-1.46.342-3.262.342s-3.262-.153-3.262-.341c0-.189 1.46-.342 3.261-.342 1.802 0 3.263.153 3.263.342Z" fill="#707176"/><path opacity=".1" d="M53.986 89.87c0 .19-1.46.342-3.262.342s-3.262-.153-3.262-.341c0-.189 1.46-.342 3.261-.342 1.802 0 3.263.153 3.263.342Z" fill="#707176"/><path opacity=".1" d="M53.727 89.87c0 .174-1.345.315-3.003.315-1.66 0-3.004-.141-3.004-.314 0-.174 1.345-.315 3.004-.315 1.658 0 3.004.141 3.004.315Z" fill="#707176"/><path opacity=".1" d="M53.509 89.87c0 .161-1.247.292-2.785.292s-2.786-.13-2.786-.291c0-.161 1.247-.291 2.786-.291 1.538 0 2.785.13 2.785.29Z" fill="#707176"/><path opacity=".1" d="M53.27 89.87c0 .148-1.14.267-2.547.267-1.407 0-2.548-.119-2.548-.266 0-.148 1.14-.267 2.548-.267 1.407 0 2.547.12 2.547.267Z" fill="#707176"/><path opacity=".1" d="M52.972 89.87c0 .13-1.007.236-2.25.236-1.242 0-2.249-.105-2.249-.235s1.007-.236 2.25-.236c1.242 0 2.25.105 2.25.236Z" fill="#707176"/><path opacity=".1" d="M52.774 89.87c0 .119-.918.215-2.05.215-1.133 0-2.05-.095-2.05-.214s.917-.215 2.05-.215c1.132 0 2.05.096 2.05.215Z" fill="#707176"/><path opacity=".1" d="M52.635 89.87c0 .111-.856.2-1.911.2-1.056 0-1.912-.089-1.912-.2 0-.11.856-.2 1.912-.2 1.055 0 1.911.09 1.911.2Z" fill="#707176"/><path opacity=".1" d="M52.484 89.87c0 .103-.789.185-1.76.185-.973 0-1.76-.082-1.76-.184s.788-.185 1.76-.185 1.76.083 1.76.185Z" fill="#707176"/><path opacity=".1" d="M52.356 89.87c0 .095-.731.172-1.633.172-.9 0-1.632-.077-1.632-.171 0-.094.731-.171 1.633-.171.9 0 1.632.076 1.632.17Z" fill="#707176"/><path opacity=".1" d="M52.216 89.87c0 .087-.668.157-1.492.157-.825 0-1.493-.07-1.493-.156 0-.087.668-.156 1.492-.156.825 0 1.493.07 1.493.156Z" fill="#707176"/><path opacity=".1" d="M52.041 89.87c0 .077-.59.139-1.317.139-.728 0-1.318-.062-1.318-.138 0-.076.59-.138 1.318-.138.727 0 1.317.061 1.317.138Z" fill="#707176"/><path opacity=".1" d="M51.925 89.87c0 .07-.538.127-1.201.127-.664 0-1.202-.057-1.202-.126 0-.07.538-.126 1.202-.126.663 0 1.201.057 1.201.126Z" fill="#707176"/><path opacity=".1" d="M51.754 89.87c0 .06-.462.109-1.031.109-.57 0-1.032-.049-1.032-.108 0-.06.462-.108 1.032-.108.57 0 1.031.049 1.031.108Z" fill="#707176"/><path opacity=".1" d="M51.572 89.87c0 .05-.38.09-.85.09-.468 0-.849-.04-.849-.09 0-.048.38-.088.85-.088.469 0 .85.04.85.089Z" fill="#707176"/><path opacity=".1" d="M51.31 89.87c0 .034-.263.062-.587.062-.324 0-.587-.028-.587-.061 0-.034.263-.062.587-.062.324 0 .586.028.586.062Z" fill="#707176"/><path opacity=".1" d="M51.12 89.87c0 .024-.178.042-.397.042-.22 0-.398-.018-.398-.041 0-.023.178-.042.398-.042.22 0 .397.019.397.042Z" fill="#707176"/><path d="m27.837 78.24 1.68-2.175c.303.253 1.038.74 2.205 1.459 1.453-.435 2.784-.327 3.994.325a82.7 82.7 0 0 0 2.455 1.135c1.788.373 2.131.836 1.031 1.39-.835.155-1.891-.117-3.166-.815.055.068.415.303 1.078.706 1.169.726 2.064 1.462 3.334 2.56.22.19.393.643.232.886-.114.17-.41.227-.636.225-.157-.002-.336-.14-.468-.218-.507-.298-.918-.664-1.563-1.103-.544-.371-1.135-.766-1.627-1.203.158.115.306.244.46.364.696.545 1.366 1.119 2.042 1.688.33.277.632.576.95.865.154.138.325.269.424.455.089.167.152.542.045.716-.302.493-1.008.114-1.296-.112L34.694 82a.048.048 0 0 1 .01.006c.149.113.293.236.437.356l.92.764c.37.305.732.618 1.096.93.329.28.674.572.97.887.111.117.222.227.34.335.118.107.257.336.274.494.016.145.026.308-.073.426-.185.219-.541.144-.75.012-.244-.156-.474-.335-.707-.504-.324-.232-.646-.467-.968-.7-.34-.248-.68-.494-1.02-.74l-.81-.587-.331-.239c.097.077.186.168.28.249.42.366.824.753 1.247 1.117.202.174.39.367.597.535.23.187.496.421.421.762-.07.316-.462.365-.7.221-.297-.18-.594-.36-.892-.538l-1.518-.915-.773-.467c-1.135-.685-2.247-1.694-2.837-2.973-.29-.63-.979-1.692-2.067-3.19h-.003Zm44.427 1.051c.118 1.403-.352 2.83-1 3.986-.148.263-.297.525-.443.787-.29.515-.58 1.03-.868 1.545l-.512.908c-.136.241-.5.393-.718.153-.233-.259-.116-.595-.009-.87.096-.249.165-.51.255-.76.188-.526.348-1.061.534-1.588.042-.116.073-.24.12-.354l-.17.372c-.14.303-.277.606-.416.91-.174.382-.35.764-.523 1.146l-.496 1.087c-.12.262-.23.531-.367.786-.116.219-.389.459-.658.36-.144-.054-.215-.2-.273-.335-.063-.146-.055-.413-.007-.564.05-.153.093-.303.13-.46.103-.42.26-.845.408-1.252.163-.45.323-.9.494-1.348.142-.373.284-.745.424-1.118.065-.175.13-.354.204-.526l.005-.01-2.084 5.078c-.14.34-.566 1.017-1.072.737-.178-.1-.308-.456-.313-.646-.006-.21.079-.408.143-.604.134-.407.25-.817.4-1.22.308-.828.608-1.659.945-2.475.074-.18.14-.367.22-.544-.213.623-.531 1.258-.822 1.849-.345.7-.52 1.222-.816 1.731-.076.133-.164.342-.299.42-.196.114-.48.211-.665.119-.26-.132-.332-.611-.235-.884.564-1.582.979-2.665 1.637-3.872.379-.678.576-1.06.59-1.146-.766 1.237-1.55 1.994-2.353 2.271-1.23.061-1.16-.512.212-1.718a79.93 79.93 0 0 0 1.575-2.199c.731-1.164 1.836-1.914 3.315-2.253.66-1.202 1.06-1.987 1.197-2.356l3.636 1.524c-.943 1.531-1.385 2.641-1.327 3.331l.002.002Z" fill="#E4A27D"/><path d="M56.175 47.403c-.706 3.679-.118 5.613 1.764 5.802-4.941 3.866-9.294 3.866-13.059 0 1.648-1.227 2.184-2.65 1.609-4.272l9.686-1.53Z" fill="#D08E69"/><path d="M72.28 79.718c-1.279-2.066-3.435-2.472-6.467-1.217l2.714-4.863-6.078-7.013-1.507 12.464H41.711l-1.144-12.47-7.216 7.345.693 3.39c-2.919-.308-4.578.633-4.978 2.823-1.404-.909-2.355-3.154-2.852-6.735l8.158-14.294c1.776-2.934 5.159-4.122 8.023-5.715 1.029-.572 2.055-1.148 3.086-1.715 4.65 4.052 8.83 4.052 12.54 0 1.66.675 3.319 1.35 4.977 2.029 3.05 1.25 5.97 3.267 7.109 6.607l5.128 13.402c-.45 2.14-1.435 4.127-2.953 5.962h-.002Z" fill="#43454B"/><path d="M60.691 41.591c-.59.72-.906 1.54-.948 2.462-.17.404-.387.561-.649.473-1.009 3.102-3.017 5.245-5.34 6.677-1.623 1.275-3.528 1.195-5.714-.238-1.933-1.388-3.925-3.604-5.008-6.509-.31.227-.57.093-.78-.403a4.082 4.082 0 0 0-.947-2.46c-.825-1.652.626-1.75.903-1.755.011-7.189 3.943-11.1 8.79-11.1 4.848 0 8.78 3.911 8.79 11.1.278.004 1.729.103.903 1.754Z" fill="#E4A27D"/><path d="M59.88 39.874c-.287.61-1.614 1.451-1.47 2.244 0 .044 0 .044 0 0-.178-.278.027-1.14 0-1.48-.047-.589-.158-1.13-.294-1.707-.286-1.202-.639-2.28-1.337-3.307-.823-1.212-1.757-2.008-3.37-1.927-.969.049-2.426.283-2.586 1.454-.827-1.965-4.36-1.936-5.53-.31-.687.953-.969 2.023-1.13 3.164-.097.686-.137 1.384-.27 2.058-.08.407-.14 1.244-.365 1.517-.151-.793-.591-1.374-1.32-1.742-1.077-.545-.103-5.845.128-6.633 1.11-3.783 4.418-5.992 8.212-6.393 1.906-.202 3.792-.702 5.741-.562a7.794 7.794 0 0 0-1.226 1.138c1.108-.178 2.156-.526 3.337-.438-.625.459-.338 1.16-.651 1.847 1.372-.083 2.389 1.615 3.096 2.591-.657-.174-1.277-.512-1.93-.7 2.89.83 1.834 7.339.965 9.186Z" fill="#362017"/><path d="M52.21 54.418c1.788.05 3.724-.85 5.81-2.701l1.906.776c-1.542 2.854-4.4 4.027-8.517 4.086h-.132c-2.714-.013-5.39-1.22-8.028-3.624l2.23-1.238c2.581 1.895 4.824 2.795 6.73 2.701Z" fill="#ECECED"/><path d="M67.106 85.095c0 .772-.626 1.397-1.397 1.397H36.188a1.396 1.396 0 0 1-1.397-1.397V63.563c0-.772.625-1.397 1.397-1.397h29.521c.771 0 1.397.625 1.397 1.397v21.532Z" fill="#2C2E35"/><path d="M66.698 63.859v12.045c0 5.485-.61 9.931-1.362 9.931H36.538c-.753 0-1.363-4.446-1.363-9.93V63.858H66.7ZM44.092 87.183H39.63V86.13h4.463v1.053Zm17.384 0h-4.463V86.13h4.463v1.053Z" fill="#85878B"/><path d="M31.506 87.608H70.49c-.359 1.137-.863 1.923-1.512 2.356H35.036c-2.126-.217-3.302-1.002-3.529-2.356Z" fill="#2C2E35"/><path fill-rule="evenodd" clip-rule="evenodd" d="M59.045 42.437c-.563 1.656-1.46 2.505-3.547 2.505-2.088 0-3.149-.564-3.549-2.505a2.675 2.675 0 0 1-.029-1.005c-.294-.212-.796-.427-1.298.018.032.27.02.564-.047.886-.4 1.94-1.46 2.505-3.549 2.505-2.088 0-2.984-.848-3.548-2.505-.636-1.868-.023-3.45 3.757-3.154a6.27 6.27 0 0 1 1.509.294c.174.059.339.126.494.203.766.261 2.36.609 4.37-.04a4.63 4.63 0 0 1 .32-.11 6.457 6.457 0 0 1 1.361-.247c3.78-.294 4.393 1.286 3.756 3.155ZM47.31 39.9c-3.129-.23-3.636 1.003-3.11 2.46.467 1.292 1.21 1.954 2.937 1.954 1.728 0 2.606-.44 2.937-1.953.345-1.578-1.04-2.334-2.764-2.46Zm7.906.101c-1.724.127-3.11.883-2.764 2.46.331 1.515 1.209 1.954 2.937 1.954 1.728 0 2.47-.661 2.937-1.953.526-1.458.02-2.691-3.11-2.46Z" fill="#2C2E35"/><path d="m43.911 41.859-.915.235-.352-2.366h1.458l-.191 2.13Zm14.541-2.13h1.459l-.351 2.366-.916-.235-.192-2.131Z" fill="#2C2E35"/></g><defs><clipPath id="a"><path fill="#fff" transform="translate(.7)" d="M0 0h100v100H0z"/></clipPath></defs></svg>