<svg width="100" height="100" fill="none" xmlns="http://www.w3.org/2000/svg"><g clip-path="url(#a)"><path d="M99.982 99.986H0V.036h99.982v99.95Z" fill="#fff"/><path d="M12.218 83.844C3.058 65.93.928 49.98 5.83 35.994c22.227-63.438 90.741-30.615 84.336 4.038-3.518 19.056 9.562 24.765 2.751 43.852l-80.7-.04Z" fill="#EBF3FA"/><path d="m47.358 48.32.89.289c.942-.31 1.826.087 2.65 1.192.257.41.227.771-.09 1.084-.438.434-.523-.587-1.368-.384-.845.204-1.418-.113-1.793-.627l-.623-.37.334-1.184Z" fill="#FFB27D"/><path d="M65.623 20.262c.005-.154.127-1.834 2.688-1.924-.84.1-1.333.334-1.477.704.572-.457 1.09-.612 1.554-.465.7.222 1.11 1.446 1.115 1.848.005.402-.384 1.698-.826 1.806a1.27 1.27 0 0 1-.538 0c.118.185.23.389.343.614 1.021 2.1-.031 4.147-.898 3.921-.37-.096-.607.172-.71.804l-5.392-4.363c1.322-2.731 2.702-3.713 4.141-2.945Z" fill="#2C3A64"/><path d="M52.556 45.343a9.61 9.61 0 0 1-.939.334c-.248.068-1.436.777-1.685.389-.248-.389.913-1.563 1.157-1.77.162-.14.599-.14 1.31 0l.157 1.047Z" fill="#FFB27D"/><path d="M65.817 69.381c.055-1.084.037-2.028-.094-2.723a43.977 43.977 0 0 1-.438-2.76 43.923 43.923 0 0 1-.235-8.984c.063-.804.144-1.544.24-2.222.327-3.418.677-5.49 1.047-6.215l2.489.655.686 2.19 3.338 1.075.307.1a988.998 988.998 0 0 0-1.928 10.686c-.258 1.446-.48 2.71-.642 3.636-.054.316-.104.592-.14.822l-.135.768c.234.971.275 2.02.162 3.103-.406 4.044-2.267 8.365-5.582 12.963l-1.143-.424c1.213-5.14 1.903-9.364 2.068-12.67Z" fill="#2B478B"/><path d="M65.285 52.692c.33-3.418.682-5.49 1.052-6.215l2.484.655.691 2.19 3.338 1.075.307.1a986.595 986.595 0 0 0-1.928 10.686c-.258 1.446-.48 2.71-.642 3.636-.054.316-.104.592-.14.822L65.05 54.914c.063-.804.144-1.549.235-2.222Z" fill="#233862"/><path d="m67.425 47.855.122-1.07c1.398.37 3.96-.148 7.688-1.555 1.349 1.19 1.936 3.207 1.761 6.053-.13 2.087-.37 10.948-.618 13.568-.086.953-.168 1.626-.2 1.897v.004a.384.384 0 0 0 .06.23c.365.62.668 1.266.916 1.925 1.623 4.324 1.499 9.146-.374 14.467l-.728-.294c-1.066-5.923-2.03-10.192-2.895-12.81-.221-.667-.433-1.187-.628-1.503-.564-.908-1.088-2.398-1.562-4.169-.9-3.347-1.622-7.701-2.105-11.061-.042 0-.521-1.894-1.436-5.682Z" fill="#2B478B"/><path d="M54.331 43.482c1.482-.66 3.564-1.648 3.975-2.1.944-1.048 1.857-4.462 2.922-6.784.094-.214.189-.422.285-.623.01-.014.018-.041.032-.06.054-.094.1-.18.14-.261 0-.005.009-.014.018-.023.198-.383.406-.686.596-.885v-.009c.235-.248.46-.352.669-.266.27.138.544.372.821.7.055.045.086.095.122.149.253.32.493.745.642 1.282.113.407.172.872.149 1.419-.036.894-.479 2.01-1.111 3.134-.027.054-.05.104-.086.158-1.215 2.123-3.076 4.246-4.21 4.937-.745.46-2.615.736-4.196.895-1.047.112-1.973.162-2.353.19a2.753 2.753 0 0 1-.19.008l-.158-1.048a70.266 70.266 0 0 0 1.933-.813Z" fill="#FFB27D"/><path d="M54.286 42.028c1.242-.565 2.67-.09 3.234 2.28.38 1.586 4.043 3.343 2.394 5.764-1.58 1.897-5.38.655-5.059-1.752.321-2.408 1.13-4.418.249-4.801-.735-.32-1.007-.816-.818-1.491Z" fill="#ED7D2B"/><path d="M52.14 48.988c2.607-.375 5.105-.284 5.245 2.584.14 2.868.817 8.265.004 9.327-.542.707-2.232 1.012-5.072.912-1.903-3.243-1.962-7.517-.176-12.823Z" fill="#FFB93E"/><path d="M64.314 31.572v-.005a9.85 9.85 0 0 1 .325-.135c.095-.172-.018-.782-.176-1.414a24.98 24.98 0 0 0-.48-1.653l2.598-1.22.153-.072c.457 1.866 1.247 2.986 1.69 3.212.217-.027.483-.05.74-.068a2.997 2.997 0 0 1 1.234.158c-.15 2.096-.962 5.248-4.562 5.05-.962-.05-1.753-.258-2.412-.565a17.64 17.64 0 0 1 .89-3.288Z" fill="#FFB27D"/><path d="M66.581 27.145c-.14.854-.6 2.448-2.118 2.873a24.938 24.938 0 0 0-.48-1.653l2.598-1.22Z" fill="#ED985F"/><path d="M61.355 24.937c-.005-.8.235-1.77 2.575-2.209 2.34-.443 2.249 1.183 2.809 3.437.37 1.503-.655 2.534-3.076 3.094-.957.158-2.303-3.527-2.308-4.322Z" fill="#FFB27D"/><path d="M61.152 23.659c.388-.818.849-.773 1.138-.628 1.135-1.054 2.261-1.15 3.378-.29.428 1.037 1.107 1.767 2.038 2.191-.37.38-1.095.566-2.173.56-.492-.004-.99-.235-1.44-.546a7.627 7.627 0 0 0 1.892 1.413c-2.024-.388-3.383-2.728-3.523-2.98-.168.257-.497.794-.524 1.25-.041.615.176 1.816-.181 1.861-.795-1.071-.997-2.015-.605-2.831Z" fill="#2C3A64"/><path d="M61.22 34.598c.087-.262.421-.902 1.002-1.92.005-.004.556-.51 2.092-1.11v.004c-.028.086-.683 2.461-.443 2.967.244.515 4.842-1.147 5.095-1.526.199-.307.208-1.915.199-2.543v-.253c1.144-.154 2.038-.101 2.682.158a6.477 6.477 0 0 0-.523 1.743 7.79 7.79 0 0 0-.032.262 3.703 3.703 0 0 0-.014.547c.014.235.136.447.33.65.18.19.42.375.691.574l.57.41c.017 1.076-.06 2.846.14 4.734a3.211 3.211 0 0 0 .799 1.798c1.016 1.138 2.814 3.406 2.416 4.815-.027 1.332-11.251 3.08-11.012 1.621-1.126-5.42-1.992-8.785-2.597-10.095a2.143 2.143 0 0 1-.09-.212c-.294-.777-.244-1.572-.145-2.285a1.826 1.826 0 0 0-1.165-.339h.004Z" fill="#F99746"/><path d="M71.612 33.582c.177.185.416.375.692.573.176.127.37.262.564.411.018 1.075-.058 2.841.14 4.73.054.478.213.934.46 1.34-1.146 1.84-3.02 4.138-5.234 4.16-2.999.032 1.563-8.152 3.374-11.214h.004Z" fill="#ED7D2B"/><path d="M60.89 45.447c.38-.208.84-.46 1.323-.736 1.17-.66 2.512-1.463 3.433-2.132.528-.38.926-.718 1.066-.962.217-.37.456-.962.727-1.69.136-.379.285-.794.434-1.237.257-.727.519-1.517.785-2.303.484-1.441 1.008-2.886 1.5-4.002.32-.705.632-1.283.926-1.64.235-.284.46-.433.677-.397l.086.027c.831.229 1.253 1.182 1.265 2.859.009.136 0 .285-.009.438-.018.443-.104.98-.235 1.572-.208.985-.555 2.127-.985 3.288-.121.312-.243.632-.374.953-.935 2.322-2.141 4.49-3.153 5.226a.998.998 0 0 1-.122.086c-.425.27-1.048.537-1.766.79-1.025.343-2.236.655-3.32.917h-.009a107.018 107.018 0 0 1-1.983.425c-.403.075-.733.135-.989.18l-.303-1.106c.272-.145.613-.33 1.026-.556Z" fill="#FFB27D"/><path d="M71.847 30.375c.831.232 1.255 1.183 1.27 2.855-.859-.87-1.843-1.152-2.954-.845.6-1.346 1.178-2.218 1.684-2.01Z" fill="#F99746"/><path d="M74.715 82.706c.344-.244.9-1.13 1.003-1.297.831.113 1.427-.311 1.798-.686-.109.772.343 1.061.632 1.703.199.445.253.96.163 1.544h-5.768c.117-1.088 1.798-.993 2.172-1.264Zm-12.38 0c.334-.24 1.396-1.441 1.644-1.726.267.154.57.285.858.303.37.018.71-.077.971-.185-.248.46-.379.772-.04 1.328.25.418.304.933.162 1.544h-5.767c.117-1.088 1.797-.993 2.172-1.264Z" fill="#233862"/><path d="M52.317 61.811c1.88.727-.158 9.025.059 11.04.147 1.34-.39 4.407-1.613 9.204l-1.468.176c.181-1.355-.504-7.526-2.055-18.514 2.13-1.758 3.821-2.394 5.077-1.906Z" fill="#F0995E"/><path d="M54.3 61.522c1.924.61.397 9.015.745 11.012.229 1.33-.126 4.468-1.066 9.413l-1.454.334c.096-1.364-.96-7.544-3.17-18.541 2.017-1.888 3.665-2.627 4.945-2.218Z" fill="#FFB27D"/><path d="M50.212 82.023c.118-.02.332-.12.642-.298.352.293.537.601.555.926.014.226.041.515.068.764a.486.486 0 0 1-.479.537l-3.374.018a.388.388 0 0 1-.316-.619c.221-.307.578-.523.994-.618.442-.1.78-.363 1.012-.79.34.099.64.126.898.08Z" fill="#2C3A64"/><path d="M53.383 82.023c.12-.02.334-.12.642-.298.352.293.537.601.555.926.014.226.04.515.068.764a.486.486 0 0 1-.479.537l-3.374.018a.388.388 0 0 1-.316-.619c.221-.307.578-.523.998-.618.44-.1.777-.363 1.012-.79.337.099.635.126.894.08Z" fill="#35488B"/><path d="M47.53 56.621c-.29.678-.793.533-1.51-.433.299-2.018 1.183-4.265 2.652-6.744 2.426.723-.704 6.161-1.143 7.177Z" fill="#FFB27D"/><path d="M49.092 42.846c.023-.041 1.007-1.6 2.855-1.911 1.49-.253 2.89.804 3.12 2.299.231 1.509-.004 3.455-2.46 4.16l-3.515-4.548Z" fill="#ED7D2B"/><path d="M50.176 48.59c.127-.437.136-.903.122-1.25a3.857 3.857 0 0 0-.063-.542l2.416-1.048a7.912 7.912 0 0 0-.045 1.644c.063.759.212 1.376.447 1.852l-.731 1.956-2.778-1.654c.33-.235.524-.587.632-.957Z" fill="#FFB27D"/><path d="M56.193 70.718c-.755.723-6.324 2.209-9.463 1.138-.483-.162.117-13.066.637-18.78-.346-.193-.554-.498-.623-.917l1.056-1.807c.043-.084.09-.164.14-.24l.014-.017c.33-.474.845-.809 1.45-.894.153-.019.32-.01.506-.028-.04.416.104.768.822.908.953.19 1.856-.415 2.321-.835.75.158 1.184.216 1.78.465a1.56 1.56 0 0 1 .944 1.649l-.18 1.323-.57 4.214a5.39 5.39 0 0 0 .01 1.594c.243 1.604.632 5.506.889 8.474.185 2.091.303 3.717.267 3.753Z" fill="#2C3A64"/><path d="M49.07 49.548c-1.627 1.306-2.173 4.585-1.96 6.82.406-1.016.379-2.52.776-4.114a6.453 6.453 0 0 1 1.454-2.764c-.027 0-.117.02-.27.058Z" fill="#FFB93E"/><path d="m50.294 47.34 2.312.054c-.732.831-1.541 1.23-2.43 1.197.127-.438.136-.904.118-1.251Z" fill="#ED985F"/><path d="M49.264 43.5c.361-.704 1.45-1.323 3.234-.989.894.172 1.87 1.897.736 4.115-.699 1.367-1.918 1.762-3.659 1.183-1.44-.47-.672-3.604-.311-4.308Z" fill="#FFB27D"/><path d="M50.705 46.685c-.085.177-.357.2-.818.067-.385-.108-.55-.265-.492-.47.412-.063.849.072 1.31.403Z" fill="#fff"/><path d="M55.926 66.965c-.081-.095-5.361-6.256-5.551-9.53-.13-2.205.753-4.11 2.647-5.719 1.134-.076 1.97.294 2.574.967l-.569 4.214a5.711 5.711 0 0 0 .01 1.595c.243 1.603.632 5.505.889 8.473Z" fill="#232E4F"/><path d="M55.46 50.023c-1.327-.475-1.508.18-2.407 1.946-.898 1.766-1.549 5.267 2.335 7.742.148.485.125.836-.067 1.052-1.765-.75-2.935-1.913-3.51-3.491-1.156-3.189-.478-7.353 2.042-7.936.96-.036 1.496.193 1.608.687Z" fill="#FFB93E"/><path d="M48.84 44.955c-.115-.184-.096-.71.058-1.576.226-1.306 2.127-2.196 4.056-1.446 1.929.745 1.45 4.485.528 4.138-1.55-.579-2.243-1.684-2.077-3.316-1.108-.19-1.964.544-2.566 2.2Z" fill="#ED7D2B"/><path d="M55.343 50.407c.804 1.273-1.201 5.546-1.766 6.86-.38.877-1.546 2.357-3.5 4.44-.654-.265-.934-.493-.84-.686.09-.193.914-1.65 2.47-4.372.03-1.117.4-3.08 1.107-5.886 1.15-1.087 1.993-1.206 2.53-.356Zm-8.455 6.173c.587.453 1.382 3.65 1.454 3.858.049.139-.114.432-.487.88-1.361-1.505-1.971-3.215-1.83-5.13.187-.042.475.089.863.393Z" fill="#FFB27D"/><path d="M50.077 61.707c.018.142-.292.324-.93.547-.958.334-1.365-.628-1.292-.935.048-.205.508-.304 1.382-.298l.84.686Z" fill="#FFB27D"/><path d="M48.342 60.438c.699.325.93.66.691 1.003-.356.52-1.066.208-1.178-.122-.073-.22.09-.514.487-.88Z" fill="#FFB27D"/><path d="M54.9 49.919c1.115.3 1.324 1.681.629 4.142-1.407.132-2.568-.226-3.483-1.075-.194-1.333 1.188-3.519 2.855-3.067Z" fill="#2C3A64"/><path d="M39.45 33.189c.577 2.114 1.914 8.469 2.411 9.065.37.449 2.385 2.498 6.043 6.147.211.696.07 1.236-.424 1.622-6.592-2.982-9.783-5.413-9.576-7.295.669-6.02-.05-10.678-2.159-13.975 1.807.53 3.042 2.009 3.704 4.436ZM21.608 78.46l1.798.415c.087.835.113 1.563.076 2.186-.05.935.267 1.943 1.111 2.123.564.124.73.386.497.786h-2.267c-.474 0-1.003-.465-1.134-1.323-.13-.858-1.106-1.328-1.319-2.028-.141-.467.15-1.03.872-1.69l.37-.47h-.004Zm15.312 2.633c.289 1.274 2.005 1.847 2.98 2.001.654.105.98.391.98.858l-6.083.014c-.316-.157-.41-.985-.28-2.484 1.409-1.109 2.21-1.238 2.403-.389Z" fill="#233862"/><path d="M39.652 49.734c-.214 2.625-.447 5.516-.7 8.672-.51 6.436-1.129 14.34-1.188 15.835-.069 1.735-.245 3.987-.528 6.757-.669.66-1.671.85-3.008.574a58.753 58.753 0 0 1-2.3-12.218l-.027-.311c-.316-4.261-.72-10.88-1.21-19.856l8.961.542v.005Z" fill="#FFB93E"/><path d="M39.652 49.734c-.214 2.625-.447 5.516-.7 8.672L31.93 69.354a9.84 9.84 0 0 1-.023-.311c-.32-4.261-.724-10.88-1.215-19.856l8.961.542v.005Z" fill="#E3A330"/><path d="M38.189 50.199c-3.854 9.512-7.05 16.504-9.585 20.975-2.532 4.472-4.194 7.331-4.986 8.578-1.454-.572-2.248-1.053-2.38-1.441.97-8.63 2.303-13.998 4.001-16.102 1.437-1.784 3.126-7.137 3.207-9.007.054-1.25.226-3.109.515-5.578l9.223 2.575h.005Z" fill="#FFB93E"/><path d="m32.547 23.469 1.432 1.138 1.509 1.188c0 .289-.032.69-.095 1.201-.036.335-.095.728-.172 1.18.648.346 1.157.752 1.527 1.219-1.506.466-3.562.072-6.17-1.184 1.388-1.032 2.045-2.613 1.97-4.742Z" fill="#FFB27D"/><path d="M39.9 50.059a.367.367 0 0 1-.239.09c-.849-.014-3.32.452-5.406.24-1.77-.172-3.334-.683-5.005-1.414-.226-.104-.74-.38-.731-.615.009-.275.036-.659.072-1.156.068-.976.167-2.362.199-4.002.022-1.22.009-2.579-.082-4.015a37.023 37.023 0 0 1-.05-1.87c-.008-1.676.113-3.27.353-4.697.429-2.475 1.22-4.431 2.398-5.294.154-.117 1.134.366 2.037.8.822.402 1.649.447 2.426.293l.781.682c.949.863 1.988 2.05 2.448 3.844.38 1.517.605 4.268.727 7.123.06 1.296.104 2.592.122 3.83v.045c.01.127.01.258.01.384.04 3.17 0 5.687-.064 5.732h.005Z" fill="#2B478B"/><path d="m33.98 24.607 1.508 1.188c0 .289-.032.69-.095 1.201-1.253-.334-2.209-1.102-2.868-2.303l1.454-.086Z" fill="#ED985F"/><path d="M36.179 25.74c-2.487.407-3.848-.154-4.083-1.684-.352-2.294-1.066-3.758 1.3-4.246 2.367-.487 2.964.321 3.27 1.057.308.741.475 4.657-.487 4.874Z" fill="#FFB27D"/><path d="M30.74 19.535c-.035-.036-.112-.068-.288-.077a.615.615 0 0 1 .325-.095c.036-.24.167-.668.583-.772a.46.46 0 0 0-.253.375c.483-.493 1.513-.854 4.376-.628 3.767.298 2.525 2.71 2.037 2.999-.487.285-1.716-.501-2.624-.43-.912.073-1.084 1.387-1.391 1.568-.307.176-.185-.14-.605-.33-.416-.19-.456.506-.334.954.078.3-.074.648-.457 1.043l-.578-.623c-.578-.624-1.124-3.27-.862-3.83l.072-.154Z" fill="#ED7D2B"/><path d="M48.65 48.785c.316-.141.57-.11.763.095.284.307.948.52.894.682-.122.33-.736-.045-1.387.158-.225.072-.93-.366-.27-.935Z" fill="#FFB27D"/><path d="M28.79 43.202a51.563 51.563 0 0 0-.095-4.309c.357-1.757.894-3.315 1.684-3.364 1.57 2.463 1.04 5.02-1.59 7.673Z" fill="#233862"/><path d="M26.942 49.453c.298.669 1.143 1.446 1.134 1.762-.005.312.04 1.174-.131 1.152-.172-.023-.416-.98-.492-.642-.082.34.546 2.082.158 1.857-.393-.226-1.306-1.378-1.523-1.74-.144-.24-.281-.996-.41-2.267.647-.527 1.069-.567 1.264-.122Z" fill="#FFB27D"/><path d="M33.148 32.33c.705 1.78-5.542 10.114-5.736 10.534-.13.28-.092 2.595.113 6.946-.265.521-.912.815-1.942.88-1.015-4.233-1.51-6.65-1.486-7.248.036-.9 2.073-10.615 3.83-13.284.753-1.144 1.916-2.09 3.491-2.836.687 2.152 1.263 3.822 1.73 5.009Z" fill="#2B478B"/><path d="M55.88 46.522c.961-.69 1.726-.966 2.295-.831.764.172 2.394-.176 2.715-.244a.276.276 0 0 0 .059-.018l.492 1.44c-.07.016-.164.035-.285.06-.46.112-1.404.352-2.294.7-1.247.497-2.028-.321-2.584-.556-.37-.147-.503-.331-.397-.55Z" fill="#FFB27D"/><path d="M96.418 84.372H2.444c-.082 0-.15-.059-.15-.135v-.176c0-.077.068-.14.15-.14h93.974c.081 0 .15.063.15.14v.176c0 .076-.069.135-.15.135Z" fill="#2E3552"/><path d="M54.584 17.326v2.877c0 1.003-.817 1.82-1.815 1.82h-6.82l-2.607 1.441.452-2.064a1.796 1.796 0 0 1-.452-1.197v-2.877c0-1.003.818-1.82 1.816-1.82h7.61c.999 0 1.816.817 1.816 1.82Z" fill="#D2E3FC"/><path d="M52.909 17.701h-7.886a.297.297 0 0 1-.299-.294.3.3 0 0 1 .299-.298h7.886a.3.3 0 0 1 .298.298.3.3 0 0 1-.298.294Zm0 1.292h-7.886a.297.297 0 0 1-.299-.294.3.3 0 0 1 .299-.298h7.886a.3.3 0 0 1 .298.298.297.297 0 0 1-.298.294Zm0 1.242h-7.886a.297.297 0 0 1-.299-.294c0-.162.136-.293.299-.293h7.886c.162 0 .298.13.298.293a.297.297 0 0 1-.298.294Z" fill="#B7D3F3"/></g><defs><clipPath id="a"><path fill="#fff" d="M0 0h100v100H0z"/></clipPath></defs></svg>