<svg width="100" height="100" fill="none" xmlns="http://www.w3.org/2000/svg"><g clip-path="url(#a)"><path d="M0 0h100v100H0V0Z" fill="#fff"/><path d="M99.678 63.775h-110.71V.221h110.71v63.554Z" fill="#263238"/><path fill-rule="evenodd" clip-rule="evenodd" d="M99.89 63.987H-11.243V.01H99.889v63.978Zm-110.719-.414H99.466V.433H-10.83v63.14Z" fill="#263238"/><path d="M97.864 61.593H-8.573V1.989H97.864v59.604Z" fill="#455A64"/><path fill-rule="evenodd" clip-rule="evenodd" d="M98.076 61.805H-8.784V1.786h106.86v60.019ZM-8.37 61.38H97.66V2.201H-8.37v59.18Z" fill="#263238"/><path d="M101.722 63.775H-13.14v-2.854h114.862v2.854Z" fill="#263238"/><path fill-rule="evenodd" clip-rule="evenodd" d="M101.934 63.987H-13.352V60.71h115.286v3.278Zm-114.871-.414h114.456v-2.44H-12.937v2.44Z" fill="#263238"/><path d="M17.762 13.214c0 .064-3.701.11-8.26.11-4.557 0-8.25-.046-8.25-.11 0-.056 3.693-.11 8.25-.11 4.559 0 8.26.054 8.26.11Zm0 1.731c0 .055-3.701.11-8.26.11-4.557 0-8.25-.055-8.25-.11 0-.065 3.693-.11 8.25-.11 4.559 0 8.26.045 8.26.11ZM6.75 10.147c0 .065-1.234.11-2.754.11-1.519 0-2.744-.045-2.744-.11 0-.055 1.225-.11 2.744-.11 1.52 0 2.754.055 2.754.11Zm31.74 30.341c0 .046-8.72.074-19.475.074-10.765 0-19.475-.028-19.475-.074 0-.037 8.71-.064 19.475-.064 10.755 0 19.475.027 19.475.064Z" fill="#fff"/><path d="M15.249 57.247c-.037 0-.074-8.297-.074-18.527s.037-18.527.074-18.527c.046 0 .073 8.297.073 18.527s-.027 18.527-.073 18.527Z" fill="#fff"/><path d="M28.683 22.79c.01 0-.046.184-.175.516-.138.322-.359.8-.644 1.409a180.537 180.537 0 0 1-2.588 5.092 332.44 332.44 0 0 1-4.005 7.44 107.117 107.117 0 0 1-1.86 3.223c-.117.178-.23.359-.341.543l-.203.276-.1.138-.12.13c-.627.644-1.419 1.169-2.33 1.417a3.65 3.65 0 0 1-1.418.11 3.571 3.571 0 0 1-1.363-.46c-.838-.497-1.464-1.215-2.026-1.915a21.73 21.73 0 0 1-1.547-2.173c-.93-1.473-1.685-2.983-2.33-4.438-.644-1.465-1.187-2.883-1.694-4.2a190.773 190.773 0 0 1-1.363-3.7 104.155 104.155 0 0 1-1.758-5.434c-.184-.644-.313-1.15-.405-1.491-.083-.35-.12-.535-.102-.535.019 0 .083.175.194.507.11.34.267.838.478 1.473a135.94 135.94 0 0 0 1.879 5.378A307.8 307.8 0 0 0 6.27 29.77c.525 1.317 1.077 2.716 1.73 4.162a34.22 34.22 0 0 0 2.321 4.383c.46.727.967 1.436 1.52 2.127.552.69 1.15 1.363 1.906 1.805a3.121 3.121 0 0 0 2.458.313c.82-.221 1.556-.7 2.137-1.299l.11-.11.083-.12.184-.248c.11-.178.224-.356.34-.534.222-.36.434-.719.645-1.078.415-.718.83-1.418 1.216-2.118a466.356 466.356 0 0 0 4.088-7.394 405.565 405.565 0 0 0 2.698-5.018c.313-.59.553-1.05.718-1.372.157-.313.24-.479.258-.479Z" fill="#fff"/><path d="M15.147 36.906c0 .037-.35.065-.773.065-.433 0-.774-.028-.774-.074 0-.037.341-.065.774-.065.423 0 .773.028.773.065v.01Zm0-3.987c0 .037-.35.064-.773.064-.433 0-.774-.027-.774-.064 0-.046.341-.074.774-.074.423 0 .773.028.773.074Zm0-3.987c0 .037-.35.074-.773.074-.433-.01-.774-.037-.774-.074 0-.046.341-.074.774-.074.423 0 .773.028.773.074Zm0-3.987c0 .037-.35.073-.773.073-.433 0-.774-.036-.774-.073s.341-.074.774-.074c.423 0 .773.037.773.074Zm0 26.095c0 .047-.35.074-.773.074-.433 0-.774-.027-.774-.073 0-.037.341-.065.774-.065.423 0 .773.028.773.065Zm0-3.987c0 .047-.35.074-.773.074-.433 0-.774-.028-.774-.074 0-.036.341-.064.774-.064.423 0 .773.028.773.064Zm0-3.978c0 .037-.35.065-.773.065-.433 0-.774-.028-.774-.074 0-.037.341-.064.774-.064.423 0 .773.027.773.064v.01Zm-2.688-2.228c.046 0 .073.34.073.774 0 .423-.027.773-.073.773-.037 0-.074-.35-.074-.773.01-.433.037-.774.074-.774Zm-3.988 0c.046 0 .074.34.074.774 0 .423-.028.773-.074.773-.036 0-.064-.35-.064-.773 0-.433.028-.774.064-.774Zm-3.977 0c.036 0 .064.34.064.774 0 .423-.028.773-.064.773-.046 0-.074-.35-.074-.773 0-.433.028-.774.074-.774Zm-3.988 0c.037 0 .074.34.074.774-.01.423-.037.773-.074.773-.046 0-.073-.35-.073-.773 0-.433.027-.774.073-.774Zm30.084 0c.036 0 .073.34.073.774 0 .423-.037.773-.074.773s-.073-.35-.073-.773c0-.433.037-.774.073-.774Zm4.115 0c.037 0 .065.34.065.774 0 .423-.028.773-.065.773-.046 0-.073-.35-.073-.773 0-.433.027-.774.073-.774Zm-8.103 0c.037 0 .074.34.074.774 0 .423-.037.773-.074.773s-.073-.35-.073-.773c0-.433.036-.774.073-.774Zm-3.987 0c.046 0 .074.34.074.774 0 .423-.028.773-.074.773-.037 0-.074-.35-.074-.773 0-.433.037-.774.074-.774Zm-3.987 0c.046 0 .074.34.074.774 0 .423-.028.773-.074.773-.037 0-.074-.35-.074-.773.01-.433.037-.774.074-.774Zm-2.182-19.088c-.019.009-.166-.184-.396-.516-.23-.331-.534-.792-.866-1.307l-.009-.01.129-.009a82.46 82.46 0 0 1-.764 1.363c-.203.34-.332.552-.35.543-.019-.009.083-.24.267-.59.175-.358.432-.846.718-1.38l.055-.11.074.1v.019c.331.506.626.985.829 1.326.211.34.331.562.313.57ZM37.191 41.62c-.009-.018.194-.165.516-.395.332-.23.792-.534 1.308-.866l.018-.01v.13a53.41 53.41 0 0 1-1.354-.764c-.35-.203-.552-.332-.543-.35.01-.019.23.082.59.258.359.184.837.442 1.38.727l.102.055-.101.065-.01.009a37.57 37.57 0 0 1-1.335.829c-.34.211-.561.322-.57.313ZM85 32.56v-.065a1.633 1.633 0 0 1-.01-.193v-.727c-.008-.645-.008-1.575-.018-2.754-.009-2.366-.018-5.745-.027-9.788l.055.055c-3.932 0-8.573 0-13.527.01l.065-.065c0 4.954-.01 9.595-.01 13.527l-.055-.055c4.043.009 7.422.018 9.788.027 1.18.01 2.118.01 2.754.019h.727c.08.006.144.009.194.009H85h-.239c-.172.006-.412.01-.719.01-.644.008-1.565.008-2.744.017-2.375 0-5.764.019-9.825.028h-.055v-.055c0-3.932-.01-8.573-.01-13.527v-.064h.065c4.954 0 9.595 0 13.527.009h.055v.055c-.009 4.06-.018 7.44-.027 9.816-.01 1.179-.01 2.109-.01 2.744a40.37 40.37 0 0 0-.009.718v.184L85 32.56Z" fill="#fff"/><path d="M85 32.56a.623.623 0 0 1 .101-.074 7.14 7.14 0 0 1 .313-.193c.277-.184.682-.433 1.197-.755 1.05-.654 2.551-1.593 4.402-2.744l-.019.037c-.009-3.527-.009-8.205-.018-13.325l.064.065h-.036c-5.12-.01-9.798-.01-13.334-.018h.019c-1.906 1.068-3.453 1.942-4.54 2.55-.534.304-.948.534-1.243.69-.135.08-.242.142-.322.185l-.11.055.1-.074c.08-.043.188-.104.323-.184.285-.165.7-.405 1.224-.718 1.078-.617 2.625-1.5 4.522-2.597h.027c3.536-.009 8.214-.009 13.334-.018h.101v.064c-.01 5.12-.01 9.789-.018 13.325v.027l-.019.01c-1.86 1.141-3.38 2.062-4.429 2.707-.525.322-.93.561-1.215.736a73.657 73.657 0 0 1-.424.249Z" fill="#fff"/><path d="M91.04 15.507c.019.027-1.325.847-2.992 1.823-1.667.967-3.03 1.73-3.048 1.703-.018-.027 1.317-.847 2.983-1.823 1.667-.967 3.04-1.731 3.057-1.704Zm-18.931 16.5c.018.028-.11.139-.286.24-.175.101-.331.156-.35.129-.018-.037.11-.138.286-.249.175-.101.331-.157.35-.129v.01Zm1.289-.737c.018.028-.11.139-.295.24-.175.101-.331.157-.35.129-.018-.037.11-.138.286-.24.184-.1.34-.165.359-.128Zm1.28-.736c.018.028-.11.138-.286.24-.175.1-.34.156-.359.128-.009-.036.12-.138.295-.239.175-.101.331-.166.35-.129Zm1.289-.737c.018.028-.12.139-.295.24-.175.101-.331.156-.35.129-.018-.037.11-.138.286-.249.175-.101.34-.156.359-.129v.01Zm1.28-.737c.018.028-.11.139-.286.24-.184.101-.34.157-.359.13-.018-.038.11-.139.295-.24.175-.102.331-.166.35-.13Zm.323-1.298c.036 0 .064.166.064.369 0 .202-.028.368-.065.368-.037 0-.064-.166-.064-.368 0-.203.027-.369.064-.369Zm.018-1.482c.027 0 .055.166.055.368 0 .203-.028.369-.065.369-.037 0-.064-.166-.064-.369 0-.202.037-.368.074-.368Zm.009-1.483c.037 0 .064.166.055.369 0 .212-.028.377-.064.377-.037 0-.065-.165-.065-.377.01-.203.037-.369.074-.369Zm.009-1.473c.037 0 .064.166.064.368 0 .203-.037.369-.073.369-.028 0-.056-.166-.056-.369 0-.211.028-.377.065-.368Zm.009-1.482c.037 0 .065.165.065.368 0 .203-.028.368-.065.368-.037 0-.064-.165-.064-.368 0-.203.027-.368.064-.368Zm.018-1.482c.028 0 .056.165.056.367 0 .212-.028.369-.065.369-.036 0-.064-.166-.064-.369 0-.202.037-.368.073-.368Zm.01-1.483c.037 0 .064.165.064.377-.009.203-.037.368-.073.368-.037 0-.056-.165-.056-.368 0-.212.028-.377.065-.377Zm.009-1.474c.037 0 .064.166.064.369 0 .202-.036.368-.073.368-.028 0-.055-.166-.055-.368 0-.203.027-.369.064-.369Zm.009-1.483c.037 0 .065.167.065.37 0 .202-.028.367-.065.367-.037 0-.064-.165-.064-.368 0-.202.037-.368.064-.368Zm12.634 12.91c0-.036.165-.064.377-.064.203 0 .368.028.368.065 0 .036-.165.064-.368.064-.212 0-.377-.028-.377-.064Zm-1.474 0c0-.036.166-.064.369-.064.202 0 .368.028.368.065 0 .036-.166.064-.368.064-.203 0-.369-.028-.369-.064Zm-1.482 0c0-.036.166-.064.368-.064.212 0 .369.028.369.065 0 .036-.166.064-.369.064-.202 0-.368-.028-.368-.064Zm-1.483 0c0-.036.166-.064.369-.064.212 0 .377.028.377.065 0 .036-.166.064-.377.064-.203 0-.369-.028-.369-.064Zm-1.473 0c0-.036.166-.064.368-.064.203 0 .369.028.369.065 0 .036-.166.064-.369.064-.202 0-.368-.028-.368-.064Zm-1.483 0c0-.036.166-.064.369-.064.203 0 .368.028.368.065 0 .036-.165.064-.368.064-.203 0-.368-.028-.368-.064Zm-1.482 0c0-.036.166-.064.368-.064.212 0 .378.028.378.065 0 .036-.166.064-.378.064-.202 0-.368-.028-.368-.064Zm-1.482 0c0-.036.165-.064.377-.064.203 0 .368.028.368.065 0 .036-.165.064-.368.064-.212 0-.377-.028-.377-.064Zm-1.474 0c0-.036.166-.064.369-.064.202 0 .368.028.368.065 0 .036-.166.064-.368.064-.203 0-.369-.028-.369-.064Zm-.902 0c0-.036.037-.064.083-.064.046 0 .073.028.073.065 0 .036-.027.064-.073.064s-.083-.028-.083-.064Zm15.12-4.502c0-.019.12.027.331-.019.212-.036.525-.193.71-.524.174-.341.192-.848-.047-1.29a.37.37 0 0 0-.258-.211.444.444 0 0 0-.35.092c-.202.156-.322.442-.423.718a3.34 3.34 0 0 0-.194.912h-.129c-.009-.977-.018-1.833-.018-2.44v-.719c.01-.175.01-.267.018-.267.01 0 .019.092.028.267.012.19.025.427.037.71.018.616.037 1.463.064 2.449h-.129a3.54 3.54 0 0 1 .194-.958c.055-.147.117-.289.184-.424a1.07 1.07 0 0 1 .295-.35.592.592 0 0 1 .442-.12.524.524 0 0 1 .34.277c.258.488.221 1.031.019 1.39a1.065 1.065 0 0 1-.774.534.787.787 0 0 1-.257 0c-.056-.018-.083-.027-.083-.036v.009ZM86.123 13.96a.193.193 0 0 1-.036.055.386.386 0 0 1-.13.092.447.447 0 0 1-.257.055.48.48 0 0 1-.34-.138 1.076 1.076 0 0 1-.222-.378 5.232 5.232 0 0 1-.156-.47 5.364 5.364 0 0 1-.184-1.169l.12-.009c.036.47.1 1.004-.047 1.547-.083.295-.212.599-.479.783a.565.565 0 0 1-.45.101c-.157-.027-.277-.147-.35-.267-.268-.506-.167-1.05.027-1.409a1.52 1.52 0 0 1 .7-.653c.1-.047.193-.065.248-.083.062-.013.092-.016.092-.01 0 .01-.12.037-.313.139-.193.1-.47.303-.644.653a1.38 1.38 0 0 0-.166.608c-.01.221.028.479.156.69.065.102.157.194.277.212a.468.468 0 0 0 .359-.082c.212-.148.34-.433.423-.719.13-.506.083-1.031.046-1.5h.12c.019.414.083.8.166 1.141.043.166.092.323.147.47.046.138.102.267.184.359a.472.472 0 0 0 .525.092c.13-.046.175-.11.184-.101v-.01Z" fill="#fff"/><path d="m65.728 64.963-.175 6.658-1.971 20.672c.417 6.71.761 11.958 1.031 15.746.227 3.29.01 7.79-.654 13.499l-8.305-.221-2.229-28.674-1.38-17.892-2.736-9.097 16.419-.69Z" fill="#263238"/><path d="m45.147 65.829 9.208-.378 3.463 52.229-5 1.077-.35-1.317-7.137-19.89a11.16 11.16 0 0 1-.663-4.042l.498-27.384-.019-.295Z" fill="#263238"/><path d="M52.164 71.381a9 9 0 0 0 .01.378c.008.35.017.838.036 1.464.018 1.27.074 3.112.147 5.387.157 4.54.48 10.81 1.032 17.716.534 6.906 1.15 13.149 1.583 17.67.221 2.256.396 4.079.516 5.359.055.627.101 1.115.129 1.455l.028.378.009.129c-.006 0-.016-.043-.028-.129a8.349 8.349 0 0 0-.037-.378c-.036-.34-.092-.828-.165-1.445-.13-1.28-.323-3.104-.562-5.35-.46-4.521-1.087-10.765-1.63-17.67-.543-6.916-.856-13.187-.985-17.735a258.685 258.685 0 0 1-.102-5.378v-1.851l.01-.129c.006 0 .009.043.009.13Zm-.009-4.07c.24.01.423.203.414.442a.425.425 0 1 1-.847-.028c0-.23.203-.414.433-.414Zm-6.658 3.011c.313-.377.7-.93 1.032-1.602a8.249 8.249 0 0 0 .598-1.814c.101-.479.12-.783.147-.783.019 0 .037.313-.036.801a6.942 6.942 0 0 1-.571 1.86 6.595 6.595 0 0 1-1.087 1.603c-.34.368-.59.552-.608.534-.009-.019.212-.23.525-.599Zm14.254-2.578a5.653 5.653 0 0 0 1.566 2.182 5.65 5.65 0 0 0 2.403 1.188c.681.147 1.124.13 1.124.157 0 .009-.111.027-.314.027a5.298 5.298 0 0 1-3.315-1.252 5.312 5.312 0 0 1-1.565-2.265 5.234 5.234 0 0 1-.22-.801c-.029-.203-.029-.304-.02-.313.028 0 .084.433.341 1.077Z" fill="#455A64"/><path d="M45.147 65.829c.037 0 .028 2.624-.027 5.865-.046 3.25-.13 5.875-.166 5.875-.037 0-.028-2.633.028-5.875.046-3.24.12-5.865.165-5.865Zm20.369 5.156c-.019 0-.01-.35.018-.911.028-.562.055-1.345.083-2.201.018-.856.018-1.64.018-2.2 0-.563 0-.912.019-.912.018 0 .055.34.083.911.027.562.037 1.345.018 2.2a30.1 30.1 0 0 1-.12 2.202c-.046.57-.1.911-.12.911Z" fill="#455A64"/><path d="m26.52 29.08-.544-.728c-.19-.4-.24-.688-.147-.866.086-.178.273-.215.561-.11l2.164 2.43-.764.627-1.16-1.27" fill="#fff"/><path d="m39.116 39.632-2.265 3.232c-3.033-3.383-4.709-5.261-5.028-5.636l-1.63-1.943c-.89-.76-1.464-1.255-1.722-1.482-.386-.331-.736-1.27-.791-1.427-.037-.105-.224-.451-.562-1.04l-.101-.719c-.083-.553-.691-1.151-.387-1.455.294-.304 1.068.322 1.344.82.19.331.51.788.958 1.372.123-.086.23-.24.322-.46.092-.228.104-.605.037-1.133l-.36-1.087a4.751 4.751 0 0 1-1.205.157c-.4.006-.71-.185-.93-.571l1.362-.663c.933-.05 1.55-.031 1.851.055.301.086.519.457.654 1.114l.59.11c.211.13.81 1.446.828 1.686l.663 2.31c.037.406.405 1.023.82 1.189.276.11.497.39.663.838l4.364 3.545.525 1.188Z" fill="#FFBE9D"/><path d="M34.383 34.678c.037.123.485.558 1.344 1.307 2.18 1.67 3.509 2.797 3.988 3.38.484.577 1.71 1.39 3.674 2.44l2.808-5.654 4.365-2.78c.644-.652 1.887-.372 3.729.837L46.216 53.14l-5.977-2.238-7.808-11.16-1.262-3.048 3.223-2.007-.009-.01Z" fill="#B4F8F8"/><path d="m59.06 28.25 1.152 1.63c4.862 2.45 7.397 3.84 7.606 4.172.202.331-.44 6.298-1.925 17.9l.893 10.58-1.059 2.846-20.681 1.16c-.322-.13-1.114-.81-1.17-2.026-.045-.92.691-1.879.682-2.486-.046-4.291.414-14.135 1.114-17.772.62-3.21 1.63-6.406 3.03-9.585l1.86-1.299.368-2.062 8.13-3.058Z" fill="#B4F8F8"/><path opacity=".3" d="M66.483 60.94c-.148.156-.369.193-.58.22a10.055 10.055 0 0 1-5.065-.764c-.727-.313-1.418-.718-2.173-.958-.7-.23-1.427-.322-2.155-.405a543.01 543.01 0 0 0-2.919-.359c-.433-.055-.911-.092-1.27.147-.36.249-.498.7-.691 1.087-.488.948-1.575 1.841-2.643 1.934 0-1.271.11-2.79.525-3.987.424-1.244 1.354-2.385 2.624-2.708.783-.193 1.612-.064 2.394.139 3.767 1.003 6.953 3.747 10.792 4.42.35.055.71.1.986.322.276.211.414.653.174.911ZM54.208 33.315a74.695 74.695 0 0 0-1.943 17.394l-1.298.166c-.046.11.046-.11 0 0 .267-3.895.387-7.468.654-11.372.082-1.16.165-2.348.524-3.453.369-1.114 1.05-2.164 2.063-2.735Z" fill="#000"/><path d="m52.864 35.792-2.118 24.54-1.75 1.51-1.814-2.275.369-9.014c.27-4.69.601-7.64.994-8.85.387-1.215 1.246-3.256 2.578-6.123l1.74.212Z" fill="#FF725E"/><path d="M50.746 60.331c-.046 0 .285-5.488.718-12.256.442-6.777.829-12.265.866-12.256.046 0-.277 5.489-.719 12.266-.442 6.768-.828 12.256-.865 12.246Z" fill="#263238"/><path d="M67.818 34.052c1.313.724 2.207 1.998 2.68 3.82.717 2.727 3.066 13.371 3.277 15.01.221 1.64-.156 3.877-.875 4.475-.709.608-5.018 3.352-6.933 3.352-1.27 0-3.19-.414-5.755-1.243l.847-4.291 3.223-.764 2.504-2.45-2.836-6.224c.75-7.422 2.038-11.317 3.868-11.685Z" fill="#B4F8F8"/><path d="M71.473 53.075c-.027.01-.193-.23-.552-.543a4.016 4.016 0 0 0-1.602-.838 3.402 3.402 0 0 0-1.805.065c-.451.129-.718.267-.728.248 0-.009.056-.055.175-.12a3.9 3.9 0 0 1 .525-.23c.442-.156 1.133-.285 1.86-.1.728.174 1.298.57 1.648.902.175.165.295.322.369.432a.97.97 0 0 1 .11.175v.01Zm-7.486 7.1c-.028-.018.203-.267.451-.746a4.324 4.324 0 0 0 .028-4.015c-.24-.478-.46-.736-.442-.755.01 0 .064.056.166.175.101.11.23.295.368.534.276.47.543 1.207.534 2.063a4.253 4.253 0 0 1-.562 2.053c-.138.23-.276.415-.377.525-.101.12-.166.175-.166.166Z" fill="#263238"/><path d="m52.864 32.145 1.482 1.299-1.528 2.43-1.731-.211-.498-1.29 1.62-2.099.655-.129Z" fill="#FF725E"/><path d="M70.562 49.88c0 .028-.258-.009-.663.028a4.129 4.129 0 0 0-.71.138 4.424 4.424 0 0 0-.8.34 4.45 4.45 0 0 0-1.197 1.041c-.258.313-.378.544-.406.534-.009-.009.083-.258.323-.598a3.89 3.89 0 0 1 1.215-1.096c.276-.166.562-.276.838-.35.267-.074.516-.11.727-.11.212 0 .387.009.498.027.12.028.175.037.175.046Zm-3.49-15.46c.01.027-.267.12-.654.35a4.64 4.64 0 0 0-1.317 1.17 4.663 4.663 0 0 0-.792 1.574c-.12.433-.138.718-.165.718-.01 0-.01-.074 0-.203a2.4 2.4 0 0 1 .073-.543 4.13 4.13 0 0 1 .774-1.639 4.267 4.267 0 0 1 1.372-1.17c.212-.1.387-.174.506-.211.13-.037.194-.055.203-.046Zm-7.155-4.227c.01.01-.083.138-.24.369-.174.24-.404.57-.68.957-.59.81-1.4 1.916-2.312 3.14-.101.138-.203.267-.295.396l-.046.065-.055-.046c-1.086-.903-2.044-1.713-2.735-2.293-.322-.286-.598-.516-.8-.7-.194-.166-.295-.258-.286-.267.009 0 .12.074.313.23.22.175.497.396.838.663.7.562 1.676 1.354 2.762 2.256l-.11.01c.092-.13.193-.258.294-.397a290.87 290.87 0 0 1 2.348-3.121c.286-.378.535-.69.719-.93.175-.221.276-.34.285-.332Z" fill="#263238"/><path d="M62.495 42.505c.007 0 .031.04.074.12.043.097.101.22.175.368.157.331.377.791.635 1.344a395.908 395.908 0 0 1 2.054 4.457c.515 1.142.994 2.219 1.409 3.14l.018.037-.028.027c-.718.774-1.38 1.345-1.823 1.768a50.67 50.67 0 0 0-.506.497c-.12.12-.184.175-.194.175 0-.009.056-.073.166-.202.101-.12.267-.304.488-.516.424-.442 1.078-1.031 1.777-1.805l-.009.065c-.414-.912-.911-1.99-1.427-3.131-.792-1.74-1.51-3.324-2.017-4.475-.24-.562-.442-1.022-.589-1.363-.061-.153-.114-.28-.157-.378-.036-.085-.052-.128-.046-.128Zm10.59 14.659a.78.78 0 0 1-.11.138c-.038.05-.09.104-.157.166-.065.055-.138.129-.23.193-.36.295-.912.654-1.621 1.06-.71.413-1.575.865-2.542 1.325-.966.488-2.163.838-3.425.727a4.482 4.482 0 0 1-1.437-.331l.019.01c-1.252-.341-2.413-.664-3.425-.94l-.056-.019.019-.055c.24-1.17.433-2.154.58-2.854.067-.332.123-.599.166-.801.046-.175.064-.277.073-.277.01 0-.009.102-.037.286-.03.203-.076.47-.138.801-.129.709-.313 1.694-.534 2.873l-.037-.074c1.013.276 2.174.58 3.426.921h.009c.424.184.902.276 1.381.322 1.234.102 2.403-.23 3.361-.709a58.47 58.47 0 0 0 2.55-1.289c.71-.396 1.272-.746 1.63-1.022.369-.267.526-.47.535-.46v.009Zm-26.16-19.19c.006.006.003.05-.01.13a4.74 4.74 0 0 0-.073.367c-.074.332-.166.783-.286 1.317a83.193 83.193 0 0 0-.792 4.393 61.662 61.662 0 0 0-.515 4.438c-.046.562-.074 1.031-.093 1.344-.012.148-.02.27-.027.368-.006.086-.012.13-.018.13-.007 0-.01-.044-.01-.13v-.368c0-.322.019-.782.046-1.353a52.505 52.505 0 0 1 1.317-8.84c.129-.553.24-1.004.322-1.317.037-.141.071-.258.102-.35.018-.086.03-.126.037-.12v-.009Zm5.543-6.16c.018.018-.138.267-.405.663s-.645.94-1.069 1.529c-.23.322-.45.626-.653.902l-.175.24.055-.286c.092-.442.166-.82.221-1.078.064-.267.101-.414.12-.414.009 0 0 .157-.037.424s-.101.644-.175 1.086l-.11-.046c.193-.285.414-.59.635-.911.423-.59.82-1.124 1.105-1.51.285-.378.47-.608.488-.599Zm1.012.893c.02.037-.607.516-1.27 1.225-.672.709-1.252 1.252-1.28 1.215-.019-.018.11-.165.331-.396.212-.24.507-.57.848-.92.34-.35.672-.654.93-.848.248-.193.432-.285.442-.276ZM42.661 46.62c-.018 0-.046-.276-.046-.718a13.294 13.294 0 0 1 .488-3.453c.13-.423.23-.681.249-.672.018 0-.046.267-.148.7a18.887 18.887 0 0 0-.313 1.704c-.1.672-.147 1.28-.175 1.721-.027.442-.036.719-.055.719Zm.719-1.04c-.038.01-.111-.838-.093-1.888.028-1.05.13-1.887.166-1.887.046.009 0 .847-.018 1.887-.028 1.041-.01 1.888-.056 1.888Zm-7.1-9.19c.01.019-.193.212-.534.525-.378.341-.838.746-1.345 1.206-.524.46-1.003.884-1.362 1.17-.36.295-.59.46-.608.442-.01-.01.203-.203.543-.516.378-.34.829-.755 1.335-1.206a43.84 43.84 0 0 1 1.372-1.179c.36-.285.59-.46.599-.442Z" fill="#263238"/><path d="M51.409 50.516c1.185.24 1.906.65 2.164 1.233-.11-1.81 3.081-2.989 9.576-3.535l2.302 1.952-11.418 3.876-12.127-2.117c.065-.608 1.252-1.28 1.418-1.372 4.205-.258 6.9-.27 8.085-.037Z" fill="#fff"/><path d="M52.44 52.118c.184.86.623 1.27 1.317 1.234.804-.05 1.298-.516 1.482-1.4l10.608-2.063-1.565 4.522-5.985 1.961H43.472l-1.778-4.291-.027-.175 10.773.212Z" fill="#FF725E"/><path d="M41.667 51.915c.043-.006.107-.009.193-.009.129 0 .313.003.553.01.506.009 1.224.009 2.154.027 1.879.028 4.577.064 7.873.12h.046l.01.046c.073.294.211.589.423.828.212.24.534.378.866.35.331-.027.653-.175.893-.423.24-.249.414-.58.497-.921l.01-.037.036-.01c3.186-.625 6.786-1.325 10.608-2.08l.129-.019-.046.12c-.258.746-.535 1.547-.82 2.357l-.746 2.164-.009.037-.037.01c-2.08.68-4.079 1.334-5.976 1.952l-.018.009h-.01c-6.169-.01-11.38-.028-14.825-.028h-.027l-.01-.028a383.439 383.439 0 0 1-1.74-4.309 3.74 3.74 0 0 1-.027-.166c.006.013.018.068.036.166.111.24.756 1.759 1.805 4.282l-.037-.028c3.444-.009 8.656-.018 14.826-.027h-.019c1.897-.617 3.904-1.28 5.976-1.962l-.046.046c.252-.712.504-1.433.755-2.164.276-.81.553-1.611.82-2.366l.073.101c-3.821.737-7.421 1.437-10.607 2.054l.055-.047c-.101.369-.276.71-.534.977a1.498 1.498 0 0 1-.976.46c-.184.01-.369-.01-.534-.083a1.275 1.275 0 0 1-.424-.304 2.164 2.164 0 0 1-.451-.893l.055.046c-3.278-.074-5.967-.138-7.836-.184-.93-.018-1.657-.037-2.164-.055a24.64 24.64 0 0 0-.57-.01 3.044 3.044 0 0 0-.203-.009Z" fill="#263238"/><path d="M52.744 55.285c-.037.01-.203-.718-.313-1.63-.12-.91-.138-1.657-.092-1.657.037 0 .12.737.23 1.64.11.902.212 1.638.175 1.648Zm2.596.037c-.045 0-.045-.746-.082-1.657-.037-.921-.102-1.658-.065-1.667.037-.009.166.737.212 1.658.037.92-.028 1.666-.064 1.666Z" fill="#263238"/><path opacity=".3" d="M51.004 55.93c-.249-.129-.69-.479-.829-.727-.129-.24-.055-.608.212-.691.147-.037.304.018.442.074.38.16.758.328 1.132.506-.193-.276-.386-.654-.184-.92.203-.268.617-.176.93-.056.7.276 1.39.599 2.118.81.727.221 1.501.341 2.247.203.285-.046.57-.138.782-.332.194-.165.323-.395.48-.598a2.196 2.196 0 0 1 1.196-.783c.13-.027.267-.046.369.028.175.12.129.387.092.608-.12.681.11 1.408.598 1.897l-1.777.46-7.808-.479Z" fill="#000"/><path d="M61.05 55.801c.27.424.405.918.405 1.483 0 .558-.289 1-.866 1.326l-4.944-.59-2.128-.764-3.49-2.366.093-.203c.393-.276 1.053-.141 1.98.405l-.783-.948c.798-.418 1.835-.037 3.112 1.142l3.085.211c.632.086 1.01.05 1.132-.11.185-.23-.036-.654 0-.903.037-.239.23-.865.755-1.123.516-.258.94 0 .94.24 0 .248-.286.469-.249.7.046.239.221.312.525.607.196.203.322.476.378.82" fill="#FFBE9D"/><path d="M56.16 56.998c0 .019-.331.01-.856-.055a9.02 9.02 0 0 1-.921-.166c-.175-.046-.36-.092-.534-.184a4.262 4.262 0 0 1-.506-.322 9.629 9.629 0 0 1-1.51-1.437c-.341-.405-.525-.681-.516-.69.018-.01.23.24.59.626.367.377.874.902 1.518 1.39.157.11.323.221.488.304.157.083.332.138.498.184a9.7 9.7 0 0 0 .911.194c.516.083.838.129.838.156Zm-3.195-21.215c0 .046-.405.036-.912-.01-.497-.036-.902-.11-.893-.147 0-.037.405-.037.912.01.497.045.902.11.893.147Z" fill="#263238"/><path d="M65.608 20.166c-.074.396-.249.8-.59 1.031-.34.221-.865.184-1.077-.166-.01.672-.82 1.105-1.482.967-.663-.138-1.17-.663-1.603-1.178-.064-.074-.129-.157-.22-.185-.102-.037-.212 0-.314-.009-.313-.037-.45-.414-.479-.718-.082-.893.185-1.354.7-2.072l-.018.138a2.83 2.83 0 0 1 .718-1.63 2.802 2.802 0 0 1 2.109-.874c.47.009.957.165 1.252.524.304.369.322.967-.037 1.271.424-.304 1.114-.064 1.27.424.148.497-.285 1.077-.8 1.077.534.138.681.857.57 1.4Z" fill="#E0E0E0"/><path d="M60.58 24.512c.055.94-1.97 2.578-2.891 2.772l2.044-7.404c.368.019.663.341.755.7.101.35.028.728-.055 1.087-.092.359-.203.709-.203 1.077 0 .599.313 1.17.35 1.768Z" fill="#E0E0E0"/><path d="m52.468 31.759-1.363-.497-.01-1.4c-2.136-.252-3.259-1.44-3.37-3.564-.073-1.537.019-4.723.139-7.605a5.96 5.96 0 0 1 5.718-5.691l.304-.01c3.333.065 5.129 2.929 4.972 6.253l.065 9.06-6.455 3.454Z" fill="#FFBE9D"/><path d="M51.096 29.862c1.344.055 2.716-.393 4.116-1.345-.602 1.554-1.965 2.275-4.089 2.164l-.027-.82Z" fill="#EB996E"/><path d="M49.125 20.709c.258 0 .46.203.46.442a.43.43 0 0 1-.45.424.446.446 0 0 1-.461-.442.43.43 0 0 1 .451-.424Zm-.451-1.16c.138-.12.396-.249.7-.258.304-.01.57.083.727.193.166.11.221.212.194.24-.046.064-.415-.175-.903-.148-.497.019-.829.286-.884.23-.027-.027.019-.137.157-.257h.009Zm4.926 1.28c.258.009.46.202.46.45a.43.43 0 0 1-.45.424.458.458 0 0 1-.46-.441c0-.24.202-.433.45-.433Zm.028-1.326c.157-.11.424-.203.727-.184.304.027.562.156.7.276.157.129.203.24.175.258-.055.064-.396-.221-.893-.249-.488-.037-.847.203-.902.138-.028-.027.036-.138.193-.24Zm-2.643 4.364c-.055 0-.129 0-.212-.018a.308.308 0 0 1-.211-.175c-.074-.184 0-.35.046-.497.098-.307.205-.63.322-.967.46-1.381.875-2.477.93-2.459.055.019-.267 1.142-.737 2.523-.116.338-.227.66-.331.967-.055.148-.101.286-.065.369.019.092.139.11.268.12.497.045.8.082.8.11 0 .027-.313.037-.81.027Z" fill="#263238"/><path d="M53.554 17.67a1.86 1.86 0 0 1 .866-.138c.35.028.654.138.838.258.193.12.276.249.248.304-.073.12-.543-.028-1.123-.065-.57-.046-1.059.037-1.114-.092-.028-.064.083-.175.285-.267Zm-4.834.801a1.183 1.183 0 0 1 1.335-.101c.148.101.212.212.175.267-.073.13-.423.046-.828.083-.406.018-.737.147-.83.037-.036-.055.01-.166.148-.286Z" fill="#E0E0E0"/><path d="M53.343 24.475c-.01.212-.12.525-.387.774a1.379 1.379 0 0 1-.847.331c-.24 0-.378-.064-.369-.101 0-.074.571-.037 1.013-.433.442-.396.415-.92.497-.92.037-.01.102.119.093.34v.01Z" fill="#263238"/><path d="m60.626 20.92-.525.922-1.059 1.869c-.561-.092-1.16-1.004-1.316-2.376-.175-1.538-.323-3.333-.047-4.852.019-.093.037-.185-.009-.268-.064-.11-.22-.128-.35-.138-1.114-.073-2.136-.902-2.44-1.97-.589.497-1.491.59-2.173.23a.321.321 0 0 0-.156-.055c-.139-.019-.24.11-.323.212a3.212 3.212 0 0 1-1.722 1.068c-.147.027-.303.055-.441.129-.148.082-.258.22-.378.35a3.607 3.607 0 0 1-.663.58c-.166.11-.36.202-.553.184-.331-.046-.524-.415-.552-.746-.083-.829-.01-1.492.967-1.943-.123-.295-.05-.543.22-.746.139-.11.452-.092.618-.156.248-.102.47-.267.7-.405.7-.452 1.519-.7 2.348-.71.138-.009.276 0 .405-.036.129-.028.248-.083.377-.13 1.078-.441 2.385-.211 3.25.553.13.11.25.24.397.322.166.083.35.12.534.175.727.23 1.261.838 1.75 1.418.414.489.856 1.115.635 1.713-.037.083-.083.175-.065.258.01.11.102.184.184.258.442.433.525 1.188.194 1.703.276.102.405.47.267.728-.037.073-.102.138-.11.23-.01.101.064.203.119.285.267.406.23.986-.083 1.345Z" fill="#E0E0E0"/><path d="M52.09 12.265c-.055.055-.11.157-.092.258.01.046.037.074.083.092.046.028.092.018.11-.01l.13.13a.896.896 0 0 0-.203 1.096c.101.211.24.313.22.331-.008.018-.174-.037-.34-.267a1.005 1.005 0 0 1-.156-.46 1.09 1.09 0 0 1 .138-.571c.064-.102.138-.194.22-.258l.12.129c-.211.175-.46-.01-.47-.194a.4.4 0 0 1 .167-.359c.193-.12.322-.101.322-.092.01.028-.11.065-.249.175Zm-3.351 2.081a.464.464 0 0 0 .082.12c.046.037.102.018.11-.01l.093-.432.055.46c.019.148.12.304.295.36a.414.414 0 0 0 .212.009l.11-.019v.102c-.01.257.065.45.194.534.12.082.211.055.22.082.019.01-.1.093-.276.019a.465.465 0 0 1-.24-.24 1.034 1.034 0 0 1-.082-.386l.11.083a.603.603 0 0 1-.313-.01.57.57 0 0 1-.386-.515l.147.027c-.092.148-.267.102-.331.037a.383.383 0 0 1-.093-.212c0-.138.093-.175.093-.165.018.018-.028.064 0 .156Z" fill="#fff"/><path d="M58.693 21.611c.046-.027 2.163-.727 2.173 1.455.018 2.183-2.173 1.74-2.183 1.685l.01-3.14Z" fill="#FFBE9D"/><path d="M59.346 23.913c.01 0 .037.028.102.056a.335.335 0 0 0 .285.009c.23-.092.424-.451.433-.847 0-.203-.037-.387-.11-.544-.074-.165-.176-.276-.286-.294a.198.198 0 0 0-.23.11c-.028.056-.01.102-.028.11 0 0-.046-.036-.028-.128a.278.278 0 0 1 .083-.138.275.275 0 0 1 .212-.055c.166.009.322.165.396.331.092.175.147.387.138.608-.01.442-.23.856-.543.948a.379.379 0 0 1-.35-.055c-.074-.055-.083-.101-.074-.101v-.01Z" fill="#EB996E"/><path d="M60.626 17.514c.028-.028.184.101.35.368.157.267.313.69.35 1.17.028.488-.074.92-.212 1.206-.129.285-.258.433-.294.414-.074-.037.276-.709.211-1.602-.036-.884-.47-1.51-.405-1.556Z" fill="#FF725E"/><path d="M54.236 24.42c-.046.01-.092-.212-.267-.405-.166-.203-.369-.295-.36-.332.01-.037.268 0 .47.24.203.23.194.497.157.497Zm2.127-3.969c.027.019-.13.23-.433.313-.304.092-.553-.009-.534-.046 0-.037.23-.009.497-.092.258-.074.442-.212.47-.175Zm.137.691c-.027.037-.202-.046-.432-.101-.23-.065-.433-.065-.433-.11-.009-.038.203-.102.46-.038.268.065.424.221.406.249Zm-8.139-.028c.01 0 .018.01.01.037a.126.126 0 0 1-.065.046c-.055.01-.12 0-.184-.018-.13-.037-.212-.11-.194-.148.01-.037.12-.027.24.01.055.018.11.046.138.055.009.009.018.009.018.018h.037Z" fill="#EB996E"/><path d="M59.42 14.383c.01.019-.194.203-.59.405a3.468 3.468 0 0 1-1.675.34 3.442 3.442 0 0 1-1.64-.524c-.368-.24-.552-.451-.543-.46.019-.019.221.165.599.377.368.203.94.424 1.584.46a3.795 3.795 0 0 0 1.639-.285c.396-.166.608-.331.626-.304v-.009Zm.746 1.215c.009.019-.221.212-.645.443-.212.12-.488.239-.81.303a2.693 2.693 0 0 1-1.05-.009c-.736-.147-1.326-.506-1.722-.783-.386-.285-.608-.487-.598-.497.009-.018.258.157.663.415.396.248.976.589 1.685.718.35.074.7.074 1.004.027a3.21 3.21 0 0 0 .782-.267c.424-.202.682-.368.69-.35Zm4.935 5.342c-.027 0 .037-.231-.138-.544a.771.771 0 0 0-.451-.368.852.852 0 0 0-.71.073l-.11.074.01-.129a.748.748 0 0 0-.11-.387 1.167 1.167 0 0 0-.728-.488 1.861 1.861 0 0 0-.755.019c-.433.083-.7.175-.7.147-.01-.01.24-.138.672-.249.221-.055.497-.1.801-.046.304.056.636.23.829.544a.832.832 0 0 1 .129.46l-.11-.055a.957.957 0 0 1 .828-.083.878.878 0 0 1 .488.451c.166.35.064.59.055.58Z" fill="#263238"/><path opacity=".3" d="m44.945 50.562 1.473-10.682a16.086 16.086 0 0 0-1.473 10.682Zm27.32 2.191c.01.148-.018.322-.138.415-.212.165-.516-.037-.709-.221-.608-.58-1.28-1.142-2.09-1.382-.81-.239-1.842.037-2.505.442.442-.709 1.501-.994 2.44-1.095.654-.074 1.345-.019 1.934.285.58.304 1.05.893 1.068 1.556Z" fill="#000"/><path fill-rule="evenodd" clip-rule="evenodd" d="M94.623 37.8v24.115H80.597L94.624 37.8Zm-2.45 20.414V48.195l-5.94 10.019h5.94Z" fill="#FF725E"/><path d="M81.943 59.604c.028-.046.405.147.856.433.451.276.801.534.774.57-.028.047-.415-.156-.857-.432-.45-.276-.8-.534-.773-.571Zm2.063-3.582c.018-.037.395.157.828.433.442.276.774.525.746.57-.018.038-.396-.156-.829-.432-.442-.276-.773-.534-.745-.57Zm2.053-3.582c.028-.037.377.194.783.516.405.322.709.607.681.644-.028.037-.377-.193-.783-.515-.405-.313-.709-.608-.681-.645Zm2.136-3.508c.028-.037.387.193.792.515.405.314.71.608.681.645-.027.037-.386-.193-.791-.516-.405-.322-.71-.607-.682-.644Zm2.109-3.674c.018-.037.396.175.838.47.433.303.764.58.746.616-.028.037-.406-.175-.848-.478-.432-.295-.764-.571-.736-.608Zm2.21-3.812c.027-.046.386.147.8.423.415.267.728.525.71.562-.028.037-.387-.157-.801-.424-.415-.276-.737-.524-.71-.561ZM82.597 58.48c.018-.036.22.047.442.185.23.138.386.285.368.322-.028.037-.23-.046-.451-.184-.23-.138-.387-.276-.36-.322Zm.644-1.169c.028-.037.23.037.451.184.23.139.387.277.36.323-.019.037-.221-.046-.442-.184-.23-.139-.387-.286-.369-.323Zm1.538-2.606c.028-.046.23.037.451.175.221.138.387.286.36.323-.028.046-.222-.037-.452-.175-.22-.139-.387-.286-.359-.323Zm.654-1.178c.027-.037.23.046.451.184s.387.285.36.322c-.028.037-.222-.046-.452-.184-.221-.138-.387-.276-.36-.322Zm1.464-2.357c.018-.037.22.045.451.184.221.138.378.285.36.322-.028.037-.231-.046-.452-.184s-.387-.286-.36-.323Zm.653-1.115c.028-.046.222.037.452.175.22.138.387.286.359.323-.028.046-.23-.037-.451-.175-.221-.139-.387-.286-.36-.323Zm1.391-2.412c.028-.046.23.037.451.175.221.138.387.285.36.322-.028.046-.222-.037-.452-.175-.22-.138-.377-.285-.359-.322Zm.764-1.299c.028-.046.23.037.451.175.221.138.387.286.36.323-.028.046-.221-.037-.452-.175-.22-.139-.386-.286-.359-.323Zm1.363-2.339c.028-.036.23.046.451.185.23.138.387.285.36.322-.019.037-.222-.037-.443-.184-.23-.138-.386-.277-.368-.323Zm.774-1.344c.027-.037.23.046.45.184.222.138.388.286.36.323-.018.036-.221-.046-.451-.185-.221-.138-.378-.285-.36-.322Z" fill="#263238"/></g><defs><clipPath id="a"><path fill="#fff" d="M0 0h100v100H0z"/></clipPath></defs></svg>