<svg width="100" height="100" fill="none" xmlns="http://www.w3.org/2000/svg"><g clip-path="url(#a)"><path d="M0 0h100v100H0V0Z" fill="#fff"/><path d="m92.853 96.305-4.256-.945-29.944-6.707 2.18-.337 3.218-.505 3.938-.636 20.206-3.171 2.647-.412c5.189 3.212 5.856 7.45 2.002 12.713h.01Z" fill="#3F90A8"/><path d="m92.853 96.305-52.685 8.279-58.915-10.898 25.828-5.604 2.161-.533 11.843-4.948 11.88-2.919 12.46 3.686 17.054 3.966 1.413.42.158.057.197.047 25.051 7.4 3.546 1.047h.01Z" fill="#3F90A8"/><path d="m-14.397 90.561-4.406-1.337-.664-4.238 11.394 2.928-11.46-3.33-.13-.842 3.012.701-3.078-1.113 110.58.262c2.096 7.867 1.9 7.83.926 11.329l-51.833 8.175-58.204-10.449-.43-2.703 4.293.608v.01Z" fill="#F8DCC2"/><path d="m37.446 92.722-57.352-10.561 50.71-6.08 59.327 8.362-52.685 8.28Z" fill="#F8DCC2"/><path d="m38.288 92.61-58.204-10.45 50.72-6.08 60.047 7.512.112.43-52.675 8.588Z" fill="#F8DCC2" style="mix-blend-mode:multiply"/><path d="m38.176 91.88-59.074-10.44 48.241-5.556a22.405 22.405 0 0 1 8.317.262l55.191 7.446-52.675 8.288Z" fill="#3F90A8"/><path d="m92.853 96.305-52.685 8.279-.224-1.488-1.656-10.486-.121-.74 24.321-4.536 25.529-3.368 2.825-.374c5.189 3.212 5.856 7.45 2.002 12.713h.01Z" fill="#F8DCC2" style="mix-blend-mode:multiply"/><path d="M75.173 83.115c-.103 2.582-1.75 3.377-2.89 5.36-.786-.224-1.965-.374-3.415-.486-1.356-.113-2.965-.178-4.696-.225-8.868-.29-21.235-.15-23.068-2.376-.496-.59-2.676-9.195-3.022-9.813-.739-1.328-1.122-2.684-1.16-3.938-.056-2.273 1.02-4.2 3.2-4.967 1.244-.45 2.853-.505 4.798-.028.777.3 2.311-.683 3.125-.44.701.225 1.403.45 2.105.692a110.55 110.55 0 0 1 5.032 1.806c6.502 2.479 12.938 5.612 16.988 7.83 2.498 1.655 3.106 4.06 3.012 6.585h-.009Z" fill="#EC925D"/><path d="M75.136 81.319c.336 8.522-1.291 22.423-.908 24.995-.907 1.534-7.287 1.937-7.474.683-.122-1.02-.122-1.048-.14-1.197-.683-4.406-3.2-18.373-3.574-19.813 0-.037.019-.084.056-.14.29-.59 2.32-2.255 4.528-3.93 2.9-2.198 7.484-1.272 7.512-.598Z" fill="#EC925D"/><path d="M69.167 90.374c-1.403 4.724-2.619 14.444-2.282 17.643-.683-4.406-2.937-18.429-3.302-19.87 0-.037.552-.327.59-.383-8.869-.29-21.236-.15-23.07-2.376-.495-.59-2.675-9.195-3.02-9.813-.74-1.328-1.123-2.684-1.16-3.938l13.227-4.743c1.702.562 3.377 1.17 5.032 1.806.45.087.293.77-.467 2.048-.459.777.898 2.741 1.665 3.218 4.19 2.62 8.756 5.426 11.244 7.952 1.852 1.87 2.385 5.65 1.543 8.456Z" fill="#EC925D" style="mix-blend-mode:multiply" opacity=".4"/><path d="M57.081 42.937c-.112.646-2.376 10.14-3.311 14.07v.018a75.093 75.093 0 0 0-.384 1.656c-2.03-.262-5.856-1.244-7.465-3.255-.56-.693-.841-1.525-.673-2.489.3-1.637 1.618-5.435 2.04-6.978.58-2.17 1.328-3.948 2.216-5.295.982-1.543 2.142-2.516 3.424-2.872 3.03-.832 3.807.852 4.369 2.376.299.814-.15 2.404-.216 2.77Z" fill="#F8C650"/><path d="M62.844 67.371c1.016 1.067 1.793 1.697 2.329 1.89.805.29 2.33-.225 3.929 0 1.6.215 2.04 2.395 2.33 2.91.28.504.355 2.095-1.282 2.17-1.628.084-3.47-2.405-3.508-1.525.617 1.094 1.132 1.73.346 1.749-.777.028-1.993-2.254-3.143-2.6-1.142-.356-2.02-.777-2.31-1.488-.194-.474.242-1.51 1.309-3.106Z" fill="#FCC7A9"/><path d="m60.206 70.889-1.104-.627c-.01 0-.019 0-.028-.019A7268.265 7268.265 0 0 1 47.23 63.49c-1.066-.617-2.722-2.769-3.246-3.536.122-1.964.87-3.527 1.936-4.527 2.049-1.89 5.286-1.74 7.849 1.6.01.027 9.916 10.373 10.28 10.654.384.3-2.375 3.863-3.835 3.209h-.01ZM45.033 34.556l-.945-1.347c.836-.699 1.771-.83 2.806-.393l-1.861 1.74Z" fill="#F8C650"/><path d="M44.088 33.209c.842-.699 1.777-.83 2.806-.393 1.035.436.415 1.016-1.861 1.74l-.945-1.347Z" fill="#F8C650" style="mix-blend-mode:multiply"/><path d="M59.635 25.5c-2.816 2.414-3.19 6.474-8.615 6.474-5.426 0-4.472 1.347-6.053-2.011-1.553-3.265-1.637-5.024-1.88-8.223-.122-1.572 1.665-3.938 5.192-4.94 4.069-2.497 7.53.01 9.616.478 3.069.692 3.34 2.582 2.956 3.695.028 2.872-.262 3.068-1.216 4.527Z" fill="#3B5765"/><path d="M64.07 80.72c.037.29-1.338 3.555-2.61 6.418a8.044 8.044 0 0 1-.225.495c-.908 2.086-1.712 3.836-1.768 3.845a194.95 194.95 0 0 1-5.192-1.104c-.561-.121-1.113-.234-1.684-.374-6.707-1.525-13.096-3.368-19.43-6.146-5.285-2.31-7.314-7.867-6.725-11.403.065-.412.14-.795.196-1.17.973-5.762 1.03-5.65 8.597-5.275 1.375.056 4.93 1.637 6.277 2.058 3.424 1.113 2.273-.72 5.136 1.085.168.103.346.224.514.327 1.394.87 2.666 1.684 3.845 2.423 5.341 3.377 8.644 5.566 11.31 7.512.121.075.243.159.355.252.449.318.88.646 1.291.954a.338.338 0 0 1 .122.103h-.01Z" fill="#EC925D"/><path d="M67.643 89.523c-2.245 7.259-17.998 19.822-18.644 20.982-.234.421-.664.571-1.188.515-.006 0-.012.003-.019.009-2.264-.234-6.314-4.032-5.238-5.557a988.425 988.425 0 0 1 5.959-9.26c.009-.01.018-.038.028-.047.58-.898 1.188-1.825 1.815-2.77.73-1.112 1.477-2.263 2.235-3.395.084-.112.16-.234.243-.356a174.54 174.54 0 0 1 2.152-3.217c.196-.72 4.05-8.102 4.238-8.897a34.95 34.95 0 0 1 3.087 1.88c.121.076.243.16.355.253.45.318.88.646 1.291.954a.339.339 0 0 1 .122.103c4.144 3.35 4.658 6.268 3.564 8.803Z" fill="#EC925D"/><path d="M58.335 88.475c-4.462 1.73-2.283 5.669-5.023 8.101-1.809 2.445-4.512 5.426-8.11 8.943-1.432 1.394 1.477 4.762 2.581 5.501-2.255-.225-6.305-4.023-5.239-5.548C49.143 95.276 52.491 90.119 52.591 90c-6.707-1.525-13.096-3.377-19.43-6.146-5.285-2.31-7.314-7.867-6.725-11.403.065-.412.14-.805.196-1.17l.206-.177 14.21-1.618 6.108-.01c1.394.86 3.125 1.965 4.303 2.713.122.945-2.338 2.404-11.29 5.444C33.217 80 56.023 89.027 58.334 88.466v.01Z" fill="#EC925D" style="mix-blend-mode:multiply" opacity=".4"/><path d="M59.074 70.243A7268.265 7268.265 0 0 1 47.23 63.49c-1.066-.617-2.722-2.769-3.246-3.536.122-1.964.87-3.526 1.936-4.527-.56-.702-.841-1.525-.673-2.489.3-1.637 1.618-5.435 2.04-6.978.58-2.17 1.328-3.948 2.216-5.295l4.8.786c-.095 9.205-.272 14.387-.534 15.547 0 .01.636 1.488.851 3.096.178 1.413 1.338 8.186 4.453 10.15Z" fill="#F8C650" style="mix-blend-mode:multiply" opacity=".5"/><path d="M57.044 40.59c0 .112 0 .233-.01.345v.085c.01 7.652-5.93 19.99-6.145 22.348 0 .018-.786 3.489 1.365 4.883 1.185 1.041-.333 2.631-4.555 4.77-.056-.028-.14-.074-.225-.102-.514-.272-.973-.543-1.29-.89-.356-.383-.506-.841-.31-1.468a12.69 12.69 0 0 0-.607 1.73c-.038.16-.066.31-.103.44-.14.702-.103 1.095-.084 1.338-.487 1.338-4.332 1.89-7.456 2.124-.056 0-.094.009-.15.009-2.74.197-5.51-.037-8.176-.71-2.422-.628-5.173-1.526-5.023-2.47.907-5.314 3.536-9.645 4.453-20.842.065-.833 3.9-10.693 6.595-13.873.3-.346.58-.608.823-.767.168-.112.309-.206.42-.29.805-.552 1.16-.86 2.358-1.488.272-.15.59-.308.964-.495 6.875-3.34 13.526-2.657 16.782 3.826.14.308.084.14.262.757.065.253.103.477.112.73v.01Z" fill="#F8C650"/><path d="m55.033 34.518-2.694 2.48c-.02.392-.038.832-.066 1.309-.112 2.02-.402 4.453-1.179 4.64-.168-2.292-.654-3.892-1.421-5.117-.468-.758-1.048-1.375-1.722-1.927-.991-.805-2.189-1.469-3.573-2.255.05-.1 1.188-1.656 3.414-4.668.964-1.319 7.924 4.257 7.24 5.538Z" fill="#FCC7A9"/><path d="m55.005 35.23-2.695 2.263c-.009.365-.177 5.35-1.234 5.463.458-.206.748-1.693.87-2.573.121-.907.075-1.608-1.235-1.618a3.324 3.324 0 0 1-1.057-.505c-.468-.692-1.048-1.263-1.73-1.768-3.742-.455-4.45-1.755-2.124-3.9l9.205 2.637Z" fill="#FCC7A9" style="mix-blend-mode:multiply" opacity=".4"/><path d="M49.888 38.166c-.019.131-.084.702.159 1.273-1.578-.032-2.566-.322-2.966-.87-.598-.795 2.423-.57 2.779-.45.018.01.028.029.028.047Z" fill="#F8C650"/><path d="M49.504 68.475c-.01.851.505 2.919-1.805 4.556a1.67 1.67 0 0 0-.225-.112c-.655-.319-1.861-.777-2.207-.627-.02 0-.029.01-.038.019-4.565-.178-14.555-5.37-15.594-4.594-8.185 6.109 4.724 7.868 7.849 8.485-2.75.197-5.52-.028-8.186-.71-2.422-.628-5.173-1.526-5.023-2.461.907-5.314 3.536-9.654 4.462-20.851.056-.833 3.892-10.693 6.586-13.873.3-.337.58-.599.823-.767.178-.112.786-.59.907-.702-.121.028 4.22-2.479 5.912-2.797 3.362 3.243 5.607 4.964 6.736 5.164-.749-.006-2.56.882-5.435 2.666-.518-2.77-1.26-4.518-2.227-5.248-.364-.29-.879-1.478.543-1.843-.748-.346-2.928 1.141-2.255 1.88.796 1.039 1.245 3.125.833 7.306-.393 4.07 1.207 8.71-.58 12.779-1.862 4.247 8.943 10.196 8.924 11.73Z" fill="#F8C650" style="mix-blend-mode:multiply" opacity=".5"/><path d="M45.491 38.4c1.385.047 4.303-.383 4.387-.262.007.007.01.016.01.029-.019.102-.094.739.159 1.272-1.525-1.235-4.387-.29-4.556-1.039Z" fill="#F8C650" style="mix-blend-mode:multiply"/><path d="M49.86 38.12c-.225-.084-.749.159-1.385.542-.776.487-1.721 1.198-2.526 1.824-.63.5-1.19.96-1.683 1.385.037-2.881-.502-4.727-1.619-5.538-1.655-1.188.562-2.423.842-2.685.328-.28.58-.458.777-.561v-.01c.549-.33 1.004-.48 1.365-.448.534.046-.402.084-.654 1.029.205 2.058 4.247 4.125 4.892 4.462h-.01Z" fill="#F8C650"/><path d="M55.014 37.596c-.075.617-.402 2.75-.692 4.079-.74-.478-1.572-2.9-2.068-2.46.272-1.011 1.478-2.293 2.76-1.62Z" fill="#F8C650" style="mix-blend-mode:multiply" opacity=".5"/><path d="M52.31 38.045a.07.07 0 0 1 .047-.066c.272-.065 1.544-.392.852-.065-.506.243-.824.701-.955 1.375l.057-1.244Z" fill="#F8C650" style="mix-blend-mode:multiply"/><path d="M54.415 36.333c.493.942.615 1.544.365 1.805-.243.262-.402 1.366-.477 3.312-.293-.243-.624-.917-.991-2.02-.368-1.098-.693-1.578-.973-1.441l2.076-1.656Z" fill="#F8C650"/><path d="M59.102 26.96a2.919 2.919 0 0 0-.243 1.356c.112 1.562-.505 3.087-1.525 4.846-2.797 4.79-3.012 4.144-5.482 3.583a7.913 7.913 0 0 1-3.994-2.292c-1.478-1.581-2.788-3.798-3.882-7.007a4.708 4.708 0 0 1 .233-3.648c2.844-5.557 8.195-3.274 12.957-2.226 3.592.795 2.731 3.648 1.936 5.388Z" fill="#FCC7A9"/><path d="M59.635 25.5c-2.57-1.197-3.62-2.32-3.152-3.367.224-.515-.833-.786-1.394-.814-3.34-.131-5.697 1.366-6.38 3.34a3.59 3.59 0 0 0-.206 1.262c.047 3.2-2.02 1.656-2.535 2.863-.28.655-.739.795-.823 1.562-1.132-1.712-1.693-5.136-2.152-7.52.047-2.358 1.03-4.108 3.845-5.445 4.696-2.255 8.728-.43 10.814 1.683-.006.007-.006.01 0 .01 4.724 1.132 5.697 4.275 1.983 6.426Z" fill="#3B5765"/><path d="M46.838 17.371c-5.903 2.825-3.171 11.01-1.01 14.285.084-.777-.131-2.217.14-2.881l.87-11.404Z" fill="#3B5765"/><path d="M47.11 28.241c-.58 1.048.27 2.442-.422 2.713-.701.262-1.655-.524-2.114-1.759-.467-1.225-.842-2.226.421-2.703 1.619-.617 2.75.599 2.114 1.75Z" fill="#FCC7A9"/><path d="M25.95 58.475c.065-.243 2.628-8.157 2.675-8.307 3.405-9.485 6.782-13.068 9.607-13.77.608-.15 1.936-.028 2.413.506.384.43 2.61 3.582-.991 10.944l-3.517 10c-3.368-.58-10.216.74-10.188.627Z" fill="#F8C650"/><path d="M51.066 43.47a56.472 56.472 0 0 1-.73 6.895c-.383 2.282-1 4.537-2.132 6.567-1.01 2.104-1.506 4.406-1.862 6.697-.355 2.292-.495 4.622-.477 6.942h.028a67.89 67.89 0 0 1 .683-6.904c.356-2.282.833-4.565 1.75-6.68 2.086-4.162 2.834-8.895 2.768-13.517h-.028Z" fill="#F8C650" style="mix-blend-mode:multiply" opacity=".7"/><path d="M45.95 40.337c.168-1.563-2.18-5.061-.964-4.537.739 1.45 2.74 2.348 3.49 2.862-.777.487-1.722 1.198-2.526 1.824-.01-.037 0-.093 0-.15Z" fill="#F8C650" style="mix-blend-mode:multiply" opacity=".1"/><path d="m75.538 75.304-15.285 6.8a.622.622 0 0 1-.468.01l-14.808-5.491a.23.23 0 0 1-.15-.196v-.02c-.01-.102.037-.383.084-.448.028-.047.187.084.28.159l14.706-5.398c.234-.084.486-.093.72-.018l14.92 4.602Z" fill="#3B5765"/><path d="m59.85 81.768-14.817-5.5c-.197-.075-.197-.356 0-.421l14.93-5.473c.224-.084.477-.093.72-.018l15.173 4.677-15.547 6.726a.645.645 0 0 1-.459.009Z" fill="#ABE3EF"/><path d="m81.824 59.29-5.332 14.929a1.16 1.16 0 0 1-.608.655l-15.706 6.969c-.243.112-.505-.122-.421-.384l5.37-16.782c.112-.346.373-.617.72-.73l15.612-5.172c.206-.066.318-.103.702.336a.66.66 0 0 1-.337.178Z" fill="#3B5765"/><path d="m59.85 81.768-14.817-5.5c-.197-.075-.197-.356 0-.421l14.93-5.473c.224-.084.477-.093.72-.018l15.173 4.677-15.547 6.726a.645.645 0 0 1-.459.009Z" fill="#ABE3EF" style="mix-blend-mode:multiply"/><path d="m60.412 81.216-9.196-3.33c-.178-.066-.178-.318 0-.393l13.499-4.949c.215-.074.44-.084.654-.018l9.523 2.59-14.06 6.09a.593.593 0 0 1-.42.01Zm-4.668-5.968-2.89-1.048v-.121l4.255-1.553c.066-.01.14-.01.206-.01l2.966 1.02a.088.088 0 0 1 0 .168l-4.397 1.544h-.15.01Z" fill="#ABE3EF" style="mix-blend-mode:multiply"/><path d="m60.112 81.693 5.37-16.782c.112-.346.383-.617.72-.73l15.622-5.163c.243-.084.477.15.393.402l-5.37 15.033c-.102.3-.327.533-.608.655l-15.697 6.969a.314.314 0 0 1-.43-.384Z" fill="#ABE3EF"/><path d="M72.956 71c-.028.58-1 .993-2.17.927-1.16-.075-2.077-.59-2.04-1.17.029-.514.824-.897 1.843-.916a3.62 3.62 0 0 1 .505-.748c.749-.898 1.712-1.32 2.152-.945.44.374.187 1.394-.561 2.282a.026.026 0 0 0-.01.019c.188.168.3.356.281.561V71Z" fill="#ABE3EF" style="mix-blend-mode:screen" opacity=".5"/><path d="m82.217 59.42-5.37 15.033a1.13 1.13 0 0 1-.608.655l-15.697 6.969a.314.314 0 0 1-.43-.384l.468-1.468 8.017-3.873a18.387 18.387 0 0 0 8.288-7.98c1.49-2.825 3.021-5.89 4.593-9.195.01-.019.01-.038.019-.056l.327-.113a.32.32 0 0 1 .393.412Z" fill="#ABE3EF" style="mix-blend-mode:multiply" opacity=".5"/><path d="M43.76 66.165c3.162 2.126 5.018 3.261 5.566 3.405.824.215 2.928.336 3.677.374.758.037 3.05 2.488 3.433 3.704.383 1.216.393 2.545.028 2.984-.374.44-2.554.234-4.181-.402-1.628-.636-2.274-2.544-2.844-2.788-.38-.155-3.178-1.471-8.391-3.947l2.712-3.33Z" fill="#FCC7A9"/><path d="M49.504 68.475c.374.459-1.721 4.996-3.003 4.462-7.493-2.647-13.199-5.388-16.613-8.232-.403-.196-1.469-.72-2.086-1.319-.861-.86-1.497-2.067-1.759-3.208-.215-.945.01-1.89 0-1.89 2.432-3.667 7.25.59 10.262-.898l-.243 1.45 13.442 9.635Z" fill="#F8C650"/><path d="M52.993 70.14c.487.103 1.02.187 1.516.243a6.4 6.4 0 0 0 .72.047c.206.019.487-.065.412-.01a.686.686 0 0 1 .963.132.697.697 0 0 1-.13.973c-.543.346-.833.308-1.16.365-.31.028-.6.028-.89.028a17.55 17.55 0 0 1-1.711-.113.837.837 0 0 1-.74-.935.844.844 0 0 1 .936-.748c.028.009.056.009.084.018Z" fill="#FCC7A9"/></g><defs><clipPath id="a"><path fill="#fff" d="M0 0h100v100H0z"/></clipPath></defs></svg>