<svg width="100" height="100" viewBox="0 0 100 100" fill="none" xmlns="http://www.w3.org/2000/svg">
<g clip-path="url(#clip0_13_270)">
<path d="M99.9819 99.9864H0V0.0361328H99.9819V99.9864Z" fill="white"/>
<path d="M12.2177 83.8438C3.05783 65.9305 0.928946 49.9804 5.83109 35.9937C28.0579 -27.4436 96.572 5.3794 90.1673 40.0316C86.6488 59.0876 99.7292 64.7968 92.918 83.8844L12.2177 83.8438Z" fill="#EBF3FA"/>
<path d="M47.3577 48.3198L48.2475 48.6089C49.1901 48.2987 50.0739 48.6962 50.8989 49.8013C51.1549 50.2108 51.1248 50.5721 50.8086 50.8852C50.3705 51.3188 50.2846 50.2981 49.44 50.5013C48.5953 50.7046 48.0217 50.3884 47.6468 49.8735L47.0235 49.5032L47.3577 48.3198Z" fill="#FFB27D"/>
<path d="M65.6234 20.262C65.6279 20.1084 65.7498 18.4282 68.3108 18.3379C67.4707 18.4372 66.9784 18.6721 66.8338 19.0425C67.4059 18.5848 67.9238 18.4297 68.3876 18.5772C69.0876 18.7986 69.4987 20.0226 69.5032 20.4246C69.5077 20.8266 69.1193 22.1229 68.6766 22.2313C68.505 22.2764 68.3153 22.2629 68.1391 22.2313C68.2566 22.4165 68.3695 22.6197 68.4824 22.8455C69.5032 24.9458 68.4508 26.9919 67.5836 26.766C67.2132 26.6697 66.9769 26.9377 66.8745 27.57L61.4816 23.2069C62.8035 20.4758 64.1841 19.4941 65.6234 20.262Z" fill="#2C3A64"/>
<path d="M52.5564 45.3433C52.0957 45.524 51.7826 45.6354 51.617 45.6775C51.3686 45.7453 50.1807 46.4544 49.9323 46.066C49.6838 45.6775 50.8446 44.5032 51.0885 44.2954C51.2511 44.1569 51.6877 44.1569 52.3984 44.2954L52.5564 45.3433Z" fill="#FFB27D"/>
<path d="M65.8175 69.3812C65.8717 68.2972 65.8537 67.3532 65.7227 66.6577C65.542 65.7137 65.3975 64.7923 65.2846 63.8979C64.8419 60.4156 64.8555 57.3713 65.0497 54.9142C65.1129 54.1102 65.1942 53.3695 65.2891 52.692C65.6173 49.2743 65.9666 47.2027 66.3369 46.477L68.8257 47.1319L69.5122 49.3225L72.85 50.3975L73.1572 50.4969C72.57 53.6179 71.8112 57.8636 71.2285 61.1834C70.9711 62.6287 70.7498 63.8934 70.5872 64.8194C70.533 65.1355 70.4833 65.411 70.4472 65.6414C70.3899 65.9696 70.3448 66.2256 70.3117 66.4092C70.5465 67.3803 70.5872 68.4282 70.4743 69.5122C70.0678 73.5562 68.2069 77.8772 64.8916 82.4752L63.7489 82.0506C64.9624 76.9106 65.6519 72.6875 65.8175 69.3812Z" fill="#2B478B"/>
<path d="M65.2847 52.692C65.6159 49.2743 65.9667 47.2027 66.337 46.477L68.8212 47.1319L69.5123 49.3225L72.8501 50.3975L73.1572 50.4969C72.57 53.6179 71.8112 57.8636 71.2286 61.1834C70.9711 62.6287 70.7498 63.8934 70.5872 64.8194C70.533 65.1355 70.4833 65.411 70.4472 65.6414L65.0498 54.9142C65.113 54.1102 65.1943 53.365 65.2847 52.692Z" fill="#233862"/>
<path d="M67.4255 47.8546L67.5474 46.7841C68.9446 47.1545 71.5071 46.6366 75.2348 45.2304C76.5838 46.4198 77.171 48.4372 76.9963 51.2828C76.8653 53.3695 76.626 62.2312 76.3775 64.8509C76.2917 65.8039 76.2104 66.4769 76.1788 66.7479C76.1788 66.7479 76.1788 66.7494 76.1788 66.7524C76.1698 66.8337 76.1969 66.9105 76.2375 66.9828C76.6034 67.6016 76.906 68.2475 77.1544 68.9069C78.7774 73.2309 78.6525 78.0532 76.7795 83.3739L76.0524 83.0803C74.9864 77.1574 74.0213 72.8876 73.1571 70.2709C72.9358 69.6025 72.7236 69.0831 72.5293 68.7669C71.9647 67.859 71.4408 66.3685 70.9666 64.598C70.0677 61.2511 69.3451 56.897 68.8618 53.5366C68.8196 53.5366 68.3409 51.6426 67.4255 47.8546Z" fill="#2B478B"/>
<path d="M54.3315 43.4823C55.813 42.8229 57.8952 41.8337 58.3062 41.3821C59.2502 40.3342 60.1626 36.9195 61.2285 34.598C61.3219 34.3842 61.4167 34.1764 61.5131 33.9746C61.5221 33.9611 61.5312 33.934 61.5447 33.9159C61.5989 33.8211 61.6441 33.7353 61.6847 33.654C61.6847 33.6494 61.6938 33.6404 61.7028 33.6314C61.9015 33.2475 62.1093 32.9448 62.299 32.7461V32.7371C62.5339 32.4886 62.7597 32.3848 62.9675 32.4706C63.2385 32.6091 63.5125 32.8425 63.7895 33.1707C63.8437 33.2158 63.8753 33.2655 63.9115 33.3197C64.1644 33.6404 64.4038 34.065 64.5528 34.6025C64.6658 35.009 64.7245 35.4742 64.7019 36.0207C64.6658 36.915 64.2231 38.0307 63.5908 39.1553C63.5637 39.2095 63.5411 39.2592 63.505 39.3134C62.29 41.4363 60.4291 43.5591 59.2954 44.2502C58.5501 44.7109 56.6802 44.9864 55.0994 45.1445C54.0515 45.2574 53.1256 45.3071 52.7462 45.3342C52.6649 45.3402 52.6016 45.3432 52.5565 45.3432L52.3984 44.2954C52.9765 44.0635 53.6209 43.7925 54.3315 43.4823Z" fill="#FFB27D"/>
<path d="M54.2864 42.028C55.5284 41.4634 56.9557 41.9377 57.5203 44.3089C57.8997 45.8943 61.5627 47.6513 59.9141 50.0723C58.3333 51.9693 54.5348 50.7272 54.8555 48.3198C55.1761 45.9124 55.9846 43.9024 55.1039 43.5185C54.3692 43.1993 54.0967 42.7025 54.2864 42.028Z" fill="#ED7D2B"/>
<path d="M52.1409 48.9883C54.7471 48.6134 57.2448 48.7037 57.3848 51.5718C57.5248 54.44 58.2024 59.8374 57.3893 60.8989C56.8473 61.6065 55.1566 61.9106 52.3171 61.8113C50.414 58.5682 50.3553 54.2939 52.1409 48.9883Z" fill="#FFB93E"/>
<path d="M64.3135 31.5718C64.3135 31.5688 64.3135 31.5673 64.3135 31.5673C64.3948 31.5312 64.5032 31.486 64.6387 31.4318C64.7335 31.2602 64.6206 30.6504 64.4625 30.0181C64.327 29.4791 64.1674 28.928 63.9838 28.365L66.5809 27.1454L66.7345 27.0732C67.1907 28.9386 67.9811 30.0587 68.4238 30.2846C68.6406 30.2575 68.9071 30.2349 69.1645 30.2168C69.4265 30.2033 69.8782 30.1852 70.3976 30.3749C70.2485 32.4707 69.4355 35.6233 65.8356 35.4246C64.8736 35.3749 64.0831 35.1671 63.4237 34.86C63.7218 33.0759 64.2864 31.6351 64.3135 31.5718Z" fill="#FFB27D"/>
<path d="M66.581 27.1454C66.4409 27.9991 65.9802 29.5935 64.4625 30.018C64.327 29.479 64.1674 28.928 63.9837 28.3649L66.581 27.1454Z" fill="#ED985F"/>
<path d="M61.355 24.9368C61.3505 24.1373 61.5899 23.1662 63.9296 22.7281C66.2693 22.2855 66.1789 23.9115 66.739 26.1653C67.1094 27.6679 66.0841 28.6992 63.6631 29.2593C62.7055 29.4174 61.3595 25.7317 61.355 24.9368Z" fill="#FFB27D"/>
<path d="M61.1518 23.6585C61.5402 22.841 62.0009 22.8862 62.29 23.0307C63.4252 21.9768 64.5514 21.8805 65.6685 22.7417C66.0961 23.7775 66.7751 24.5077 67.7056 24.9323C67.3352 25.3117 66.611 25.4984 65.533 25.4923C65.0407 25.4878 64.5438 25.2575 64.0922 24.9458C64.6733 25.533 65.3042 26.0042 65.9847 26.3595C63.9612 25.9711 62.6016 23.6314 62.4616 23.3785C62.2945 23.636 61.9648 24.1735 61.9377 24.6296C61.897 25.2439 62.1138 26.4453 61.757 26.4905C60.9621 25.4186 60.7603 24.4746 61.1518 23.6585Z" fill="#2C3A64"/>
<path d="M61.2195 34.598C61.3068 34.3361 61.6411 33.6962 62.2222 32.6784C62.2267 32.6739 62.7778 32.168 64.3135 31.5673C64.3135 31.5673 64.3135 31.5688 64.3135 31.5718C64.2864 31.6577 63.6314 34.0334 63.8708 34.5393C64.1147 35.0542 68.7128 33.3921 68.9657 33.0127C69.1645 32.7055 69.1735 31.0976 69.1645 30.4698C69.1645 30.3674 69.1645 30.2831 69.1645 30.2168C70.3087 30.0633 71.203 30.116 71.8474 30.3749C71.5914 30.929 71.4168 31.5101 71.3235 32.1184C71.3114 32.2057 71.3009 32.293 71.2918 32.3803C71.2738 32.561 71.2693 32.7462 71.2783 32.9268C71.2918 33.1617 71.4138 33.374 71.608 33.5772C71.7887 33.7669 72.0281 33.9521 72.2991 34.1509C72.4797 34.2818 72.6694 34.4174 72.8682 34.5619C72.8862 35.6369 72.8095 37.4074 73.0082 39.2954C73.0579 39.7742 73.2205 40.2303 73.4689 40.6368C73.5683 40.7994 73.6812 40.9485 73.8077 41.093C74.8239 42.2312 76.6216 44.4986 76.2241 45.9078C76.197 47.2403 64.9729 48.9882 65.2123 47.5293C64.0861 42.1093 63.2204 38.7443 62.6152 37.4345C62.5791 37.3622 62.552 37.2945 62.5249 37.2222C62.2313 36.4453 62.2809 35.6504 62.3803 34.9368C62.037 34.6929 61.6486 34.58 61.215 34.598H61.2195Z" fill="#F99746"/>
<path d="M71.6125 33.5818C71.7887 33.7669 72.0281 33.9566 72.3036 34.1554C72.4797 34.2818 72.674 34.4173 72.8682 34.5664C72.8862 35.6414 72.8095 37.4074 73.0082 39.2954C73.0624 39.7742 73.2205 40.2304 73.4689 40.6369C72.3217 42.4752 70.4472 44.7742 68.2341 44.7968C65.235 44.8284 69.7968 36.6441 71.608 33.5818H71.6125Z" fill="#ED7D2B"/>
<path d="M60.8898 45.4472C61.2692 45.2394 61.7299 44.9865 62.2132 44.7109C63.383 44.0515 64.7245 43.2475 65.6459 42.5791C66.1743 42.1997 66.5718 41.8609 66.7118 41.617C66.9286 41.2466 67.168 40.6549 67.439 39.9277C67.5745 39.5483 67.7236 39.1328 67.8726 38.6902C68.1301 37.963 68.392 37.1726 68.6585 36.3866C69.1418 34.9458 69.6657 33.5005 70.1581 32.3848C70.4788 31.6802 70.7904 31.1021 71.084 30.7453C71.3189 30.4607 71.5447 30.3117 71.7615 30.3478C71.7931 30.3568 71.8202 30.3659 71.8473 30.3749C72.6784 30.6037 73.0999 31.5568 73.112 33.234C73.121 33.3695 73.112 33.5185 73.103 33.6721C73.0849 34.1147 72.9991 34.6522 72.8681 35.2439C72.6603 36.2286 72.3125 37.3713 71.8834 38.5321C71.7615 38.8437 71.6395 39.1644 71.5086 39.4851C70.5736 41.8067 69.3676 43.9747 68.3559 44.7109C68.3107 44.7471 68.2791 44.7697 68.2339 44.7968C67.8094 45.0678 67.1861 45.3343 66.4679 45.5872C65.4426 45.9305 64.2322 46.2421 63.1481 46.5041H63.1391C62.5068 46.6441 61.9286 46.7706 61.4408 46.8699C61.3716 46.885 61.2767 46.9046 61.1563 46.9287C60.7528 47.0039 60.4231 47.0642 60.1671 47.1093L59.8645 46.0027C60.1355 45.8582 60.4773 45.673 60.8898 45.4472Z" fill="#FFB27D"/>
<path d="M71.8473 30.3749C72.6784 30.6067 73.1015 31.5583 73.1165 33.2295C72.2584 32.3592 71.2737 32.0777 70.1626 32.3848C70.7633 31.0388 71.3415 30.1671 71.8473 30.3749Z" fill="#F99746"/>
<path d="M74.7154 82.7055C75.0587 82.4616 75.6143 81.5763 75.7182 81.4092C76.5492 81.5221 77.1454 81.0976 77.5158 80.7227C77.4074 81.495 77.8591 81.7841 78.1481 82.4255C78.3469 82.8711 78.4011 83.386 78.3107 83.9702H72.5429C72.6603 82.8817 74.3406 82.9765 74.7154 82.7055Z" fill="#233862"/>
<path d="M62.3352 82.7055C62.6695 82.4661 63.7309 81.2647 63.9793 80.9801C64.2458 81.1337 64.5484 81.2647 64.8374 81.2828C65.2078 81.3008 65.5465 81.206 65.8085 81.0976C65.5601 81.5583 65.4291 81.8699 65.7679 82.4255C66.0178 82.844 66.072 83.3589 65.9305 83.9702H60.1627C60.2802 82.8817 61.9603 82.9765 62.3352 82.7055Z" fill="#233862"/>
<path d="M52.3171 61.8112C54.1961 62.5384 52.159 70.8356 52.3758 72.8501C52.5233 74.1901 51.9859 77.2584 50.7633 82.0552L49.2954 82.2313C49.476 80.8763 48.791 74.705 47.2402 63.7173C49.3691 61.9588 51.0614 61.3234 52.3171 61.8112Z" fill="#F0995E"/>
<path d="M54.2999 61.5221C56.2241 62.1319 54.6974 70.5375 55.0452 72.5339C55.274 73.8648 54.9187 77.0024 53.9793 81.9468L52.5249 82.281C52.6213 80.9169 51.5643 74.7366 49.3542 63.7399C51.3716 61.8519 53.0202 61.1126 54.2999 61.5221Z" fill="#FFB27D"/>
<path d="M50.2124 82.0235C50.3298 82.0024 50.5436 81.9031 50.8538 81.7254C51.2061 82.0175 51.3912 82.3261 51.4093 82.6513C51.4229 82.8771 51.45 83.1662 51.4771 83.4146C51.5087 83.6992 51.2828 83.9521 50.9983 83.9521L47.6243 83.9702C47.3036 83.9747 47.1184 83.6133 47.3081 83.3514C47.5294 83.0443 47.8863 82.8275 48.3018 82.7326C48.7444 82.6332 49.0817 82.3698 49.3136 81.9422C49.6538 82.0416 49.9534 82.0687 50.2124 82.0235Z" fill="#2C3A64"/>
<path d="M53.3831 82.0235C53.5035 82.0024 53.7173 81.9031 54.0245 81.7254C54.3768 82.0175 54.562 82.3261 54.58 82.6513C54.5936 82.8771 54.6207 83.1662 54.6478 83.4146C54.6794 83.6992 54.4536 83.9521 54.169 83.9521L50.795 83.9702C50.4743 83.9747 50.2891 83.6133 50.4788 83.3514C50.7002 83.0443 51.057 82.8275 51.477 82.7326C51.9167 82.6332 52.2539 82.3698 52.4888 81.9422C52.826 82.0416 53.1241 82.0687 53.3831 82.0235Z" fill="#35488B"/>
<path d="M47.5294 56.6215C47.2404 57.299 46.7375 57.1545 46.0208 56.1879C46.3189 54.1705 47.2027 51.9226 48.6722 49.4445C51.0977 50.1671 47.9676 55.6053 47.5294 56.6215Z" fill="#FFB27D"/>
<path d="M49.0922 42.8456C49.1148 42.8049 50.0994 41.2466 51.9468 40.935C53.4373 40.682 54.8375 41.739 55.0678 43.234C55.2982 44.7426 55.0633 46.6893 52.6062 47.3939L49.0922 42.8456Z" fill="#ED7D2B"/>
<path d="M50.1762 48.5908C50.3027 48.1527 50.3117 47.6875 50.2982 47.3397C50.2861 47.1259 50.265 46.9452 50.2349 46.7977L52.6514 45.7498C52.5701 46.3595 52.5701 46.9106 52.6062 47.3939C52.6694 48.1527 52.8185 48.77 53.0534 49.2457L52.3217 51.2015L49.5439 49.5483C49.8736 49.3135 50.0678 48.9612 50.1762 48.5908Z" fill="#FFB27D"/>
<path d="M56.1925 70.7182C55.4382 71.4409 49.8691 72.9269 46.73 71.8564C46.2467 71.6938 46.8474 58.7895 47.3668 53.0759C47.0206 52.8832 46.8128 52.5776 46.7435 52.159L47.8004 50.3523C47.8426 50.268 47.8893 50.1882 47.9405 50.1129L47.954 50.0949C48.2837 49.6206 48.7986 49.2864 49.4039 49.2006C49.5574 49.1825 49.7246 49.1915 49.9097 49.1735C49.8691 49.589 50.0136 49.9413 50.7318 50.0813C51.6848 50.271 52.5881 49.6658 53.0534 49.2457C53.8031 49.4038 54.2367 49.4625 54.8329 49.711C55.4833 49.982 55.8718 50.6595 55.7769 51.3596L55.5963 52.683L55.0272 56.897C54.9504 57.4255 54.9549 57.963 55.0362 58.4914C55.2801 60.0949 55.6685 63.9973 55.926 66.9648C56.1112 69.056 56.2286 70.682 56.1925 70.7182Z" fill="#2C3A64"/>
<path d="M49.0695 49.5483C47.4435 50.8537 46.897 54.1328 47.1093 56.3686C47.5158 55.3523 47.4887 53.8483 47.8861 52.2539C48.1421 51.218 48.6269 50.2966 49.3405 49.4896C49.3134 49.4896 49.2231 49.5092 49.0695 49.5483Z" fill="#FFB93E"/>
<path d="M50.2937 47.3397L52.6062 47.3939C51.8745 48.225 51.0645 48.624 50.1762 48.5909C50.3027 48.1527 50.3117 47.6875 50.2937 47.3397Z" fill="#ED985F"/>
<path d="M49.2638 43.5005C49.6252 42.7959 50.7137 42.1771 52.4977 42.5113C53.392 42.683 54.3676 44.4083 53.2339 46.626C52.5354 47.9931 51.3159 48.3875 49.5755 47.8094C48.1347 47.3397 48.9025 44.2051 49.2638 43.5005Z" fill="#FFB27D"/>
<path d="M50.7046 46.6848C50.6203 46.8625 50.3478 46.8851 49.8871 46.7525C49.5017 46.6441 49.3376 46.4875 49.3948 46.2828C49.8073 46.2195 50.2439 46.3535 50.7046 46.6848Z" fill="white"/>
<path d="M55.926 66.9648C55.8447 66.87 50.5647 60.7092 50.375 57.4345C50.2455 55.2304 51.1278 53.3243 53.0218 51.7164C54.1555 51.6396 54.9911 52.01 55.5963 52.683L55.0272 56.8971C54.9549 57.4255 54.9594 57.963 55.0362 58.4915C55.2801 60.0949 55.6686 63.9974 55.926 66.9648Z" fill="#232E4F"/>
<path d="M55.4607 50.0226C54.1328 49.5483 53.9521 50.2033 53.0533 51.9693C52.1545 53.7353 51.5041 57.2357 55.3884 59.7109C55.536 60.1957 55.5134 60.5465 55.3207 60.7633C53.5562 60.0135 52.3864 58.8497 51.8113 57.2719C50.655 54.0831 51.3325 49.9187 53.8528 49.3361C54.8133 49.2999 55.3493 49.5288 55.4607 50.0226Z" fill="#FFB93E"/>
<path d="M48.8393 44.9548C48.7249 44.7712 48.7444 44.2457 48.898 43.3785C49.1238 42.0732 51.0253 41.1834 52.954 41.9332C54.8826 42.6784 54.4038 46.4182 53.4824 46.0705C51.9317 45.4923 51.2391 44.3872 51.4047 42.7552C50.2966 42.5655 49.4415 43.2987 48.8393 44.9548Z" fill="#ED7D2B"/>
<path d="M55.3433 50.4065C56.1472 51.6802 54.1418 55.9531 53.5773 57.2675C53.1979 58.1437 52.0311 59.6237 50.0768 61.7074C49.4234 61.4424 49.1434 61.2136 49.2367 61.0209C49.3271 60.8282 50.1506 59.3707 51.7074 56.6487C51.7375 55.5315 52.1063 53.5697 52.8139 50.7633C53.9642 49.6763 54.8073 49.5574 55.3433 50.4065Z" fill="#FFB27D"/>
<path d="M46.8881 56.5809C47.4752 57.0325 48.2702 60.2304 48.3424 60.4381C48.3906 60.5767 48.228 60.8703 47.8546 61.3189C46.4936 59.8133 45.8838 58.103 46.0254 56.1879C46.2121 56.1457 46.4996 56.2767 46.8881 56.5809Z" fill="#FFB27D"/>
<path d="M50.0769 61.7073C50.095 61.8488 49.7848 62.031 49.1464 62.2538C48.1888 62.588 47.7823 61.626 47.8545 61.3189C47.9027 61.1141 48.3634 61.0148 49.2367 61.0208L50.0769 61.7073Z" fill="#FFB27D"/>
<path d="M48.3424 60.4381C49.041 60.7634 49.2714 61.0976 49.0335 61.4409C48.6766 61.9604 47.9674 61.6487 47.8545 61.319C47.7822 61.0991 47.9449 60.8055 48.3424 60.4381Z" fill="#FFB27D"/>
<path d="M54.9007 49.9187C56.0149 50.2198 56.2242 51.6004 55.5286 54.0605C54.1223 54.193 52.9615 53.8347 52.046 52.9856C51.8518 51.6531 53.234 49.467 54.9007 49.9187Z" fill="#2C3A64"/>
<path d="M39.4491 33.1888C40.0272 35.3026 41.3641 41.6576 41.861 42.2538C42.2313 42.7025 44.2458 44.7516 47.9043 48.4011C48.1151 49.0967 47.9736 49.6372 47.4797 50.0226C40.8884 47.0415 37.6966 44.61 37.9043 42.7281C38.5728 36.7088 37.8532 32.0505 35.7454 28.7533C37.552 29.2833 38.7866 30.7618 39.4491 33.1888Z" fill="#233862"/>
<path d="M21.608 78.4598L23.4056 78.8754C23.4929 79.7095 23.5185 80.4382 23.4824 81.0615C23.4327 81.9964 23.7489 83.0037 24.5935 83.1843C25.1566 83.3078 25.3222 83.5697 25.0903 83.9702C23.8949 83.9702 23.1391 83.9702 22.823 83.9702C22.3487 83.9702 21.8203 83.505 21.6893 82.6468C21.5583 81.7887 20.5827 81.3189 20.3704 80.6188C20.2289 80.1521 20.5194 79.589 21.2421 78.9296L21.6125 78.4598H21.608Z" fill="#233862"/>
<path d="M36.9197 81.0931C37.2087 82.3668 38.9251 82.9404 39.9007 83.094C40.5541 83.1994 40.8808 83.4854 40.8808 83.9521L34.7968 83.9657C34.4807 83.8091 34.3873 82.9811 34.5168 81.4815C35.926 80.3734 36.7269 80.244 36.9197 81.0931Z" fill="#233862"/>
<path d="M39.6522 49.7336C39.4384 52.3593 39.2051 55.25 38.9521 58.4057C38.4417 64.842 37.823 72.7462 37.7642 74.2412C37.695 75.9757 37.5188 78.228 37.2358 80.9982C36.5673 81.6577 35.5646 81.8489 34.2277 81.5719C33.0352 77.6122 32.2689 73.5396 31.9287 69.3542C31.9196 69.2518 31.9106 69.1479 31.9015 69.0425C31.5854 64.7817 31.1819 58.1633 30.6911 49.187L39.6522 49.729V49.7336Z" fill="#FFB93E"/>
<path d="M39.6522 49.7336C39.4384 52.3593 39.2051 55.25 38.9521 58.4057L31.9287 69.3542C31.9196 69.2518 31.9121 69.1479 31.9061 69.0425C31.5869 64.7817 31.1819 58.1633 30.6911 49.187L39.6522 49.729V49.7336Z" fill="#E3A330"/>
<path d="M38.1888 50.1988C34.3346 59.711 31.1397 66.7029 28.6044 71.1744C26.072 75.6459 24.4098 78.505 23.6179 79.7516C22.1635 79.1795 21.3701 78.6992 21.2376 78.3108C22.2072 69.6809 23.5411 64.3135 25.2394 62.2087C26.6757 60.4246 28.365 55.0723 28.4463 53.2024C28.5005 51.9528 28.6721 50.0934 28.9612 47.6243L38.1843 50.1988H38.1888Z" fill="#FFB93E"/>
<path d="M32.5474 23.4688L33.9792 24.607L35.4878 25.7949C35.4878 26.084 35.4562 26.4845 35.393 26.9964C35.3568 27.3306 35.2981 27.7236 35.2213 28.1752C35.8687 28.5215 36.3776 28.928 36.748 29.3947C35.2424 29.8615 33.1858 29.467 30.5782 28.2114C31.9663 27.1785 32.6227 25.5977 32.5474 23.4688Z" fill="#FFB27D"/>
<path d="M39.9006 50.0587C39.8284 50.1174 39.7516 50.1491 39.6612 50.1491C38.8121 50.1355 36.3415 50.6007 34.2548 50.3884C32.4842 50.2168 30.9215 49.7064 29.2503 48.9747C29.0245 48.8708 28.5096 48.5953 28.5186 48.3604C28.5276 48.0849 28.5547 47.701 28.5909 47.2042C28.6586 46.2285 28.758 44.8419 28.7896 43.2023C28.8122 41.9828 28.7986 40.6233 28.7083 39.187C28.7053 39.0906 28.7008 38.9928 28.6948 38.8934C28.6722 38.3649 28.6586 37.8365 28.6586 37.3171C28.6496 35.6414 28.7715 34.047 29.0109 32.6197C29.44 30.1445 30.2304 28.1888 31.4093 27.3261C31.5628 27.2087 32.543 27.692 33.4463 28.1256C34.2683 28.5276 35.0949 28.5727 35.8717 28.4192L36.6531 29.1012C37.6016 29.9639 38.6405 31.1518 39.1012 32.9449C39.4806 34.4625 39.7064 37.2132 39.8284 40.0677C39.8871 41.364 39.9322 42.6603 39.9503 43.8979V43.9431C39.9593 44.0696 39.9593 44.2005 39.9593 44.327C40 47.4977 39.9593 50.0136 39.8961 50.0587H39.9006Z" fill="#2B478B"/>
<path d="M33.9793 24.6071L35.4878 25.7949C35.4878 26.084 35.4562 26.4845 35.393 26.9964C34.1404 26.6622 33.1843 25.8943 32.5249 24.6929L33.9793 24.6071Z" fill="#ED985F"/>
<path d="M36.1789 25.7408C33.6917 26.1473 32.3307 25.5857 32.0958 24.056C31.7435 21.7615 31.0298 20.2981 33.3966 19.8103C35.7634 19.3225 36.3596 20.131 36.6667 20.8672C36.9738 21.608 37.141 25.524 36.1789 25.7408Z" fill="#FFB27D"/>
<path d="M30.7408 19.5348C30.7047 19.4987 30.6279 19.467 30.4518 19.458C30.5451 19.3978 30.6535 19.3662 30.777 19.3632C30.8131 19.1238 30.9441 18.6947 31.3596 18.5908C31.209 18.6721 31.1247 18.7971 31.1067 18.9657C31.59 18.4734 32.6198 18.112 35.4833 18.3379C39.2503 18.636 38.0082 21.0479 37.5204 21.337C37.0326 21.6215 35.804 20.8356 34.8962 20.9079C33.9838 20.9801 33.8122 22.2945 33.505 22.4752C33.1979 22.6513 33.3199 22.3352 32.8998 22.1455C32.4843 21.9557 32.4436 22.6513 32.5656 23.0985C32.6439 23.3996 32.4918 23.7474 32.1094 24.1418C32.1094 24.1418 31.9167 23.9341 31.5312 23.5185C30.9531 22.8952 30.4066 20.2484 30.6686 19.6884C30.6926 19.6372 30.7167 19.586 30.7408 19.5348Z" fill="#ED7D2B"/>
<path d="M48.6495 48.785C48.9657 48.6435 49.2201 48.6751 49.4128 48.8799C49.6974 49.187 50.3613 49.3992 50.3071 49.5618C50.1852 49.8915 49.5709 49.5167 48.9205 49.7199C48.6947 49.7922 47.99 49.3541 48.6495 48.785Z" fill="#FFB27D"/>
<path d="M28.7896 43.2024C28.8121 41.9829 28.7986 40.6233 28.7128 39.187C28.7067 39.0907 28.7007 38.9928 28.6947 38.8934C29.0515 37.1364 29.589 35.5782 30.3794 35.5285C31.9482 37.9916 31.4183 40.5496 28.7896 43.2024Z" fill="#233862"/>
<path d="M26.9422 49.4535C27.2403 50.122 28.0849 50.8988 28.0759 51.215C28.0714 51.5266 28.1166 52.3893 27.9449 52.3667C27.7733 52.3442 27.5294 51.3866 27.4526 51.7254C27.3713 52.0641 27.9991 53.8075 27.6107 53.5817C27.2177 53.3559 26.3053 52.2041 26.0885 51.8428C25.944 51.6019 25.807 50.8461 25.6775 49.5755C26.3249 49.0485 26.7465 49.0079 26.9422 49.4535Z" fill="#FFB27D"/>
<path d="M33.1482 32.3306C33.8528 34.1102 27.6062 42.4435 27.4119 42.8635C27.2825 43.1436 27.3201 45.4591 27.5249 49.8102C27.2599 50.3311 26.6125 50.6247 25.5827 50.6909C24.5679 46.4573 24.0726 44.0409 24.0967 43.4417C24.1328 42.5428 26.1698 32.8274 27.9268 30.1581C28.6796 29.0138 29.8434 28.0684 31.4183 27.3216C32.1048 29.4745 32.6814 31.1442 33.1482 32.3306Z" fill="#2B478B"/>
<path d="M55.8808 46.5221C56.8413 45.8326 57.6061 45.5555 58.1753 45.691C58.9386 45.8627 60.5691 45.5149 60.8898 45.4471C60.9169 45.4411 60.9365 45.4351 60.9485 45.4291L61.4409 46.8699C61.3716 46.885 61.2768 46.9045 61.1563 46.9286C60.6956 47.0415 59.7516 47.2809 58.8618 47.6287C57.6152 48.1255 56.8338 47.308 56.2782 47.0731C55.9079 46.9256 55.7754 46.7419 55.8808 46.5221Z" fill="#FFB27D"/>
<path d="M96.4182 84.3721H2.44355C2.36225 84.3721 2.29449 84.3134 2.29449 84.2366V84.0605C2.29449 83.9837 2.36225 83.9205 2.44355 83.9205H96.4182C96.4995 83.9205 96.5673 83.9837 96.5673 84.0605V84.2366C96.5673 84.3134 96.4995 84.3721 96.4182 84.3721Z" fill="#2E3552"/>
<path d="M54.5845 17.3261V20.2032C54.5845 21.206 53.7669 22.0235 52.7688 22.0235H45.9485L43.3424 23.4643L43.794 21.4002C43.5095 21.0795 43.3424 20.6594 43.3424 20.2032V17.3261C43.3424 16.3234 44.1599 15.5059 45.1581 15.5059H52.7688C53.7669 15.5059 54.5845 16.3234 54.5845 17.3261Z" fill="#D2E3FC"/>
<path d="M52.9088 17.701H45.0226C44.86 17.701 44.7245 17.57 44.7245 17.4074C44.7245 17.2448 44.86 17.1093 45.0226 17.1093H52.9088C53.0714 17.1093 53.2069 17.2448 53.2069 17.4074C53.2069 17.5655 53.0714 17.701 52.9088 17.701Z" fill="#B7D3F3"/>
<path d="M52.9088 18.9927H45.0226C44.86 18.9927 44.7245 18.8617 44.7245 18.6992C44.7245 18.5366 44.86 18.4011 45.0226 18.4011H52.9088C53.0714 18.4011 53.2069 18.5366 53.2069 18.6992C53.2069 18.8617 53.0714 18.9927 52.9088 18.9927Z" fill="#B7D3F3"/>
<path d="M52.9088 20.2348H45.0226C44.86 20.2348 44.7245 20.1039 44.7245 19.9413C44.7245 19.7787 44.86 19.6477 45.0226 19.6477H52.9088C53.0714 19.6477 53.2069 19.7787 53.2069 19.9413C53.2069 20.1039 53.0714 20.2348 52.9088 20.2348Z" fill="#B7D3F3"/>
</g>
<defs>
<clipPath id="clip0_13_270">
<rect width="100" height="100" fill="white"/>
</clipPath>
</defs>
</svg>
